<svg xmlns="http://www.w3.org/2000/svg" width="26.374" height="26.374" viewBox="0 0 26.374 26.374"><path d="M.824,19.231A.83.83,0,0,1,0,18.407V6.319C0,1.473,1.473,0,6.319,0h7.692c4.846,0,6.319,1.473,6.319,6.319V17.308c0,.176,0,.341-.011.516a.826.826,0,0,1-1.648-.11c.011-.132.011-.275.011-.407V6.319c0-3.923-.736-4.67-4.67-4.67H6.319c-3.934,0-4.67.747-4.67,4.67V18.407A.83.83,0,0,1,.824,19.231Z" transform="translate(3.022 1.374)" fill="#292d32"/><path d="M15.66,9.341H4.67A4.681,4.681,0,0,1,0,4.67V3.956A3.961,3.961,0,0,1,3.956,0h15.55a.83.83,0,0,1,.824.824V4.67A4.681,4.681,0,0,1,15.66,9.341ZM3.956,1.648A2.307,2.307,0,0,0,1.648,3.956V4.67A3.02,3.02,0,0,0,4.67,7.692H15.66A3.02,3.02,0,0,0,18.682,4.67V1.648Z" transform="translate(3.022 15.66)" fill="#292d32"/><path d="M9.616,1.648H.824A.83.83,0,0,1,0,.824.83.83,0,0,1,.824,0H9.616a.83.83,0,0,1,.824.824A.83.83,0,0,1,9.616,1.648Z" transform="translate(7.967 6.868)" fill="#292d32"/><path d="M6.319,1.648H.824A.83.83,0,0,1,0,.824.83.83,0,0,1,.824,0H6.319a.83.83,0,0,1,.824.824A.83.83,0,0,1,6.319,1.648Z" transform="translate(7.967 10.714)" fill="#292d32"/><path d="M0,0H26.374V26.374H0Z" fill="none" opacity="0"/></svg>