<svg xmlns="http://www.w3.org/2000/svg" width="26.374" height="26.374" viewBox="0 0 26.374 26.374">
    <path d="M18.682,1.1V3.846a3.85,3.85,0,0,1-3.846,3.846H3.846A3.85,3.85,0,0,1,0,3.846V3.132A3.138,3.138,0,0,1,3.132,0H17.583A1.1,1.1,0,0,1,18.682,1.1Z"
          transform="translate(3.846 16.484)" fill="#292d32"/>
    <path d="M13.187,0H5.495C1.1,0,0,1.1,0,5.495v8.33a4.729,4.729,0,0,1,3.132-1.187H17.583a1.1,1.1,0,0,0,1.1-1.1V5.495C18.682,1.1,17.583,0,13.187,0ZM10.44,9.616H4.945a.824.824,0,0,1,0-1.648H10.44a.824.824,0,1,1,0,1.648Zm3.3-3.846H4.945a.824.824,0,0,1,0-1.648h8.791a.824.824,0,1,1,0,1.648Z"
          transform="translate(3.846 2.198)" fill="#292d32"/>
    <path d="M0,0H26.374V26.374H0Z" transform="translate(26.374 26.374) rotate(180)" fill="none" opacity="0"/>
</svg>