<svg xmlns="http://www.w3.org/2000/svg" width="26.374" height="26.374" viewBox="0 0 26.374 26.374"><path d="M18.176,23.6H5.451A5.459,5.459,0,0,1,0,18.139V10A6.046,6.046,0,0,1,2.11,5.7L8.033,1.084A5.712,5.712,0,0,1,14.506.93L21.3,5.689a6,6,0,0,1,2.33,4.462v8A5.457,5.457,0,0,1,18.176,23.6ZM9.044,2.381,3.121,7a4.466,4.466,0,0,0-1.473,3v8.143a3.813,3.813,0,0,0,3.8,3.813H18.176a3.8,3.8,0,0,0,3.8-3.8v-8a4.36,4.36,0,0,0-1.626-3.11L13.561,2.282A4.09,4.09,0,0,0,9.044,2.381Z" transform="translate(1.374 1.399)" fill="#292d32"/><path d="M.824,4.945A.83.83,0,0,1,0,4.121V.824A.83.83,0,0,1,.824,0a.83.83,0,0,1,.824.824v3.3A.83.83,0,0,1,.824,4.945Z" transform="translate(12.363 15.66)" fill="#292d32"/><path d="M0,0H26.374V26.374H0Z" fill="none" opacity="0"/></svg>