<svg xmlns="http://www.w3.org/2000/svg" width="26.374" height="26.374" viewBox="0 0 26.374 26.374"><path d="M19.835,5.294,13.506.866a5.333,5.333,0,0,0-6.033.143l-5.506,4.3A5.662,5.662,0,0,0,0,9.305v7.583a5.089,5.089,0,0,0,5.077,5.088H16.923A5.079,5.079,0,0,0,22,16.9V9.448A5.608,5.608,0,0,0,19.835,5.294ZM11.824,17.58a.824.824,0,0,1-1.648,0v-3.3a.824.824,0,1,1,1.648,0Z" transform="translate(2.187 2.2)" fill="#292d32"/><path d="M0,0H26.374V26.374H0Z" transform="translate(26.374 26.374) rotate(180)" fill="none" opacity="0"/></svg>