<svg xmlns="http://www.w3.org/2000/svg" width="26.5" height="26.5" viewBox="0 0 26.5 26.5"><path d="M0,0H26.5V26.5H0Z" fill="none" opacity="0"/><path d="M12.356,0H5.289a6.7,6.7,0,0,0-.828.044C1.491.3,0,2.054,0,5.289V9.706c0,4.417,1.767,5.289,5.289,5.289h.442a1.02,1.02,0,0,1,.707.353l1.325,1.767a1.249,1.249,0,0,0,2.12,0l1.325-1.767a.889.889,0,0,1,.707-.353h.442c3.235,0,4.991-1.48,5.245-4.461a6.7,6.7,0,0,0,.044-.828V5.289Q17.645.006,12.356,0ZM4.969,8.833a1.1,1.1,0,1,1,1.1-1.1A1.1,1.1,0,0,1,4.969,8.833Zm3.854,0a1.1,1.1,0,1,1,1.1-1.1A1.1,1.1,0,0,1,8.822,8.833Zm3.865,0a1.1,1.1,0,1,1,1.1-1.1A1.1,1.1,0,0,1,12.687,8.833Z" transform="translate(2.208 6.625)" fill="#292d32"/><path d="M16.951,5.289V9.706c0,2.208-.685,3.71-2.054,4.538a.483.483,0,0,1-.718-.453l.011-4.085c0-4.417-2.529-6.945-6.945-6.945L.52,2.771a.483.483,0,0,1-.453-.718C.9.685,2.4,0,4.595,0h7.067Q16.945,0,16.951,5.289Z" transform="translate(7.319 2.208)" fill="#292d32"/></svg>