<svg xmlns="http://www.w3.org/2000/svg" width="26.37" height="26.37" viewBox="0 0 26.37 26.37"><g transform="translate(-236 -444)"><g transform="translate(236 444)"><path d="M0,0H26.37V26.37H0Z" fill="none" opacity="0"/><path d="M3.3.549v1.1a.549.549,0,0,1-.538.549h-1.6a1.137,1.137,0,0,1-1.154-1A1.1,1.1,0,0,1,.324.319,1.045,1.045,0,0,1,1.093,0H2.752A.551.551,0,0,1,3.3.549Z" transform="translate(20.267 14.438)" fill="#292d32"/><path d="M17.075,6.373a2.219,2.219,0,0,0-.593,2.176,2.4,2.4,0,0,0,2.34,1.67h.956a1.1,1.1,0,0,1,1.1,1.1v.209a4.141,4.141,0,0,1-4.131,4.131H4.131A4.141,4.141,0,0,1,0,11.526V4.131A4.1,4.1,0,0,1,1.648.835,4.072,4.072,0,0,1,4.131,0H16.745a4.141,4.141,0,0,1,4.131,4.131v.483a1.1,1.1,0,0,1-1.1,1.1H18.657A2.19,2.19,0,0,0,17.075,6.373Z" transform="translate(2.692 7.57)" fill="#292d32"/><path d="M9.361,3.1a.453.453,0,0,1-.374.758L.549,3.846a.546.546,0,0,1-.385-.934l1.78-1.791a3.873,3.873,0,0,1,5.45,0L9.317,3.066C9.328,3.076,9.35,3.087,9.361,3.1Z" transform="translate(8.439 2.197)" fill="#292d32"/></g></g></svg>