<svg xmlns="http://www.w3.org/2000/svg" width="26.374" height="26.374" viewBox="0 0 26.374 26.374">
  <g id="vuesax_outline_messages" data-name="vuesax/outline/messages" transform="translate(0 0)">
    <g id="messages" transform="translate(0 0)">
      <path id="Vector" d="M9.6,19.264a2.134,2.134,0,0,1-1.714-.912L6.572,16.594c0,.011-.055-.022-.077-.022H6.088C2.33,16.572,0,15.55,0,10.484v-4.4C0,1.462,2.824.253,5.2.044A7.421,7.421,0,0,1,6.088,0h7.033c3.978,0,6.088,2.11,6.088,6.088v4.4a6.315,6.315,0,0,1-.055.923c-.2,2.341-1.407,5.165-6.033,5.165h-.44l-1.363,1.78A2.134,2.134,0,0,1,9.6,19.264ZM6.088,1.648q-.379,0-.725.033C2.813,1.9,1.648,3.3,1.648,6.088v4.4c0,3.769,1.165,4.44,4.44,4.44h.44a1.839,1.839,0,0,1,1.363.67l1.319,1.769a.44.44,0,0,0,.791,0L11.319,15.6a1.7,1.7,0,0,1,1.363-.681h.44c2.791,0,4.187-1.176,4.4-3.681a5.963,5.963,0,0,0,.044-.758v-4.4c0-3.066-1.374-4.44-4.44-4.44Z" transform="translate(1.374 5.769)" fill="#292d32"/>
      <path id="Vector-2" data-name="Vector" d="M1.1,2.2A1.1,1.1,0,1,1,2.2,1.1,1.1,1.1,0,0,1,1.1,2.2Z" transform="translate(9.88 13.396)" fill="#292d32"/>
      <path id="Vector-3" data-name="Vector" d="M1.1,2.2A1.1,1.1,0,1,1,2.2,1.1,1.1,1.1,0,0,1,1.1,2.2Z" transform="translate(13.396 13.396)" fill="#292d32"/>
      <path id="Vector-4" data-name="Vector" d="M1.1,2.2A1.1,1.1,0,1,1,2.2,1.1,1.1,1.1,0,0,1,1.1,2.2Z" transform="translate(6.373 13.396)" fill="#292d32"/>
      <path id="Vector-5" data-name="Vector" d="M13.893,16.528a.815.815,0,0,1-.593-.253.8.8,0,0,1-.22-.67,5.145,5.145,0,0,0,.044-.725v-4.4c0-3.066-1.374-4.44-4.44-4.44H1.651q-.379,0-.725.033a.835.835,0,0,1-.67-.22A.837.837,0,0,1,0,5.2C.2,2.824,1.421,0,6.047,0H13.08c3.978,0,6.088,2.11,6.088,6.088v4.4c0,4.626-2.824,5.835-5.2,6.044ZM1.783,4.4h6.89c3.978,0,6.088,2.11,6.088,6.088v4.253c1.868-.462,2.747-1.835,2.747-4.253v-4.4c0-3.066-1.374-4.44-4.44-4.44H6.036C3.618,1.648,2.256,2.528,1.783,4.4Z" transform="translate(5.821 1.374)" fill="#292d32"/>
      <path id="Vector-6" data-name="Vector" d="M0,0H26.374V26.374H0Z" fill="none" opacity="0"/>
    </g>
  </g>
</svg>
