<svg xmlns="http://www.w3.org/2000/svg" width="14.346" height="12.277" viewBox="0 0 14.346 12.277">
  <g id="eye" transform="translate(-1.455 -2.98)">
    <path id="Path_7256" data-name="Path 7256" d="M10.617,13.563a2.947,2.947,0,1,1,2.947-2.947A2.948,2.948,0,0,1,10.617,13.563Zm0-4.873a1.926,1.926,0,1,0,1.926,1.926A1.929,1.929,0,0,0,10.617,8.691Z" transform="translate(-1.985 -1.498)" fill="#292d32"/>
    <path id="Path_7257" data-name="Path 7257" d="M8.631,15.257A8.034,8.034,0,0,1,2,11.16,4.123,4.123,0,0,1,2,7.077a8.052,8.052,0,0,1,6.635-4.1,8.032,8.032,0,0,1,6.629,4.1,4.123,4.123,0,0,1,0,4.083A8.032,8.032,0,0,1,8.631,15.257ZM8.631,4A7.029,7.029,0,0,0,2.86,7.628a3.093,3.093,0,0,0,0,2.981,7.029,7.029,0,0,0,5.771,3.627A7.029,7.029,0,0,0,14.4,10.609a3.093,3.093,0,0,0,0-2.981A7.029,7.029,0,0,0,8.631,4Z" fill="#292d32"/>
  </g>
</svg>
