<svg id="wallet" xmlns="http://www.w3.org/2000/svg" width="26.37" height="26.37" viewBox="0 0 26.37 26.37">
  <path id="Vector" d="M22.037,5.417v5.417a5.162,5.162,0,0,1-5.509,5.417H5.509A5.162,5.162,0,0,1,0,10.833V5.417A5.069,5.069,0,0,1,4.617.065,5.962,5.962,0,0,1,5.509,0H16.528a5.123,5.123,0,0,1,.826.054A5.081,5.081,0,0,1,22.037,5.417Z" transform="translate(2.167 7.953)" fill="none" stroke="#292d32" stroke-linecap="round" stroke-linejoin="round" stroke-width="1.5"/>
  <path id="Vector-2" data-name="Vector" d="M12.523,5.471a4.954,4.954,0,0,0-.812-.054H.877A5.766,5.766,0,0,0,0,5.482a3.3,3.3,0,0,1,.628-.845L4.149,1.105a3.819,3.819,0,0,1,5.373,0l1.9,1.918A3.655,3.655,0,0,1,12.523,5.471Z" transform="translate(6.892 2.167)" fill="none" stroke="#292d32" stroke-linecap="round" stroke-linejoin="round" stroke-width="1.5"/>
  <path id="Vector-3" data-name="Vector" d="M5.417,0H2.167a2.167,2.167,0,0,0,0,4.333h3.25" transform="translate(18.787 13.773)" fill="none" stroke="#292d32" stroke-linecap="round" stroke-linejoin="round" stroke-width="1.5"/>
  <path id="Vector-4" data-name="Vector" d="M0,0H26.37V26.37H0Z" fill="none" opacity="0"/>
</svg>
