<svg xmlns="http://www.w3.org/2000/svg" width="24" height="24" viewBox="0 0 24 24">
  <g id="vuesax_outline_buildings" data-name="vuesax/outline/buildings" transform="translate(-359 -188)">
    <g id="buildings" transform="translate(359 188)">
      <path id="Vector" d="M11.75,15.5h-8A3.381,3.381,0,0,1,0,11.75v-8A3.381,3.381,0,0,1,3.75,0h5A.755.755,0,0,1,9.5.75v11c0,1.58.67,2.25,2.25,2.25a.75.75,0,1,1,0,1.5Zm-8-14c-1.58,0-2.25.67-2.25,2.25v8c0,1.58.67,2.25,2.25,2.25h4.8A4.259,4.259,0,0,1,8,11.75V1.5Z" transform="translate(1.25 7.25)" fill="#1da1f2"/>
      <path id="Vector-2" data-name="Vector" d="M5.75,5.5h-5A.755.755,0,0,1,0,4.75v-2A2.748,2.748,0,0,1,2.75,0H5.86a.754.754,0,0,1,.59.29.763.763,0,0,1,.13.65,3.068,3.068,0,0,0-.08.81v3A.755.755,0,0,1,5.75,5.5ZM1.5,4H5V1.5H2.75A1.25,1.25,0,0,0,1.5,2.75Z" transform="translate(4.25 3.25)" fill="#1da1f2"/>
      <path id="Vector-3" data-name="Vector" d="M.75,6.5A.755.755,0,0,1,0,5.75v-5A.755.755,0,0,1,.75,0,.755.755,0,0,1,1.5.75v5A.755.755,0,0,1,.75,6.5Z" transform="translate(13.25 7.25)" fill="#1da1f2"/>
      <path id="Vector-4" data-name="Vector" d="M.75,6.5A.755.755,0,0,1,0,5.75v-5A.755.755,0,0,1,.75,0,.755.755,0,0,1,1.5.75v5A.755.755,0,0,1,.75,6.5Z" transform="translate(17.25 7.25)" fill="#1da1f2"/>
      <path id="Vector-5" data-name="Vector" d="M4.75,6.5h-4A.755.755,0,0,1,0,5.75v-4A1.758,1.758,0,0,1,1.75,0h2A1.758,1.758,0,0,1,5.5,1.75v4A.755.755,0,0,1,4.75,6.5ZM1.5,5H4V1.75a.248.248,0,0,0-.25-.25h-2a.248.248,0,0,0-.25.25Z" transform="translate(13.25 16.25)" fill="#1da1f2"/>
      <path id="Vector-6" data-name="Vector" d="M.75,5.5A.755.755,0,0,1,0,4.75v-4A.755.755,0,0,1,.75,0,.755.755,0,0,1,1.5.75v4A.755.755,0,0,1,.75,5.5Z" transform="translate(5.25 12.25)" fill="#1da1f2"/>
      <path id="Vector-7" data-name="Vector" d="M9.75,21.5h-6A3.381,3.381,0,0,1,0,17.75v-14A3.381,3.381,0,0,1,3.75,0h6A3.381,3.381,0,0,1,13.5,3.75v14A3.381,3.381,0,0,1,9.75,21.5Zm-6-20c-1.58,0-2.25.67-2.25,2.25v14c0,1.58.67,2.25,2.25,2.25h6c1.58,0,2.25-.67,2.25-2.25v-14c0-1.58-.67-2.25-2.25-2.25Z" transform="translate(9.25 1.25)" fill="#1da1f2"/>
      <path id="Vector-8" data-name="Vector" d="M0,0H24V24H0Z" fill="none" opacity="0"/>
    </g>
  </g>
</svg>
