<svg xmlns="http://www.w3.org/2000/svg"  viewBox="0 0 26.534 26.534"><g transform="translate(0 0)"><path d="M7.537,15.078a.82.82,0,0,0,.586-.243.834.834,0,0,0,0-1.172L2,7.537,8.123,1.412A.829.829,0,1,0,6.951.24L.24,6.951a.834.834,0,0,0,0,1.172l6.711,6.711A.82.82,0,0,0,7.537,15.078Z" transform="translate(3.043 5.73)" fill="#657786"/><path d="M.829,1.658H19.436a.835.835,0,0,0,.829-.829A.835.835,0,0,0,19.436,0H.829A.835.835,0,0,0,0,.829.835.835,0,0,0,.829,1.658Z" transform="translate(3.228 12.438)" fill="#657786"/><path d="M26.534,0H0V26.534H26.534Z" fill="none" opacity="0"/></g></svg>
