<svg xmlns="http://www.w3.org/2000/svg" viewBox="0 0 11.962 14.952">
    <g transform="translate(-106.99 -383.495)">
        <g transform="translate(104 382)">
            <path d="M9.151,0H2.811C.748,0,0,.748,0,2.848V12.1c0,2.1.748,2.848,2.811,2.848H9.143c2.071,0,2.819-.748,2.819-2.848V2.848C11.962.748,11.214,0,9.151,0ZM5.981,12.934a1.308,1.308,0,1,1,1.308-1.308A1.315,1.315,0,0,1,5.981,12.934Zm1.5-9.756H4.486a.561.561,0,1,1,0-1.121h2.99a.561.561,0,1,1,0,1.121Z"
                  transform="translate(2.99 1.495)" fill="#1da1f2"/>
        </g>
    </g>
</svg>