<svg xmlns="http://www.w3.org/2000/svg" viewBox="0 0 24 24"><path d="M.75,17.5A.755.755,0,0,1,0,16.75v-11C0,1.34,1.34,0,5.75,0h7c4.41,0,5.75,1.34,5.75,5.75v10c0,.16,0,.31-.01.47a.752.752,0,1,1-1.5-.1c.01-.12.01-.25.01-.37v-10c0-3.57-.67-4.25-4.25-4.25h-7c-3.58,0-4.25.68-4.25,4.25v11A.755.755,0,0,1,.75,17.5Z" transform="translate(2.75 1.25)" fill="#657786"/><path d="M14.25,8.5h-10A4.259,4.259,0,0,1,0,4.25V3.6A3.6,3.6,0,0,1,3.6,0H17.75a.755.755,0,0,1,.75.75v3.5A4.259,4.259,0,0,1,14.25,8.5ZM3.6,1.5A2.1,2.1,0,0,0,1.5,3.6v.65A2.748,2.748,0,0,0,4.25,7h10A2.748,2.748,0,0,0,17,4.25V1.5Z" transform="translate(2.75 14.25)" fill="#657786"/><path d="M8.75,1.5h-8A.755.755,0,0,1,0,.75.755.755,0,0,1,.75,0h8A.755.755,0,0,1,9.5.75.755.755,0,0,1,8.75,1.5Z" transform="translate(7.25 6.25)" fill="#657786"/><path d="M5.75,1.5h-5A.755.755,0,0,1,0,.75.755.755,0,0,1,.75,0h5A.755.755,0,0,1,6.5.75.755.755,0,0,1,5.75,1.5Z" transform="translate(7.25 9.75)" fill="#657786"/><path d="M0,0H24V24H0Z" fill="none" opacity="0"/></svg>