<svg xmlns="http://www.w3.org/2000/svg" viewBox="0 0 26.37 26.37">
    <g transform="translate(0)">
        <g transform="translate(0)">
            <path d="M6.053,1.579H.79A.8.8,0,0,1,0,.79.8.8,0,0,1,.79,0H6.053a.8.8,0,0,1,.79.79A.8.8,0,0,1,6.053,1.579Z"
                  transform="translate(9.764 10.908)" fill="#292d32"/>
            <path d="M.79,6.843A.8.8,0,0,1,0,6.053V.79A.8.8,0,0,1,.79,0a.8.8,0,0,1,.79.79V6.053A.8.8,0,0,1,.79,6.843Z"
                  transform="translate(12.395 8.324)" fill="#292d32"/>
            <path d="M18.336,23.738a3.652,3.652,0,0,1-1.789-.508l-5.423-2.992a1.607,1.607,0,0,0-1.278,0L4.423,23.23a3.071,3.071,0,0,1-3.078.166A3.035,3.035,0,0,1,0,20.647V5.09A5.115,5.115,0,0,1,5.123,0H15.847A5.115,5.115,0,0,1,20.97,5.09V20.647A3.035,3.035,0,0,1,19.625,23.4,2.5,2.5,0,0,1,18.336,23.738ZM10.479,18.45a2.969,2.969,0,0,1,1.445.342l5.423,2.992a1.478,1.478,0,0,0,1.422.188,1.478,1.478,0,0,0,.522-1.325V5.09a3.456,3.456,0,0,0-3.456-3.434H5.123A3.456,3.456,0,0,0,1.667,5.09V20.647a1.465,1.465,0,0,0,.522,1.325,1.508,1.508,0,0,0,1.422-.188l5.423-2.992A2.969,2.969,0,0,1,10.479,18.45Z"
                  transform="translate(2.705 1.316)" fill="#292d32"/>
            <path d="M0,0H26.37V26.37H0Z" fill="none" opacity="0"/>
        </g>
    </g>
</svg>