<svg xmlns="http://www.w3.org/2000/svg" viewBox="0 0 12.825 12.825">
    <g transform="translate(-5.13 6.412) rotate(-45)">
        <path d="M15.417,1.814H.907A.913.913,0,0,1,0,.907.913.913,0,0,1,.907,0h14.51a.913.913,0,0,1,.907.907A.913.913,0,0,1,15.417,1.814Z"
              transform="translate(0 7.255)" fill="#aab8c2"/>
        <path d="M.907,16.324A.913.913,0,0,1,0,15.417V.907A.913.913,0,0,1,.907,0a.913.913,0,0,1,.907.907v14.51A.913.913,0,0,1,.907,16.324Z"
              transform="translate(7.255 0)" fill="#aab8c2"/>
    </g>
</svg>