<svg xmlns="http://www.w3.org/2000/svg" width="22" height="22" viewBox="0 0 22 22">
    <g transform="translate(-108 -188)">
        <g transform="translate(108 188)">
            <path d="M14.85,19.708a8.386,8.386,0,0,1-3.254-.724A17.211,17.211,0,0,1,8.305,17.1a28.613,28.613,0,0,1-3.089-2.631,27.386,27.386,0,0,1-2.631-3.08A17.107,17.107,0,0,1,.715,8.122,8.487,8.487,0,0,1,0,4.849,5.524,5.524,0,0,1,.376,2.823,4.9,4.9,0,0,1,1.6,1.045,3.329,3.329,0,0,1,3.978,0,2.479,2.479,0,0,1,5.014.229a2.1,2.1,0,0,1,.88.742l2.127,3a3.551,3.551,0,0,1,.44.779,2.059,2.059,0,0,1,.183.816,1.945,1.945,0,0,1-.293,1.008,3.667,3.667,0,0,1-.614.779L7.113,8a.447.447,0,0,0,.027.064,7.049,7.049,0,0,0,.752,1.017c.449.513.871.981,1.293,1.412.541.532.99.953,1.412,1.3a5.97,5.97,0,0,0,1.063.761l-.018.046.669-.66a3.424,3.424,0,0,1,.825-.632,1.935,1.935,0,0,1,1.788-.1,4.173,4.173,0,0,1,.77.431L18.737,13.8a1.97,1.97,0,0,1,.733.871,2.653,2.653,0,0,1,.2.99,3.057,3.057,0,0,1-.293,1.293,4.269,4.269,0,0,1-.733,1.1,4.7,4.7,0,0,1-1.751,1.256A5.412,5.412,0,0,1,14.85,19.708ZM3.978,1.375a2.009,2.009,0,0,0-1.421.66,3.517,3.517,0,0,0-.9,1.293,4.011,4.011,0,0,0-.284,1.522A7.067,7.067,0,0,0,1.98,7.581,15.3,15.3,0,0,0,3.7,10.569a25.361,25.361,0,0,0,2.484,2.915,25.81,25.81,0,0,0,2.924,2.493,14.894,14.894,0,0,0,3.016,1.733,5.467,5.467,0,0,0,4.244.321,3.384,3.384,0,0,0,1.256-.907,2.973,2.973,0,0,0,.513-.77,1.624,1.624,0,0,0,.165-.706,1.094,1.094,0,0,0-.1-.458.694.694,0,0,0-.257-.275l-3.043-2.163a2.628,2.628,0,0,0-.5-.284.482.482,0,0,0-.6.028,2.09,2.09,0,0,0-.532.412l-.7.688a1.306,1.306,0,0,1-1.329.275L11,13.759a7.814,7.814,0,0,1-1.3-.926c-.44-.376-.917-.816-1.494-1.384-.449-.458-.9-.944-1.366-1.485A7.821,7.821,0,0,1,5.9,8.672L5.793,8.4a1.711,1.711,0,0,1-.073-.458,1.176,1.176,0,0,1,.348-.853l.688-.715a2.654,2.654,0,0,0,.412-.513.588.588,0,0,0,.1-.312A.852.852,0,0,0,7.2,5.253,2.63,2.63,0,0,0,6.9,4.767L4.776,1.76a.845.845,0,0,0-.339-.284A1.148,1.148,0,0,0,3.978,1.375Zm7.663,11.238-.147.623.248-.642A.113.113,0,0,0,11.642,12.613Z"
                  transform="translate(1.146 1.146)" fill="#292d32"/>
            <path d="M0,0H22V22H0Z" fill="none" opacity="0"/>
        </g>
    </g>
</svg>