<svg xmlns="http://www.w3.org/2000/svg" width="29.684" height="29.684" viewBox="0 0 29.684 29.684">
    <g transform="translate(-4 -4)">
        <path d="M18.842,4A14.842,14.842,0,1,0,33.684,18.842,14.842,14.842,0,0,0,18.842,4Z" fill="#29b6f6"/>
        <path d="M27.773,14.742l-2.78,14.193a.866.866,0,0,1-.924.649.993.993,0,0,1-.648-.2l-6.021-5L14.454,22.9l-3.781-1.006S10,21.7,10,21.143c0-.464.692-.685.692-.685l15.818-6.284A3.022,3.022,0,0,1,27.346,14c.217,0,.464.093.464.371A2.169,2.169,0,0,1,27.773,14.742Z"
              transform="translate(-1.547 -2.579)" fill="#fff"/>
        <path d="M21.97,29.857l-2.542,2.5a.485.485,0,0,1-.258.089.367.367,0,0,1-.163-.032l.715-4.427Z"
              transform="translate(-3.87 -6.188)" fill="#b0bec5"/>
        <path d="M26.313,18.145a.371.371,0,0,0-.52-.069L16,23.937s1.563,4.372,1.8,5.129.43.775.43.775l.715-4.427,7.3-6.75A.37.37,0,0,0,26.313,18.145Z"
              transform="translate(-3.095 -3.611)" fill="#cfd8dc"/>
    </g>
</svg>