<svg xmlns="http://www.w3.org/2000/svg" viewBox="0 0 33 33">
    <g transform="translate(-0.326 0)">
        <rect width="33" height="33" rx="10" transform="translate(0.326 0)" fill="#f6f8fa"/>
        <g transform="translate(7.71 7.216)">
            <path d="M7.594,11.951H4.356C1.342,11.951,0,10.609,0,7.594V4.356C0,1.342,1.342,0,4.356,0H7.594c3.015,0,4.356,1.342,4.356,4.356V7.594C11.951,10.609,10.609,11.951,7.594,11.951ZM4.356,1.157c-2.39,0-3.2.81-3.2,3.2V7.594c0,2.39.81,3.2,3.2,3.2H7.594c2.39,0,3.2-.81,3.2-3.2V4.356c0-2.39-.81-3.2-3.2-3.2Z"
                  transform="translate(0.964 5.59)" fill="#13171a"/>
            <path d="M7.594,11.951H6.746a.582.582,0,0,1-.578-.578V8.982c0-2.39-.81-3.2-3.2-3.2H.578A.582.582,0,0,1,0,5.2V4.356C0,1.342,1.342,0,4.356,0H7.594c3.015,0,4.356,1.342,4.356,4.356V7.594C11.951,10.609,10.609,11.951,7.594,11.951Zm-.27-1.157h.27c2.39,0,3.2-.81,3.2-3.2V4.356c0-2.39-.81-3.2-3.2-3.2H4.356c-2.39,0-3.2.81-3.2,3.2v.27H2.968c3.015,0,4.356,1.342,4.356,4.356Z"
                  transform="translate(5.59 0.964)" fill="#13171a"/>
            <path d="M0,0H18.5V18.5H0Z" fill="none" opacity="0"/>
        </g>
    </g>
</svg>