<svg xmlns="http://www.w3.org/2000/svg" viewBox="0 0 19.654 19.654">
    <path d="M15.358,1.651h-.066A64.512,64.512,0,0,0,2.353,1.487L.683,1.651A.618.618,0,0,1,0,1.094.61.61,0,0,1,.552.422L2.222.258A66.452,66.452,0,0,1,15.415.422a.615.615,0,0,1,.549.672A.607.607,0,0,1,15.358,1.651Z"
          transform="translate(1.84 3.861)" fill="#ff1e60"/>
    <path d="M.615,3.661a.5.5,0,0,1-.106-.008.617.617,0,0,1-.5-.7l.18-1.073C.32,1.089.5,0,2.408,0H4.554C6.47,0,6.65,1.13,6.773,1.884l.18,1.065a.611.611,0,0,1-1.2.2l-.18-1.065c-.115-.712-.139-.852-1.007-.852H2.416c-.868,0-.884.115-1.007.844L1.221,3.145A.615.615,0,0,1,.615,3.661Z"
          transform="translate(6.346 1.024)" fill="#ff1e60"/>
    <path d="M8.854,11.761H3.6C.739,11.761.624,10.18.534,8.9L0,.656A.62.62,0,0,1,.575,0,.621.621,0,0,1,1.23.574l.532,8.247c.09,1.245.123,1.712,1.834,1.712H8.854c1.72,0,1.753-.467,1.834-1.712L11.221.574A.626.626,0,0,1,11.876,0a.615.615,0,0,1,.573.655L11.917,8.9C11.827,10.18,11.712,11.761,8.854,11.761Z"
          transform="translate(3.602 6.87)" fill="#ff1e60"/>
    <path d="M3.341,1.228H.614A.619.619,0,0,1,0,.614.619.619,0,0,1,.614,0H3.341a.619.619,0,0,1,.614.614A.619.619,0,0,1,3.341,1.228Z"
          transform="translate(7.845 12.898)" fill="#ff1e60"/>
    <path d="M4.709,1.228H.614A.619.619,0,0,1,0,.614.619.619,0,0,1,.614,0H4.709a.619.619,0,0,1,.614.614A.619.619,0,0,1,4.709,1.228Z"
          transform="translate(7.166 9.622)" fill="#ff1e60"/>
    <path d="M0,0H19.654V19.654H0Z" fill="none" opacity="0"/>
</svg>