<svg xmlns="http://www.w3.org/2000/svg" viewBox="0 0 24 24">
    <g id="receive-square" transform="translate(-748 -380)">
        <path id="Vector" d="M0,0H24V24H0Z" transform="translate(748 380)" fill="none" opacity="0"/>
        <path id="Vector-2" data-name="Vector"
              d="M14.19,0H5.81C2.17,0,0,2.17,0,5.81v8.37C0,17.83,2.17,20,5.81,20h8.37c3.64,0,5.81-2.17,5.81-5.81V5.81C20,2.17,17.83,0,14.19,0ZM6.47,8.98a.754.754,0,0,1,1.06,0L9.25,10.7V4.51a.75.75,0,0,1,1.5,0V10.7l1.72-1.72a.75.75,0,1,1,1.06,1.06l-3,3a.776.776,0,0,1-.24.16.717.717,0,0,1-.29.06.753.753,0,0,1-.29-.06.776.776,0,0,1-.24-.16l-3-3A.754.754,0,0,1,6.47,8.98Zm9.77,6.24A19.744,19.744,0,0,1,10,16.23a19.744,19.744,0,0,1-6.24-1.01.753.753,0,0,1-.47-.95.741.741,0,0,1,.95-.47,18.333,18.333,0,0,0,11.53,0,.753.753,0,0,1,.95.47A.763.763,0,0,1,16.24,15.22Z"
              transform="translate(750 382)" fill="#fff"/>
    </g>
</svg>
