<svg xmlns="http://www.w3.org/2000/svg" viewBox="0 0 15 15"><g transform="translate(-108 -252)"><g transform="translate(108 252)"><path d="M8.869,0H3.631A3.336,3.336,0,0,0,0,3.631V8.863A3.337,3.337,0,0,0,3.631,12.5H8.863a3.336,3.336,0,0,0,3.631-3.631V3.631A3.328,3.328,0,0,0,8.869,0Zm.394,7.65L6.581,10.331a.468.468,0,0,1-.662,0L3.237,7.65A.468.468,0,1,1,3.9,6.988L5.781,8.869V2.5a.469.469,0,0,1,.938,0V8.869L8.6,6.988a.472.472,0,0,1,.662,0,.464.464,0,0,1,.138.331A.479.479,0,0,1,9.262,7.65Z" transform="translate(1.25 1.25)" fill="#1da1f2"/><path d="M0,0H15V15H0Z" transform="translate(15 15) rotate(180)" fill="none" opacity="0"/></g></g></svg>