<svg xmlns="http://www.w3.org/2000/svg"  viewBox="0 0 24 24"><g transform="translate(-748 -380)"><path d="M13.75,21.5h-6C2.32,21.5,0,19.18,0,13.75v-6C0,2.32,2.32,0,7.75,0h6c5.43,0,7.75,2.32,7.75,7.75v6C21.5,19.18,19.18,21.5,13.75,21.5Zm-6-20C3.14,1.5,1.5,3.14,1.5,7.75v6C1.5,18.36,3.14,20,7.75,20h6C18.36,20,20,18.36,20,13.75v-6c0-4.61-1.64-6.25-6.25-6.25Z" transform="translate(749.25 381.25)" fill="#657786"/><path d="M3.747,4.5a.742.742,0,0,1-.53-.22l-3-3A.75.75,0,0,1,1.277.218l2.47,2.47L6.218.218a.75.75,0,0,1,1.06,1.06l-3,3A.742.742,0,0,1,3.747,4.5Z" transform="translate(756.252 390.763)" fill="#657786"/><path d="M.75,9.5A.755.755,0,0,1,0,8.75v-8A.755.755,0,0,1,.75,0,.755.755,0,0,1,1.5.75v8A.749.749,0,0,1,.75,9.5Z" transform="translate(759.25 385.76)" fill="#657786"/><path d="M6.748,2.472a19.79,19.79,0,0,1-6.24-1.01.753.753,0,0,1-.47-.95.741.741,0,0,1,.95-.47,18.333,18.333,0,0,0,11.53,0A.749.749,0,1,1,13,1.462,19.615,19.615,0,0,1,6.748,2.472Z" transform="translate(753.251 395.758)" fill="#657786"/><path d="M0,0H24V24H0Z" transform="translate(748 380)" fill="none" opacity="0"/></g></svg>