<svg xmlns="http://www.w3.org/2000/svg" width="100" viewBox="0 0 13.561 13.561">
    <g transform="translate(0 0)">
        <g transform="translate(0 0)">
            <path d="M7.769,12.149H4.379C1.311,12.149,0,10.838,0,7.769V4.379C0,1.311,1.311,0,4.379,0h3.39c3.068,0,4.379,1.311,4.379,4.379v3.39C12.149,10.838,10.838,12.149,7.769,12.149ZM4.379.848c-2.6,0-3.532.927-3.532,3.532v3.39c0,2.6.927,3.532,3.532,3.532h3.39c2.6,0,3.532-.927,3.532-3.532V4.379c0-2.6-.927-3.532-3.532-3.532Z"
                  transform="translate(0.706 0.706)" fill="#fff"/>
            <path d="M2.118,2.541a.419.419,0,0,1-.3-.124L.123.722a.424.424,0,0,1,.6-.6l1.4,1.4,1.4-1.4a.424.424,0,1,1,.6.6l-1.7,1.7A.419.419,0,0,1,2.118,2.541Z"
                  transform="translate(4.663 6.081)" fill="#fff"/>
            <path d="M.424,5.368A.427.427,0,0,1,0,4.944V.424A.427.427,0,0,1,.424,0,.427.427,0,0,1,.848.424v4.52A.423.423,0,0,1,.424,5.368Z"
                  transform="translate(6.357 3.255)" fill="#fff"/>
            <path d="M3.813,1.4A11.182,11.182,0,0,1,.287.826.426.426,0,0,1,.022.29.419.419,0,0,1,.559.024a10.359,10.359,0,0,0,6.515,0,.423.423,0,1,1,.271.8A11.083,11.083,0,0,1,3.813,1.4Z"
                  transform="translate(2.967 8.904)" fill="#fff"/>
            <path d="M0,0H13.561V13.561H0Z" fill="none" opacity="0"/>
        </g>
    </g>
</svg>