<svg xmlns="http://www.w3.org/2000/svg" viewBox="0 0 18.83 18.83">
    <path d="M10.788,16.869H6.081C1.82,16.869,0,15.048,0,10.788V6.081C0,1.82,1.82,0,6.081,0H7.65a.593.593,0,0,1,.588.588.593.593,0,0,1-.588.588H6.081c-3.617,0-4.9,1.287-4.9,4.9v4.708c0,3.617,1.287,4.9,4.9,4.9h4.708c3.617,0,4.9-1.287,4.9-4.9V9.219a.588.588,0,1,1,1.177,0v1.569C16.869,15.048,15.048,16.869,10.788,16.869Z"
          transform="translate(0.981 0.981)" fill="#13171a"/>
    <path d="M1.725,13.1a1.757,1.757,0,0,1-1.24-.486,1.766,1.766,0,0,1-.463-1.53L.36,8.719a2.721,2.721,0,0,1,.683-1.365L7.225,1.171c1.561-1.561,3.146-1.561,4.708,0a3.276,3.276,0,0,1,1.161,2.6,3.49,3.49,0,0,1-1.161,2.1L5.75,12.053a2.721,2.721,0,0,1-1.365.683l-2.362.337A1.308,1.308,0,0,1,1.725,13.1ZM8.057,2,1.874,8.185a1.6,1.6,0,0,0-.353.7l-.337,2.362a.616.616,0,0,0,.133.534.616.616,0,0,0,.534.133l2.362-.337a1.555,1.555,0,0,0,.7-.353l6.183-6.183a2.408,2.408,0,0,0,.816-1.389,2.178,2.178,0,0,0-.816-1.655C9.838.739,8.975,1.093,8.057,2Z"
          transform="translate(4.944 0.783)" fill="#13171a"/>
    <path d="M4.462,5.059a.506.506,0,0,1-.157-.024A6.227,6.227,0,0,1,.022.751.6.6,0,0,1,.43.022.584.584,0,0,1,1.151.43,5.041,5.041,0,0,0,4.619,3.9a.592.592,0,0,1,.408.73A.577.577,0,0,1,4.462,5.059Z"
          transform="translate(11.112 2.654)" fill="#13171a"/>
    <path d="M0,0H18.83V18.83H0Z" fill="none" opacity="0"/>
</svg>