<svg xmlns="http://www.w3.org/2000/svg" viewBox="0 0 39.014 16.622">
    <path d="M-28.716,6.333a6.423,6.423,0,0,1-1.919-.27,4.068,4.068,0,0,1-1.481-.806,3.621,3.621,0,0,1-.956-1.337,4.724,4.724,0,0,1-.34-1.861A6.659,6.659,0,0,1-33.09.03a8.15,8.15,0,0,1,.953-1.98l1.38.993a3.519,3.519,0,0,0-.288.5,7.105,7.105,0,0,0-.319.754,7.1,7.1,0,0,0-.258.9,4.276,4.276,0,0,0-.1.917,1.85,1.85,0,0,0,.23.92,2.3,2.3,0,0,0,.613.705,2.969,2.969,0,0,0,.883.46,3.542,3.542,0,0,0,1.039.178A4.048,4.048,0,0,0-27.71,4.2a3.47,3.47,0,0,0,1.052-.509,2.485,2.485,0,0,0,.708-.779,1.766,1.766,0,0,0,.233-.978,2.943,2.943,0,0,0-.1-.595q-.086-.331-.205-.678t-.264-.687q-.144-.34-.27-.622t-.218-.484q-.092-.2-.117-.276l1.668-.926a1.46,1.46,0,0,1,.123.239q.1.215.23.555t.282.776q.15.435.273.9t.205.926a4.8,4.8,0,0,1,.083.846A4.882,4.882,0,0,1-24.148,3a4.35,4.35,0,0,1-.377,1.033,4.22,4.22,0,0,1-.638.914,3.934,3.934,0,0,1-.9.73,4.6,4.6,0,0,1-1.183.484A5.739,5.739,0,0,1-28.716,6.333Zm.043-7.376L-30.034-2.4l1.361-1.361L-27.311-2.4ZM-20,2.109A3.629,3.629,0,0,1-21.3,1.9a2.294,2.294,0,0,1-.871-.567,2.156,2.156,0,0,1-.487-.855,3.659,3.659,0,0,1-.15-1.07q0-.294.012-.733t.012-1.015q0-.576-.006-1.266t-.034-1.383q-.028-.693-.08-1.331a10.251,10.251,0,0,0-.144-1.11l1.833-.558q.08.4.132.953T-21-5.88q.031.6.046,1.208t.021,1.128q.006.46-.015.966t-.034.969q-.012.463.009.837a1.61,1.61,0,0,0,.113.57.549.549,0,0,0,.138.215.548.548,0,0,0,.193.11.9.9,0,0,0,.242.043q.132.006.291.006h.166V2.109ZM-20.07.171h2A2.207,2.207,0,0,0-17.483.1,1.915,1.915,0,0,0-17.011-.1a1.2,1.2,0,0,0,.325-.27.594.594,0,0,0,.141-.3,1.554,1.554,0,0,0-.092-.662,3.729,3.729,0,0,0-.349-.727A6.455,6.455,0,0,0-17.52-2.8q-.307-.371-.638-.708t-.659-.625q-.328-.288-.6-.5l.166-1.686,5.635-2.361.711,1.686-4.654,1.9q.423.392.763.763t.625.742q.285.371.521.742t.445.763q.184.343.386.727a4.325,4.325,0,0,0,.469.711,2.65,2.65,0,0,0,.616.555,1.672,1.672,0,0,0,.815.258h.38V2.109h-.19a5.469,5.469,0,0,1-.815-.058,3.6,3.6,0,0,1-.736-.19,3.258,3.258,0,0,1-.665-.343,3.523,3.523,0,0,1-.6-.518,2.372,2.372,0,0,1-.509.5,3.048,3.048,0,0,1-.61.343,3.148,3.148,0,0,1-.665.2,4.285,4.285,0,0,1-.674.067h-2.06Zm.975-8.155,4.69-1.956.337.73-5.077,2.146ZM-6.98.171V2.109h-5.806V.171Zm-.245,0h1.472q.264,0,.582-.028a2.87,2.87,0,0,0,.6-.113,1.22,1.22,0,0,0,.466-.254A.57.57,0,0,0-3.92-.669a1.664,1.664,0,0,0-.089-.438q-.089-.291-.233-.65t-.325-.751q-.181-.392-.359-.748l1.754-.871q.172.386.34.822t.3.883a8.455,8.455,0,0,1,.218.892,4.642,4.642,0,0,1,.083.849A2.743,2.743,0,0,1-2.507.61a2.4,2.4,0,0,1-.757.865,3.211,3.211,0,0,1-1.122.484,6.06,6.06,0,0,1-1.38.15H-7.225Zm2.391,3.734L-5.987,5.058-7.176,3.875-6,2.691l1.165,1.165L-3.681,2.7l1.189,1.183L-3.669,5.07Zm3.746-1.778q.031-.5.061-1.042T-.974.018q.021-.527.028-1.024t-.012-.914Q-1-2.79-1.029-3.449T-1.1-4.617q-.034-.509-.067-.892t-.071-.7q-.037-.319-.08-.6t-.092-.579L.488-8.014q.135.822.218,1.655t.126,1.6Q.874-4,.89-3.342T.9-2.22q0,.423,0,.914T.89-.288Q.88.239.862.778T.807,1.833ZM4.786-2.385q.129.38.273.831t.264.923q.12.472.2.941a5.267,5.267,0,0,1,.08.88,4.086,4.086,0,0,1-.156,1.125A5.047,5.047,0,0,1,5,3.378a6.37,6.37,0,0,1-.678.987,7.953,7.953,0,0,1-.871.892,9.242,9.242,0,0,1-1.024.779A10.65,10.65,0,0,1,1.3,6.683L.188,5.132q.441-.221.892-.5a10.292,10.292,0,0,0,.865-.6,8.807,8.807,0,0,0,.773-.668,5.817,5.817,0,0,0,.625-.711,3.473,3.473,0,0,0,.42-.733A1.894,1.894,0,0,0,3.915,1.2,2.452,2.452,0,0,0,3.845.637a6.188,6.188,0,0,0-.193-.647q-.123-.346-.285-.736t-.353-.831Z"
          transform="translate(33.412 9.939)" fill="#13171a"/>
</svg>