<svg xmlns="http://www.w3.org/2000/svg"  viewBox="0 0 24 24"><g transform="translate(-364 -252)"><path d="M13.75,21.5h-6C2.32,21.5,0,19.18,0,13.75v-6C0,2.32,2.32,0,7.75,0h6c5.43,0,7.75,2.32,7.75,7.75v6C21.5,19.18,19.18,21.5,13.75,21.5Zm-6-20C3.14,1.5,1.5,3.14,1.5,7.75v6C1.5,18.36,3.14,20,7.75,20h6C18.36,20,20,18.36,20,13.75v-6c0-4.61-1.64-6.25-6.25-6.25Z" transform="translate(365.25 253.25)" fill="#292d32"/><path d="M2.75,5.5A2.75,2.75,0,1,1,5.5,2.75,2.748,2.748,0,0,1,2.75,5.5Zm0-4A1.25,1.25,0,1,0,4,2.75,1.25,1.25,0,0,0,2.75,1.5Z" transform="translate(370.25 257.25)" fill="#292d32"/><path d="M.747,8.453a.746.746,0,0,1-.41-1.37l4.93-3.31a2.988,2.988,0,0,1,3.55.19l.33.29a1.473,1.473,0,0,0,1.84,0l4.16-3.57a2.986,2.986,0,0,1,3.8,0l1.63,1.4a.752.752,0,0,1-.98,1.14l-1.63-1.4a1.488,1.488,0,0,0-1.85,0l-4.16,3.57a2.986,2.986,0,0,1-3.8,0l-.33-.29a1.487,1.487,0,0,0-1.73-.08l-4.93,3.31A.813.813,0,0,1,.747,8.453Z" transform="translate(365.923 263.247)" fill="#292d32"/><path d="M0,0H24V24H0Z" transform="translate(364 252)" fill="none" opacity="0"/></g></svg>