<svg xmlns="http://www.w3.org/2000/svg"  viewBox="0 0 24 24"><path d="M5.7,6.448a.742.742,0,0,1-.53-.22L.218,1.277A.75.75,0,0,1,1.277.218l4.95,4.95a.754.754,0,0,1,0,1.06A.742.742,0,0,1,5.7,6.448Z" transform="translate(14.313 12.813)" fill="#657786"/><path d="M6.983,16.812A2.715,2.715,0,0,1,5.043,16L.8,11.762a2.758,2.758,0,0,1,0-3.89L7.873.8a2.758,2.758,0,0,1,3.89,0L16,5.042a2.728,2.728,0,0,1,0,3.88l-7.07,7.07A2.668,2.668,0,0,1,6.983,16.812ZM9.813,1.5a1.21,1.21,0,0,0-.88.37l-7.07,7.07a1.249,1.249,0,0,0,0,1.77l4.24,4.24a1.287,1.287,0,0,0,1.77,0l7.07-7.07a1.234,1.234,0,0,0,.37-.88,1.217,1.217,0,0,0-.37-.88L10.7,1.882A1.22,1.22,0,0,0,9.813,1.5Z" transform="translate(3.127 1.618)" fill="#657786"/><path d="M6.75,1.5h-6A.755.755,0,0,1,0,.75.755.755,0,0,1,.75,0h6A.755.755,0,0,1,7.5.75.755.755,0,0,1,6.75,1.5Z" transform="translate(1.25 20.25)" fill="#657786"/><path d="M7.818,8.567a.742.742,0,0,1-.53-.22L.218,1.277A.75.75,0,0,1,1.277.218l7.07,7.07a.754.754,0,0,1,0,1.06A.725.725,0,0,1,7.818,8.567Z" transform="translate(5.813 7.172)" fill="#657786"/><path d="M0,0H24V24H0Z" fill="none" opacity="0"/></svg>