<svg xmlns="http://www.w3.org/2000/svg" viewBox="0 0 43.656 10.802">
    <path d="M3.945-7.2v1.715h-4.1V-7.2Zm3.928,0v1.715h-4.1V-7.2Zm3.928,0v1.715H7.7V-7.2Zm-.173,0h.537q.156,0,.353-.019a2.031,2.031,0,0,0,.368-.069,1.036,1.036,0,0,0,.29-.13.237.237,0,0,0,.119-.2.857.857,0,0,0-.071-.275q-.071-.184-.184-.424t-.247-.513l-.264-.537,1.551-.767q.13.3.253.624t.219.65a6.435,6.435,0,0,1,.154.641,3.272,3.272,0,0,1,.058.593,2.313,2.313,0,0,1-.186.972,1.759,1.759,0,0,1-.52.665,2.2,2.2,0,0,1-.8.383,3.992,3.992,0,0,1-1.024.123h-.606Zm1.4,3.915-.961-.961.961-.961.961.961Zm4.452-2.2a2.78,2.78,0,0,1-1-.158,1.744,1.744,0,0,1-.667-.437,1.693,1.693,0,0,1-.375-.658,2.786,2.786,0,0,1-.117-.825q0-.585.009-1.174t0-1.185q-.009-.6-.045-1.2t-.132-1.224l1.624-.494a9.643,9.643,0,0,1,.156,1.185q.043.613.05,1.234t-.009,1.232q-.015.611-.015,1.174,0,.195,0,.353a.7.7,0,0,0,.048.264.3.3,0,0,0,.154.158.672.672,0,0,0,.32.039H17.6v1.715ZM21.291-7.2v1.715h-.1a2.5,2.5,0,0,1-.411-.035,2.251,2.251,0,0,1-.394-.1,1.613,1.613,0,0,1-.336-.165A.807.807,0,0,1,19.822-6a1.06,1.06,0,0,1-.325.236,2.309,2.309,0,0,1-.446.16,3.779,3.779,0,0,1-.533.093,5.458,5.458,0,0,1-.576.03h-.515V-7.2h.515q.277,0,.483-.013a1.234,1.234,0,0,0,.346-.065.452.452,0,0,0,.214-.152A.559.559,0,0,0,19.08-7.7a1.807,1.807,0,0,0-.015-.431q-.035-.258-.113-.622l1.542-.381q.039.165.076.392t.063.468q.026.24.03.468a2.135,2.135,0,0,1-.022.383.286.286,0,0,0,.115.132.554.554,0,0,0,.158.065.912.912,0,0,0,.158.024q.076,0,.123,0Zm-1.845-3.621L18.631-10l-.84-.836.832-.836.823.823.814-.814.84.836-.832.836ZM21.113-7.2H21.5l.418,0q.214,0,.416-.022a3.655,3.655,0,0,0,.381-.056,1.163,1.163,0,0,0,.314-.108.607.607,0,0,0,.212-.18.448.448,0,0,0,.078-.269.845.845,0,0,0-.08-.344,2.058,2.058,0,0,0-.223-.375,4.173,4.173,0,0,0-.336-.4q-.193-.2-.418-.416t-.47-.431q-.245-.219-.492-.444l.156-1.395L25.1-13.242l.667,1.477-2.6,1.208a5.991,5.991,0,0,1,.6.572,4.808,4.808,0,0,1,.528.684,3.924,3.924,0,0,1,.375.751,2.233,2.233,0,0,1,.143.777,2.431,2.431,0,0,1-.182.966,2.083,2.083,0,0,1-.5.719,2.179,2.179,0,0,1-.751.45,2.742,2.742,0,0,1-.935.156h-1.33Z"
          transform="translate(17.891 13.242)" fill="#13171a"/>
    <path d="M2.468-5.475a3.764,3.764,0,0,1-.864-.1,2.11,2.11,0,0,1-.706-.3,1.475,1.475,0,0,1-.474-.52A1.546,1.546,0,0,1,.25-7.143a1.6,1.6,0,0,1,.1-.576,2.284,2.284,0,0,1,.275-.513,2.77,2.77,0,0,1,.392-.442,4.318,4.318,0,0,1,.453-.362,4.666,4.666,0,0,1,.455-.279q.223-.119.4-.193l-.065-.528L3.953-10.4q.1.849.18,1.522T4.283-7.73q.065.47.106.725t.05.273a.209.209,0,0,0,.13.117.843.843,0,0,0,.256.03h.1v1.715H4.794a2.609,2.609,0,0,1-.933-.156,1.34,1.34,0,0,1-.643-.494q-.195.022-.381.032T2.468-5.475ZM1.545-7.212q.009.043.128.089a1.508,1.508,0,0,0,.292.074,2.48,2.48,0,0,0,.37.03,1.313,1.313,0,0,0,.357-.041L2.537-8.109a1.766,1.766,0,0,0-.359.195,2.782,2.782,0,0,0-.325.26,1.892,1.892,0,0,0-.232.256A.273.273,0,0,0,1.545-7.212Zm3.2.628h.537q.156,0,.353-.019A2.031,2.031,0,0,0,6-6.673a1.036,1.036,0,0,0,.29-.13A.237.237,0,0,0,6.413-7a.857.857,0,0,0-.071-.275q-.071-.184-.184-.424t-.247-.513l-.264-.537L7.2-9.52q.13.3.253.624t.219.65a6.435,6.435,0,0,1,.154.641,3.272,3.272,0,0,1,.058.593A2.313,2.313,0,0,1,7.7-6.04a1.759,1.759,0,0,1-.52.665,2.2,2.2,0,0,1-.8.383,3.992,3.992,0,0,1-1.024.123H4.746ZM6.128-9.906l-.961-.961.961-.961.961.961ZM8.111-3.492A9.036,9.036,0,0,0,9.1-3.756a6.57,6.57,0,0,0,.816-.329,3.622,3.622,0,0,0,.619-.377,1.769,1.769,0,0,0,.4-.407l-.143,0-.154-.006-.143-.006q-.067,0-.11-.006a3.206,3.206,0,0,1-.84-.178A1.939,1.939,0,0,1,8.9-5.451a1.666,1.666,0,0,1-.416-.6,2.079,2.079,0,0,1-.147-.81,2.492,2.492,0,0,1,.071-.58,3.22,3.22,0,0,1,.2-.585,3.186,3.186,0,0,1,.31-.537A2.6,2.6,0,0,1,9.311-9a1.849,1.849,0,0,1,.461-.3,1.214,1.214,0,0,1,.5-.11,1.5,1.5,0,0,1,.589.117,1.963,1.963,0,0,1,.513.318,2.531,2.531,0,0,1,.429.476,3.935,3.935,0,0,1,.34.589,4.552,4.552,0,0,1,.247.654,5.294,5.294,0,0,1,.152.673h.26v1.715h-.359a3.4,3.4,0,0,1-.563,1.117,4.365,4.365,0,0,1-.9.877,5.483,5.483,0,0,1-1.152.639,7.74,7.74,0,0,1-1.317.407Zm2.135-4.283a.379.379,0,0,0-.234.082.807.807,0,0,0-.188.206,1.11,1.11,0,0,0-.126.264.856.856,0,0,0-.045.262.179.179,0,0,0,.076.143.64.64,0,0,0,.2.1,1.9,1.9,0,0,0,.286.067q.16.026.327.039t.325.017q.158,0,.284,0a1.8,1.8,0,0,0-.1-.411,1.621,1.621,0,0,0-.195-.383,1.135,1.135,0,0,0-.275-.282A.573.573,0,0,0,10.246-7.775Zm6.488,1.191v1.715h-4.1V-6.584Zm-.178,0h.918a9.587,9.587,0,0,0,1.167-.069,10.737,10.737,0,0,0,1.078-.186q.513-.117.968-.269t.84-.32q-.221-.082-.492-.178t-.557-.18q-.286-.084-.572-.141a2.806,2.806,0,0,0-.541-.056.945.945,0,0,0-.362.078,2.233,2.233,0,0,0-.351.182,2.382,2.382,0,0,0-.279.206.641.641,0,0,0-.143.154l-1.226-.788a3.609,3.609,0,0,1,.442-.622A2.99,2.99,0,0,1,18-9.263a2.647,2.647,0,0,1,.645-.323,2.227,2.227,0,0,1,.721-.117,2.662,2.662,0,0,1,.682.091,5.968,5.968,0,0,1,.686.227q.342.136.684.3t.68.305a7.083,7.083,0,0,0,.667.245,2.543,2.543,0,0,0,.65.115l-.13,1.611q-.615.312-1.15.578t-1.02.483q-.485.217-.931.381a8.57,8.57,0,0,1-.888.275,7.542,7.542,0,0,1-.89.167,7.488,7.488,0,0,1-.933.056h-.918Zm2.806-3.365-.961-.961.961-.961.961.961Z"
          transform="translate(-0.25 12.63)" fill="#1da1f2"/>
</svg>