<svg xmlns="http://www.w3.org/2000/svg"  viewBox="0 0 24 24"><g transform="translate(-748 -444)"><path d="M7.092,20.54h-.13c-4.44,0-6.58-1.75-6.95-5.67a.751.751,0,0,1,.68-.82.765.765,0,0,1,.82.68c.29,3.14,1.77,4.31,5.46,4.31H7.1c4.07,0,5.51-1.44,5.51-5.51V7.01c0-4.07-1.44-5.51-5.51-5.51h-.13c-3.71,0-5.19,1.19-5.46,4.39A.758.758,0,0,1,0,5.76C.342,1.78,2.492,0,6.962,0h.13C12,0,14.1,2.1,14.1,7.01v6.52C14.1,18.44,12,20.54,7.092,20.54Z" transform="translate(756.148 445.73)" fill="#ff1e60"/><path d="M12.13,1.5H.75A.755.755,0,0,1,0,.75.755.755,0,0,1,.75,0H12.13a.755.755,0,0,1,.75.75A.755.755,0,0,1,12.13,1.5Z" transform="translate(750.87 455.25)" fill="#ff1e60"/><path d="M4.1,8.2a.742.742,0,0,1-.53-.22L.218,4.628a.754.754,0,0,1,0-1.06L3.568.218a.75.75,0,0,1,1.06,1.06L1.807,4.1l2.82,2.82a.754.754,0,0,1,0,1.06A.725.725,0,0,1,4.1,8.2Z" transform="translate(749.753 451.902)" fill="#ff1e60"/><path d="M0,0H24V24H0Z" transform="translate(748 444)" fill="none" opacity="0"/></g></svg>