<svg xmlns="http://www.w3.org/2000/svg" viewBox="0 0 27.424 30.714">
    <g transform="translate(-5.576 35.357) rotate(-90)" fill="none">
        <path d="M14.869,8.466a6,6,0,0,1,10.262,0L34.479,23.89A6,6,0,0,1,29.348,33h-18.7a6,6,0,0,1-5.131-9.11Z"
              stroke="none"/>
        <path d="M 20 9.576267242431641 C 19.66128921508789 9.576267242431641 18.81657981872559 9.670137405395508 18.28960037231445 10.5396671295166 L 8.941879272460938 25.96338653564453 C 8.395069122314453 26.86564636230469 8.737209320068359 27.67529678344727 8.909700393676758 27.98152542114258 C 9.082180023193359 28.28774642944336 9.597259521484375 28.99999618530273 10.65228080749512 28.99999618530273 L 29.34772109985352 28.99999618530273 C 30.40274047851562 28.99999618530273 30.91781997680664 28.28774642944336 31.09029960632324 27.98152542114258 C 31.26279067993164 27.67530632019043 31.60493087768555 26.86564636230469 31.05810928344727 25.9633960723877 L 21.71040916442871 10.53967666625977 C 21.18341064453125 9.670146942138672 20.33871078491211 9.576267242431641 20 9.576267242431641 M 20 5.576271057128906 C 21.98171806335449 5.576271057128906 23.96343421936035 6.539667129516602 25.13119125366211 8.466457366943359 L 34.47890090942383 23.89018630981445 C 36.90232086181641 27.88882637023926 34.02339935302734 32.99999618530273 29.34772109985352 32.99999618530273 L 10.65228080749512 32.99999618530273 C 5.976600646972656 32.99999618530273 3.097679138183594 27.88882637023926 5.521091461181641 23.89018630981445 L 14.86881065368652 8.466457366943359 C 16.03656578063965 6.539667129516602 18.01828193664551 5.576271057128906 20 5.576271057128906 Z"
              stroke="none" fill="#13171a"/>
    </g>
</svg>