<svg xmlns="http://www.w3.org/2000/svg" viewBox="0 0 24 24"><g transform="translate(-300 -380)"><path d="M13.75,21.5h-6C2.32,21.5,0,19.18,0,13.75v-6C0,2.32,2.32,0,7.75,0h6c5.43,0,7.75,2.32,7.75,7.75v6C21.5,19.18,19.18,21.5,13.75,21.5Zm-6-20C3.14,1.5,1.5,3.14,1.5,7.75v6C1.5,18.36,3.14,20,7.75,20h6C18.36,20,20,18.36,20,13.75v-6c0-4.61-1.64-6.25-6.25-6.25Z" transform="translate(301.25 381.25)" fill="#657786"/><path d="M2.6,1.5H.75A.755.755,0,0,1,0,.75.755.755,0,0,1,.75,0H2.6a.755.755,0,0,1,.75.75A.755.755,0,0,1,2.6,1.5Z" transform="translate(314.9 393.13)" fill="#657786"/><path d="M7.22,1.5H.75A.755.755,0,0,1,0,.75.755.755,0,0,1,.75,0H7.22a.75.75,0,0,1,0,1.5Z" transform="translate(305.75 393.13)" fill="#657786"/><path d="M6.28,1.5H.75A.755.755,0,0,1,0,.75.755.755,0,0,1,.75,0H6.28a.755.755,0,0,1,.75.75A.755.755,0,0,1,6.28,1.5Z" transform="translate(311.22 389.37)" fill="#657786"/><path d="M3.52,1.5H.75A.755.755,0,0,1,0,.75.755.755,0,0,1,.75,0H3.52a.755.755,0,0,1,.75.75A.755.755,0,0,1,3.52,1.5Z" transform="translate(305.75 389.37)" fill="#657786"/><path d="M0,0H24V24H0Z" transform="translate(300 380)" fill="none" opacity="0"/></g></svg>