<svg xmlns="http://www.w3.org/2000/svg"  viewBox="0 0 33.01 33.01"><g transform="translate(-748 -252)"><g transform="translate(748 252)"><path d="M3.782,7.565A3.782,3.782,0,1,1,7.565,3.782,3.78,3.78,0,0,1,3.782,7.565Zm0-5.5A1.719,1.719,0,1,0,5.5,3.782,1.72,1.72,0,0,0,3.782,2.063Z" transform="translate(8.596 7.221)" fill="#292d32"/><path d="M18.912,29.571H10.659C3.191,29.571,0,26.38,0,18.912V10.659C0,3.191,3.191,0,10.659,0h5.5a1.039,1.039,0,0,1,1.032,1.032,1.039,1.039,0,0,1-1.032,1.032h-5.5c-6.341,0-8.6,2.256-8.6,8.6v8.252c0,6.341,2.256,8.6,8.6,8.6h8.252c6.341,0,8.6-2.256,8.6-8.6V12.035a1.032,1.032,0,0,1,2.063,0v6.877C29.571,26.38,26.38,29.571,18.912,29.571Z" transform="translate(1.719 1.719)" fill="#292d32"/><path d="M8.6,2.063H1.032A1.039,1.039,0,0,1,0,1.032,1.039,1.039,0,0,1,1.032,0H8.6A1.039,1.039,0,0,1,9.628,1.032,1.039,1.039,0,0,1,8.6,2.063Z" transform="translate(20.631 5.845)" fill="#292d32"/><path d="M1.032,9.628A1.039,1.039,0,0,1,0,8.6V1.032A1.039,1.039,0,0,1,1.032,0,1.039,1.039,0,0,1,2.063,1.032V8.6A1.039,1.039,0,0,1,1.032,9.628Z" transform="translate(24.413 2.063)" fill="#292d32"/><path d="M1.028,11.626A1.031,1.031,0,0,1,.45,9.741L7.231,5.189a4.131,4.131,0,0,1,4.883.261l.454.4a2.027,2.027,0,0,0,2.531,0L20.82.939a4.107,4.107,0,0,1,5.227,0l2.242,1.926a1.034,1.034,0,1,1-1.348,1.568L24.7,2.507a2.027,2.027,0,0,0-2.531,0l-5.722,4.91a4.107,4.107,0,0,1-5.227,0l-.454-.4a2.046,2.046,0,0,0-2.379-.11L1.619,11.461A1.2,1.2,0,0,1,1.028,11.626Z" transform="translate(2.644 15.47)" fill="#292d32"/><path d="M0,0H33.01V33.01H0Z" fill="none" opacity="0"/></g></g></svg>