<svg xmlns="http://www.w3.org/2000/svg" xmlns:xlink="http://www.w3.org/1999/xlink"  viewBox="0 0 41 39"><defs><filter id="a" x="10" y="0" width="31" height="31" filterUnits="userSpaceOnUse"><feOffset dy="3" input="SourceAlpha"/><feGaussianBlur stdDeviation="3" result="b"/><feFlood flood-opacity="0.078"/><feComposite operator="in" in2="b"/><feComposite in="SourceGraphic"/></filter></defs><g transform="translate(-370 -687.921)"><path d="M5,0H18A14,14,0,0,1,32,14V28a5,5,0,0,1-5,5H5a5,5,0,0,1-5-5V5A5,5,0,0,1,5,0Z" transform="translate(370 693.921)" fill="#fff"/><g transform="matrix(1, 0, 0, 1, 370, 687.92)" filter="url(#a)"><path d="M0,0H0A13,13,0,0,1,13,13v0a0,0,0,0,1,0,0H4.588A4.588,4.588,0,0,1,0,8.412V0A0,0,0,0,1,0,0Z" transform="translate(19 6)" fill="#fff"/></g><text transform="translate(385 720.921)" fill="#1da1f2" font-size="11" font-family="IRANSansFaNum-Medium, IRANSansFaNum" font-weight="500"><tspan x="-10.13" y="0">PDF</tspan></text></g></svg>