<svg xmlns="http://www.w3.org/2000/svg" xmlns:xlink="http://www.w3.org/1999/xlink" viewBox="0 0 473.679 891.214">
    <defs>
        <filter id="a" x="0" y="0" filterUnits="userSpaceOnUse">
            <feOffset dy="12" input="SourceAlpha"/>
            <feGaussianBlur stdDeviation="10" result="b"/>
            <feFlood flood-color="#455b63" flood-opacity="0.102"/>
            <feComposite operator="in" in2="b"/>
            <feComposite in="SourceGraphic"/>
        </filter>
    </defs>
    <g transform="translate(30 18)">
        <g transform="matrix(1, 0, 0, 1, -30, -18)" filter="url(#a)">
            <path d="M3237.8,3639.214H2947.553a57.581,57.581,0,0,1-32.348-9.881,58.022,58.022,0,0,1-20.962-25.455,57.5,57.5,0,0,1-4.547-22.521V3114.643a3.862,3.862,0,0,1-3.857-3.858v-52.071a3.861,3.861,0,0,1,3.857-3.857v-15.429a3.862,3.862,0,0,1-3.857-3.857V2983.5a3.861,3.861,0,0,1,3.857-3.857v-28.929a3.862,3.862,0,0,1-3.857-3.857v-23.143a3.862,3.862,0,0,1,3.857-3.858v-54a57.583,57.583,0,0,1,9.881-32.348,58.028,58.028,0,0,1,25.455-20.961,57.5,57.5,0,0,1,22.521-4.547H3237.8a57.584,57.584,0,0,1,32.348,9.881,58.023,58.023,0,0,1,20.962,25.455,57.5,57.5,0,0,1,4.547,22.521v134.036a3.862,3.862,0,0,1,3.858,3.857v86.786a3.862,3.862,0,0,1-3.858,3.858v486.964a57.589,57.589,0,0,1-9.881,32.348,58.033,58.033,0,0,1-25.455,20.961A57.5,57.5,0,0,1,3237.8,3639.214ZM3137.517,2835a5.786,5.786,0,1,0,5.787,5.785A5.792,5.792,0,0,0,3137.517,2835Zm-67.5,2.893a2.893,2.893,0,1,0,0,5.786h45.322a2.893,2.893,0,0,0,0-5.786Z"
                  transform="translate(-2855.84 -2790)" fill="rgba(255,255,255,0.5)"/>
        </g>
    </g>
</svg>