<svg xmlns="http://www.w3.org/2000/svg" width="24" height="24" viewBox="0 0 24 24">
    <g transform="translate(-300 -316)">
        <path d="M9.42,18.85A9.425,9.425,0,0,1,9.42,0a10.455,10.455,0,0,1,3.11.46.753.753,0,0,1-.44,1.44,9.132,9.132,0,0,0-2.67-.4,7.91,7.91,0,1,0,6.59,3.52.75.75,0,1,1,1.25-.83A9.422,9.422,0,0,1,9.42,18.85Z"
              transform="translate(302.58 319.9)" fill="#292d32"/>
        <path d="M3.644,4.824a.762.762,0,0,1-.57-.26L.184,1.244a.751.751,0,1,1,1.13-.99L4.2,3.574a.756.756,0,0,1-.07,1.06A.687.687,0,0,1,3.644,4.824Z"
              transform="translate(312.486 317.246)" fill="#292d32"/>
        <path d="M.752,3.967A.754.754,0,0,1,.3,2.607L3.672.147a.751.751,0,0,1,.89,1.21l-3.37,2.47A.7.7,0,0,1,.752,3.967Z"
              transform="translate(312.008 320.563)" fill="#292d32"/>
        <path d="M0,0H24V24H0Z" transform="translate(300 316)" fill="none" opacity="0"/>
    </g>
</svg>