<svg xmlns="http://www.w3.org/2000/svg" viewBox="0 0 13.395 13.401">
    <g transform="translate(-557.34 -189.34)">
        <g transform="translate(556 188)">
            <path d="M9.508,0H3.893A3.576,3.576,0,0,0,0,3.893V9.5a3.578,3.578,0,0,0,3.893,3.9H9.5a3.576,3.576,0,0,0,3.893-3.893V3.893A3.568,3.568,0,0,0,9.508,0ZM8.57,7.056,6.2,9.421a.5.5,0,0,1-.71,0,.506.506,0,0,1,0-.71L7.5,6.7,5.495,4.69a.5.5,0,1,1,.71-.71L8.57,6.346A.494.494,0,0,1,8.57,7.056Z"
                  transform="translate(1.34 1.34)" fill="#1da1f2"/>
        </g>
    </g>
</svg>