<svg xmlns="http://www.w3.org/2000/svg"  viewBox="0 0 24 24"><g transform="translate(-556 -190)"><path d="M2.06,17.63a1.959,1.959,0,0,1-1.01-.27A2.361,2.361,0,0,1,0,15.22V3.86A3.862,3.862,0,0,1,3.86,0h7.78A3.862,3.862,0,0,1,15.5,3.86V15.22a2.372,2.372,0,0,1-1.05,2.14,2.377,2.377,0,0,1-2.38-.12L8.14,15.05a.963.963,0,0,0-.78,0L3.43,17.24A2.8,2.8,0,0,1,2.06,17.63ZM3.87,1.51A2.364,2.364,0,0,0,1.51,3.87V15.23a.973.973,0,0,0,.31.84.991.991,0,0,0,.89-.14l3.93-2.19a2.521,2.521,0,0,1,2.24,0l3.93,2.19a.989.989,0,0,0,.89.14.973.973,0,0,0,.31-.84V3.87a2.364,2.364,0,0,0-2.36-2.36Z" transform="translate(557.24 195.12)" fill="#657786"/><path d="M13.44,17.61a2.93,2.93,0,0,1-1.37-.38L8.14,15.04a1.078,1.078,0,0,0-.79,0L3.43,17.23a2.378,2.378,0,0,1-2.38.12A2.355,2.355,0,0,1,0,15.22V3.86A3.862,3.862,0,0,1,3.86,0h7.78A3.862,3.862,0,0,1,15.5,3.86V15.22a2.355,2.355,0,0,1-1.05,2.13A2.025,2.025,0,0,1,13.44,17.61ZM7.75,13.46a2.347,2.347,0,0,1,1.12.27l3.93,2.19a.952.952,0,0,0,.89.13.973.973,0,0,0,.31-.84V3.85a2.364,2.364,0,0,0-2.36-2.36H3.86A2.364,2.364,0,0,0,1.5,3.85V15.21a.973.973,0,0,0,.31.84.991.991,0,0,0,.89-.14l3.93-2.19A2.432,2.432,0,0,1,7.75,13.46Z" transform="translate(557.25 195.14)" fill="#657786"/><path d="M13.44,17.61a2.93,2.93,0,0,1-1.37-.38L8.38,15.17A.732.732,0,0,1,8,14.52V7.74A2.364,2.364,0,0,0,5.64,5.38H.75A.755.755,0,0,1,0,4.63V3.86A3.862,3.862,0,0,1,3.86,0h7.78A3.862,3.862,0,0,1,15.5,3.86V15.22a2.355,2.355,0,0,1-1.05,2.13A2.025,2.025,0,0,1,13.44,17.61ZM9.5,14.07l3.3,1.85a.95.95,0,0,0,.89.13.958.958,0,0,0,.31-.84V3.85a2.364,2.364,0,0,0-2.36-2.36H3.86A2.364,2.364,0,0,0,1.5,3.85v.02H5.64A3.862,3.862,0,0,1,9.5,7.73v6.34Z" transform="translate(563.25 191.26)" fill="#657786"/><path d="M0,0H24V24H0Z" transform="translate(556 190)" fill="none" opacity="0"/></g></svg>