<svg xmlns="http://www.w3.org/2000/svg" viewBox="0 0 24 24"><g transform="translate(-300 -190)"><path d="M3.75,7.5A3.75,3.75,0,1,1,7.5,3.75,3.751,3.751,0,0,1,3.75,7.5Zm0-6A2.25,2.25,0,1,0,6,3.75,2.253,2.253,0,0,0,3.75,1.5Z" transform="translate(308.25 198.25)" fill="#657786"/><path d="M13.96,20.378a2.719,2.719,0,0,1-.63-.08,2.456,2.456,0,0,1-1.47-1.11l-.12-.2c-.59-1.02-1.4-1.02-1.99,0l-.11.19A2.4,2.4,0,0,1,8.17,20.3a2.341,2.341,0,0,1-1.83-.25l-1.72-.99a2.653,2.653,0,0,1-.98-3.62,1.338,1.338,0,0,0,.2-1.26,1.333,1.333,0,0,0-1.19-.46A2.655,2.655,0,0,1,0,11.068V9.308a2.655,2.655,0,0,1,2.65-2.65A1.333,1.333,0,0,0,3.84,6.2a1.311,1.311,0,0,0-.2-1.26,2.661,2.661,0,0,1-.26-2.01,2.58,2.58,0,0,1,1.24-1.61L6.35.328a2.422,2.422,0,0,1,3.3.87l.12.2c.59,1.02,1.4,1.02,1.99,0l.11-.19a2.414,2.414,0,0,1,3.31-.87l1.72.99a2.653,2.653,0,0,1,.98,3.62,1.338,1.338,0,0,0-.2,1.26,1.333,1.333,0,0,0,1.19.46,2.655,2.655,0,0,1,2.65,2.65v1.76a2.655,2.655,0,0,1-2.65,2.65,1.333,1.333,0,0,0-1.19.46,1.311,1.311,0,0,0,.2,1.26,2.617,2.617,0,0,1,.26,2.01,2.58,2.58,0,0,1-1.24,1.61l-1.73.99A2.488,2.488,0,0,1,13.96,20.378Zm-3.21-3.7a2.725,2.725,0,0,1,2.29,1.55l.11.19a.917.917,0,0,0,1.24.33l1.73-1a1.157,1.157,0,0,0,.54-.7,1.143,1.143,0,0,0-.11-.87,2.746,2.746,0,0,1-.2-2.76,2.732,2.732,0,0,1,2.49-1.21,1.144,1.144,0,0,0,1.15-1.15V9.3a1.15,1.15,0,0,0-1.15-1.15,2.732,2.732,0,0,1-2.49-1.21,2.746,2.746,0,0,1,.2-2.76,1.143,1.143,0,0,0,.11-.87,1.17,1.17,0,0,0-.53-.7l-1.73-.99a.92.92,0,0,0-1.26.33l-.11.19a2.725,2.725,0,0,1-2.29,1.55,2.725,2.725,0,0,1-2.29-1.55l-.11-.2a.918.918,0,0,0-1.24-.32l-1.73,1a1.157,1.157,0,0,0-.54.7,1.143,1.143,0,0,0,.11.87,2.746,2.746,0,0,1,.2,2.76,2.732,2.732,0,0,1-2.49,1.21A1.144,1.144,0,0,0,1.5,9.308v1.76a1.15,1.15,0,0,0,1.15,1.15,2.732,2.732,0,0,1,2.49,1.21,2.746,2.746,0,0,1-.2,2.76,1.143,1.143,0,0,0-.11.87,1.17,1.17,0,0,0,.53.7l1.73.99a.885.885,0,0,0,.69.1.949.949,0,0,0,.57-.43l.11-.19A2.745,2.745,0,0,1,10.75,16.678Z" transform="translate(301.25 191.812)" fill="#657786"/><path d="M0,0H24V24H0Z" transform="translate(300 190)" fill="none" opacity="0"/></g></svg>