<svg xmlns="http://www.w3.org/2000/svg"  viewBox="0 0 24 24"><g transform="translate(-685 -316)"><path d="M10.86,17.05H4.64A4.442,4.442,0,0,1,0,12.41V4.64A4.442,4.442,0,0,1,4.64,0H8.47a4.683,4.683,0,0,1,3.28,1.36l2.39,2.38A4.658,4.658,0,0,1,15.5,7.02v5.39A4.442,4.442,0,0,1,10.86,17.05ZM4.64,1.5A2.94,2.94,0,0,0,1.5,4.64v7.77a2.94,2.94,0,0,0,3.14,3.14h6.22A2.94,2.94,0,0,0,14,12.41V7.02a3.184,3.184,0,0,0-.92-2.22L10.69,2.42A3.159,3.159,0,0,0,8.47,1.5Z" transform="translate(686.25 321.67)" fill="#657786"/><path d="M10.86,17.06H8.75A.755.755,0,0,1,8,16.31V11.47a3.184,3.184,0,0,0-.92-2.22L4.69,6.87a3.159,3.159,0,0,0-2.22-.92H.75A.755.755,0,0,1,0,5.2V4.64A4.442,4.442,0,0,1,4.64,0H8.47a4.683,4.683,0,0,1,3.28,1.36l2.39,2.39A4.6,4.6,0,0,1,15.5,7.03v5.39A4.442,4.442,0,0,1,10.86,17.06ZM9.5,15.56h1.36A2.94,2.94,0,0,0,14,12.42V7.03a3.124,3.124,0,0,0-.92-2.22L10.69,2.42A3.166,3.166,0,0,0,8.47,1.5H4.64A2.93,2.93,0,0,0,1.5,4.45h.97A4.683,4.683,0,0,1,5.75,5.81L8.14,8.19A4.658,4.658,0,0,1,9.5,11.47v4.09Z" transform="translate(692.25 317.22)" fill="#657786"/><path d="M0,0H24V24H0Z" transform="translate(685 316)" fill="none" opacity="0"/></g></svg>