<svg xmlns="http://www.w3.org/2000/svg" width="245" height="200" viewBox="0 0 145.714 100.257">
    <g id="Group_1017" transform="matrix(0.966, -0.259, 0.259, 0.966, -1097.461, -1385.298)">
        <g id="Group_717" transform="translate(692.645 1655.279)">
            <path id="Path_7173"
                  d="M1.851,10.534a.186.186,0,0,1-.192.089c-.078-.035-.122-.173-.163-.312l-.03-.1a5.991,5.991,0,0,0-.13,1.165l.015,3v1.983L1.3,19.388a16.552,16.552,0,0,1-.17,1.983L.641,24.345A13.9,13.9,0,0,0,.5,26.328l.022,2.384c.185.134.118.392.107.62h-.1v.059a18.479,18.479,0,0,1-.107,1.983L.071,34.348a13.434,13.434,0,0,0-.056,1.983L.208,39.38c.033.545.044,1.438.03,1.983l-.1,2.91C.138,44.818.1,45.71.1,46.256v.664L.242,46.6l.37.332a1.978,1.978,0,0,1,.77,2.062l-.074.3-.281-.04a.775.775,0,0,1-.192-.059.532.532,0,0,1-.326-.316.866.866,0,0,1-.044-.537H.441v-.124l-.07-.1A1.337,1.337,0,0,1,.1,47.787V49.21a3.671,3.671,0,0,0,.488,1.73l1.48,2.231.244.347a2.524,2.524,0,0,1,.163-.312c.052-.719-.936-1.418-.525-1.983.285.714,1.2,1.636.537,2.479l.115.144c.488.342,1.162.466,1.092,1.165L4.882,56.2a3.411,3.411,0,0,0,.444.357.417.417,0,0,0,.026-.059.625.625,0,0,1,.159.045.4.4,0,0,1,.215.248l.107.05a2.437,2.437,0,0,0,.37.139l1.939.521a.734.734,0,0,0-.237-.357c.426-.922.019-1.423.033-2.137a.166.166,0,0,1,.178,0,1.278,1.278,0,0,1,.315.273,1.3,1.3,0,0,0,.352.288.286.286,0,0,0,.311,0,6.25,6.25,0,0,0,.159,1.338l1.258.595a1.448,1.448,0,0,0-.085.342l1.736.129c.4.03,1.066.119,1.48.193l2.35.451a3.694,3.694,0,0,1,.411.064q.059-.258.144-.55c.122-.064.333.069.411-.094.167.094.07.377,0,.684h.5l2.383-.114a5.251,5.251,0,0,1,1.328.154,2.129,2.129,0,0,0,.226-.991l.07.03c.285.129.178.461.255.694a3.283,3.283,0,0,0-.192.357l2.12.659a5.89,5.89,0,0,0,1.48.213L27.5,59.7a8.635,8.635,0,0,1,1.48.134l2.346.461a6.6,6.6,0,0,0,1.277.084H32.8l2.39-.223a7.354,7.354,0,0,1,1.48.035l2.35.332.648.089c.233-.5.181-1.021.925-.714-.237.342-.37.352-.37.788l.278.035,2.353.288c.4.05,1.066.149,1.48.228l1.961.362a.544.544,0,0,0-.126-.278c.052-.1.17-.059.292,0h.1l.1.045a.844.844,0,0,1,.041.273,9.581,9.581,0,0,0,1.451.119l2.372-.05a13.427,13.427,0,0,1,1.48.055l2.353.218c.407.04,1.069.139,1.48.218l2.346.466a9.738,9.738,0,0,0,1.48.149h2.372c.34,0,.862,0,1.262.03,0-.416.285-.288.392-.5a2.9,2.9,0,0,1,.192.53l.814.035a.569.569,0,0,1,.033-.084.426.426,0,0,1,.107.094l1.04.045a8.233,8.233,0,0,1,1.48.233l2.342.649a7.031,7.031,0,0,0,1.48.208h3.848l2.365.05c.407,0,1.073.055,1.48.1l2.35.3c.407.05,1.069.114,1.48.144l2.357.164c.407.03,1.069.109,1.48.178l2.346.4a12.388,12.388,0,0,0,1.48.144l2.365.059a10.046,10.046,0,0,1,1.48.154l2.346.436a9.869,9.869,0,0,0,1.48.139h2.365c.407,0,1.073.035,1.48.064l2.357.188c.407.035,1.069.1,1.48.144l2.35.263a13.44,13.44,0,0,0,1.48.064l2.372-.059a5.9,5.9,0,0,1,1.48.188l2.346.669a8.805,8.805,0,0,0,1.48.263l.614.045a2.045,2.045,0,0,1-.3-1.983.9.9,0,0,1,.159.05c.34.159.167.575.252.858.37-.055,0-.649.263-1.021.2.421.592.739.429,1.338-.118.149-.448-.183-.525.045a.713.713,0,0,0,.152.734l.414.03a1.3,1.3,0,0,1,.189-.7,2.7,2.7,0,0,1,.278.734l.433.03a4.485,4.485,0,0,0,1-.069.642.642,0,0,1,.037-.461l.348.159-.059.233.137-.04,2.094-.679,1.166-.392-.078-.035a.654.654,0,0,1-.167-1.1c.067.387.37.654.352,1.1l.163-.059,2.135-.739a2.9,2.9,0,0,0,1.214-.991l.141-.208a.523.523,0,0,0-.266-.283.912.912,0,0,0-.2-.059l.163-.639a.518.518,0,0,0-.115-.064c-.155-.074-.259-.03-.3.164-.144-.188-.059-.5-.067-.749.27-.149.9.5.859-.322.54.317.274.868.048,1.314a.32.32,0,0,0,.1.307l.718-1.056a.722.722,0,0,1-.078-.63,1.754,1.754,0,0,1,.3.292l.215-.317a5.651,5.651,0,0,0,.7-1.685l.474-2.766a10.64,10.64,0,0,0,.2-1.943l-.022-2.86a.632.632,0,0,1-.525.079,8.221,8.221,0,0,1,.067-2.265.548.548,0,0,1,.437.05l.059.03v-.03l.152-2.974c.03-.545.067-1.433.081-1.983l.1-3c.019-.545.052-1.438.074-1.983l.133-3c.026-.54.07-1.433.1-1.983l.181-2.974c.033-.54.115-1.428.185-1.983l.37-2.974c.067-.535.148-1.423.174-1.983l.159-2.974a15.177,15.177,0,0,0-.055-1.983l-.322-2.974a4.107,4.107,0,0,0-.625-1.69l-1.521-2.067c-.289-.387-.762-.991-1.058-1.388l-1.584-2.013a3.1,3.1,0,0,0-1.036-.8,1.669,1.669,0,0,0-.222-.084l-2.161-.625A9.215,9.215,0,0,0,122.5,9.84l-2.361-.2c-.4-.035-1.069-.084-1.48-.109L116.3,9.374l-1.48-.084-2.361-.119a13.568,13.568,0,0,1-1.48-.134l-2.353-.307a10.511,10.511,0,0,0-1.48-.055l-2.376.119a.332.332,0,0,1,.1.451.264.264,0,0,1-.233.035c-.137-.064-.181-.312-.252-.5H104.2c-.122.129-.155.456-.348.436h-.067c-.17-.079-.155-.3-.081-.5a3.156,3.156,0,0,1-.392-.109l-2.35-.843a6.178,6.178,0,0,0-1.454-.3l-2.357-.134c-.407,0-1.073-.025-1.48,0l-2.383.129a6.628,6.628,0,0,1-1.343-.094c.1.178.044.521.118.555s.085-.03.189-.169c.248.134.167.436.067.749h0a.552.552,0,0,1-.266-.283.569.569,0,0,0-.266-.283.623.623,0,0,0-.192-.055.9.9,0,0,1,.218-.535L90.7,7.114a.461.461,0,0,0-.122.169.5.5,0,0,1-.1-.218l-.74-.154A2.3,2.3,0,0,1,90,8.016a.25.25,0,0,0,.063.035.257.257,0,0,0,.278-.03.268.268,0,0,1,.278-.035.659.659,0,0,1,.141.094c-.459.734.178.952-.429,1.666-.174-1.041-1.784-1.557-1-2.925-.4-.079-.966-.174-1.325-.213l-1.2-.164a.491.491,0,0,1,0,.367c-.74-.223-.141.5-.229.9a.434.434,0,0,0-.1-.079c-.089-.04-.122.03-.159.1s-.074.139-.163.1a.658.658,0,0,1-.1-.079,2.732,2.732,0,0,1,.337-1.358l-.74-.084-.44-.035a2.33,2.33,0,0,1,.237,1.383v.193L84.9,7.788l-.1.382-.229-.1c.044-.174.089-.342.13-.5h0a1.247,1.247,0,0,0-.155-.431,2.123,2.123,0,0,1-.266-.833H84.1c.218.5.37,1.249.211,1.215h-.044c-.241-.114-.337-.654-.433-1.17l-2.065.213a6.367,6.367,0,0,1-1.48-.05l-.174-.03.152.2a1.03,1.03,0,0,0,.37.347.438.438,0,0,0,.181.04c.118-.238.241-.292.37-.243.266.124.47.872.437,1.18a4.777,4.777,0,0,1-1.943-1.487.563.563,0,0,1,.093-.114l-.511-.089c.07.074.13.154.189.228a1.758,1.758,0,0,0,.252.278l.37.292-.259.347a.688.688,0,0,1-.825.342,1.249,1.249,0,0,1-.459-.461.96.96,0,0,0-.326-.352.407.407,0,0,0-.237-.025l-.784.119.37-.778a.587.587,0,0,0,.048-.139.373.373,0,0,0-.133-.089L77.318,6c-.3-.035-.6-.059-.825-.069l-2.361-.1L72.7,5.735a.366.366,0,0,1-.488.079.7.7,0,0,1-.2-.139l-.614-.05h.048a.427.427,0,0,1,.224.3.6.6,0,0,1-.054.421l-.577-.263a.264.264,0,0,0,.03-.171.213.213,0,0,0-.078-.141.415.415,0,0,1,.278-.178L70.3,5.517c-.233,0-.548-.045-.855-.074a1.256,1.256,0,0,1,0,.406.97.97,0,0,1-.085.258,2.665,2.665,0,0,0,.2.208c.078.074.152.149.222.228l.155.169-.03.228a.394.394,0,0,1-.026.174.766.766,0,0,1,.252.074,1,1,0,0,1,.315.228l.192.2-.067.263h0c.322.213.107.8-.259.63l-.041-.025a1.068,1.068,0,0,1-.111.1l1.38-.069a.748.748,0,0,0-.237,0c-.17-.4.281-.56.3-1.155H71.56c-.133-.064-.181.059-.229.188s-.1.248-.233.188a.34.34,0,0,1-.085-.055c.27-.471-.115-.61,0-.991a1.9,1.9,0,0,1,.315.119,4.59,4.59,0,0,1,1.791,1.73,4.311,4.311,0,0,1,.862.188L76.1,9.5a1.276,1.276,0,0,0-.085-.208,1.02,1.02,0,0,0,.252-.795.882.882,0,0,0-.385-.692.887.887,0,0,1,.981-.5.767.767,0,0,1,.255.2,3.008,3.008,0,0,0-.329,1.284c-.163.377.559.312.329.724H77.1l-.155-.074-.159-.074a.611.611,0,0,0-.507-.084.385.385,0,0,0-.022.283l.074.03a6.428,6.428,0,0,0,1.454.3h0l.044-.178.229.109-.019.084,2.094.119H81a.314.314,0,0,1,.181-.352h.03a.444.444,0,0,1,.259.332h.411a.189.189,0,0,1,.189-.055.148.148,0,0,1,.048.045l1.88-.1a6.667,6.667,0,0,1,1.48.119l.311.069a1.114,1.114,0,0,1-.344-.872.442.442,0,0,1,.118.04,1.611,1.611,0,0,1,.185.1c.063.035.126.074.185.1.148.069.266.069.27-.178l.344.159a.913.913,0,0,0-.041.8l.455.1a.928.928,0,0,1,.459-.783.232.232,0,0,1,.081.025c.259.119.229.58.089.892l.233.05c.218.05.511.1.8.149a.8.8,0,0,0,.115-.223.336.336,0,0,1,.07-.035.179.179,0,0,1,.092.243l.37.045,2.353.273a7.7,7.7,0,0,0,1.48,0l2.4-.248a6.368,6.368,0,0,1,1.48.05l2.346.406a14.325,14.325,0,0,0,1.458.159,3.158,3.158,0,0,1-.981-2.444.34.34,0,0,1,.226.03,2.882,2.882,0,0,1,.74.7,12.4,12.4,0,0,1,.07,1.715l1.787.079a.815.815,0,0,1,.033-.635.461.461,0,0,1,.137.04.4.4,0,0,1,.17.164.376.376,0,0,0,.17.169l.067.025-.07.258h.019c.407,0,1.073.059,1.48.089l2.357.193c.4.03,1.069.094,1.48.139l2.35.253c.407.045,1.073.1,1.48.124l2.357.124c.407.025,1.073.069,1.48.109l2.353.2,1.48.149,2.353.263a6.51,6.51,0,0,1,1.443.372l1.946.8h.041a2.713,2.713,0,0,1,1.088,1.091l1.092,2.122a15.622,15.622,0,0,1,.74,1.715l.8,2.31a4.844,4.844,0,0,1,.181,1.879l-.4,2.974c-.074.535-.163,1.418-.2,1.983l-.222,2.974a19.463,19.463,0,0,0,0,1.983L129,36.336a10.393,10.393,0,0,1-.022,1.155.285.285,0,0,1,.289,0,.348.348,0,0,1,.189.5,1.128,1.128,0,0,1-.159-.059.875.875,0,0,1-.329-.258c-.018.223-.044.436-.07.615l-.485,2.974a13.366,13.366,0,0,0-.137,1.983l.059,3.024c0,.545,0,1.438-.048,1.983l-.211,2.974c0,.193-.026.431-.033.684.067-.05.111-.149.111-.342h.056c.137.059.129.2.259.268a.649.649,0,0,1-.44.53v.823l.048,3.019a6.534,6.534,0,0,1-.3,1.889l-.862,2.479a5.126,5.126,0,0,1-.873,1.487,2.37,2.37,0,0,0,.455.436.332.332,0,0,1-.426.089,1.056,1.056,0,0,1-.3-.238l-.414.451a1.645,1.645,0,0,1,.085.783.937.937,0,0,1-.189-.064.846.846,0,0,1-.326-.258l-.474.5a1.99,1.99,0,0,1-1.317.595l-1.972-.079c-.4,0-1.069,0-1.48.04l-2.394.223a4.7,4.7,0,0,1-1.462-.149l-2.35-.709a5.871,5.871,0,0,0-1.462-.208h-3.856l-2.365-.074a7.068,7.068,0,0,1-1.48-.228l-2.346-.664a6.382,6.382,0,0,0-1.48-.193l-2.372.035a8.6,8.6,0,0,1-1.48-.139l-2.346-.5a5.628,5.628,0,0,0-1.48-.074l-2.4.253a11.338,11.338,0,0,1-1.48.03l-2.361-.139a7.388,7.388,0,0,1-1.458-.273l-2.35-.749a4.707,4.707,0,0,0-1.458-.183l-2.387.149a7.711,7.711,0,0,1-1.48-.079L75.09,60.23a12.331,12.331,0,0,0-1.48-.154l-2.365-.064c-.407,0-1.069-.045-1.48-.074l-2.357-.174c-.407-.035-1.069-.119-1.48-.2l-2.346-.451h0a2.255,2.255,0,0,0-.174.9,3.466,3.466,0,0,1-.625-.575.856.856,0,0,1,.13-.4,3.793,3.793,0,0,0-.788,0l-2.379.109h-.352a4.881,4.881,0,0,1,.052.778.769.769,0,0,1-.2-.069.876.876,0,0,1-.488-.783,4.1,4.1,0,0,1-.47-.109l-.818-.253a.444.444,0,0,1-.063.129.328.328,0,0,1-.137,0c-.078-.035-.081-.1-.063-.188l-1.266-.392a6.021,6.021,0,0,0-1.28-.213.682.682,0,0,1-.248.441.461.461,0,0,1-.137-.04.415.415,0,0,1-.17-.164.376.376,0,0,0-.17-.169h-.067v-.04H52.1a8.587,8.587,0,0,1-1.48-.134l-2.346-.461a5.606,5.606,0,0,0-.577-.069c.026.357-.181.838-.163,1.2a1.387,1.387,0,0,1-.274-1.224H46.8l-2.39.223a7.7,7.7,0,0,1-1.48-.035l-.714-.1a1.382,1.382,0,0,1,.34,1.413l-.141-.05c-.455-.213-.311-.729-.614-.991,0-.357.252-.188.34-.357l-1.562-.223-1.48-.193-2.353-.288c-.4-.05-1.066-.154-1.48-.228l-2.346-.436A9.2,9.2,0,0,0,31.436,56l-2.376.05a13.464,13.464,0,0,1-1.48-.055l-2.25-.213a.82.82,0,0,1,.278.768c-.2-.094-.229.193-.433.1a.276.276,0,0,1-.093-.059c.122-.347-.141-.5-.044-.838-.4-.045-.94-.124-1.284-.193L21.963,55.2v.5c-.37-.094-.5.342-.907.154h-.03a1.371,1.371,0,0,1,.081-.818h0a.568.568,0,0,1-.437-.055c-.155,0-.311-.03-.451-.035-.056.119-.085.3-.2.3a.872.872,0,0,0-.152-.1.607.607,0,0,0-.281-.045.565.565,0,0,1-.285-.045h0l-.044-.119H16.346c-.189.575.37,1.026-.052,1.343a11.626,11.626,0,0,1-.836-1.383l-.821-.035-.085.183a.922.922,0,0,1-.141-.193l-.67-.03a8.233,8.233,0,0,1-1.48-.233l-2.268-.6-.566-.159H9.393c.07.5.352.863.281,1.418a1.026,1.026,0,0,0-.167-.109.338.338,0,0,0-.329,0,.321.321,0,0,1-.326.03.834.834,0,0,1-.167-.114c.607-.174.067-.719-.259-.868a.29.29,0,0,0-.152-.04,1.316,1.316,0,0,1-.2-.739L6.8,53.042a1.6,1.6,0,0,1-.237-.089,3.622,3.622,0,0,1-.37-.213.557.557,0,0,1-.059.288l-.326-.139c-.318-.149-.559-.332-.348-.744h.026L5.267,51.9a8.948,8.948,0,0,1-.285,1.611c-.8-.53-.107-1.358.019-1.913l-.929-1.031a3.807,3.807,0,0,1-.707-1.542.538.538,0,0,1-.2-.336.7.7,0,0,1,.046-.427l.033.03-.052-.322-.37-.173.1-.387a.555.555,0,0,1,.185,0l-.144-.922A11.886,11.886,0,0,1,2.843,44.5l.118-2.979c.022-.545.081-1.433.133-1.983l.292-2.974c.052-.54.1-1.433.107-1.983l.037-3.009q.017-.975.111-1.943l-.022.055-.459-.213a.332.332,0,0,1,.109-.251.177.177,0,0,1,.216-.012.314.314,0,0,1,.174.238l.3-2.836q.093-.987.107-1.983V21.613c0-.545.022-1.438.048-1.983l.133-3c.022-.545.07-1.433.1-1.983l.189-2.974a15.454,15.454,0,0,1,.27-1.938L5.37,7.188a2.64,2.64,0,0,1,.866-1.4l1.758-1.2a4.974,4.974,0,0,1,1.388-.615l1.791-.406a7.379,7.379,0,0,1,1.48-.164h2.372c.407,0,1.073.035,1.48.074l2.357.213c.407.04,1.073.089,1.48.114l1.95.109A.521.521,0,0,1,22.2,3.47h.048a.6.6,0,0,1,.266.268.779.779,0,0,0,.141.188h.022c.407,0,1.069.069,1.48.1l2.361.188c.4.03,1.069.094,1.48.139l2.342.268c.4.045,1.066.154,1.48.243l2.346.53a14.607,14.607,0,0,0,1.48.233l.766.069a2.8,2.8,0,0,0-.37-.2,3.744,3.744,0,0,0-.522-.188c0-.377-.555-.8-.115-1.056a.612.612,0,0,1,.163.045c.34.159.122.595.4.788l.07.035c.437.2.633-.129.818-.5h0a.612.612,0,0,1,.3.372.6.6,0,0,0,.307.377.644.644,0,0,0,.2.055.368.368,0,0,1-.37.337l.677.064c.407.04,1.073.109,1.48.159h.07l-.063-.025c.074-.5.285-.709.655-.555-.1.3-.207.575-.433.595L41.22,6.2a1.964,1.964,0,0,1,.081-.53c-.34-.183-.178-.625-.078-1.036.111.055.052.2.052.312.141.04.155-.193.215-.332l.344.159a.451.451,0,0,1-.192.317l.229.119A1.077,1.077,0,0,1,42.4,6.3a6.961,6.961,0,0,0,.888-.035l2.405-.307a3.906,3.906,0,0,1,1.454.139l2.35.773a7.021,7.021,0,0,0,1.458.283L53.31,7.3c.407.025,1.073.074,1.48.109l2.353.193,1.48.114,2.05.134a1.116,1.116,0,0,0,.081-.5l.348.164q-.039.181-.063.367l1.421.079h.344c-.315-.357.252-1.1.418-1.2a1.645,1.645,0,0,1-.237,1.215l1.85.089h.033a2.812,2.812,0,0,1,.278-1.72h.037a2.545,2.545,0,0,1,.7.61,2.682,2.682,0,0,0-.3,1.145,5.623,5.623,0,0,1,.722.074l2.35.307.426.04a4.65,4.65,0,0,1-.544-.3l-.266-.154-.3-.169.074-.352a.591.591,0,0,1,.4-.5,3.271,3.271,0,0,1,.033-1.765l-.392.02.159.074-.1.387h-.055a.359.359,0,0,1-.211-.456l-1.421-.154h.044c-.241.5-.933-.05-1.069.654a1.417,1.417,0,0,1-.407-.788h-.044l-2.361-.124c-.407-.025-1.073-.069-1.48-.109l-2.357-.2c-.407-.035-1.069-.1-1.48-.149L56.2,4.308c0,.317.1.7.078.991a1.9,1.9,0,0,1-.537-.164,8.011,8.011,0,0,1-1.48-1.051L53.469,4l-2.353-.238a7.776,7.776,0,0,1-1.454-.317l-2.346-.8a3.826,3.826,0,0,0-1.428-.164h-.074c0,.129-.122.144-.222.1a.52.52,0,0,1-.081-.055l-2.028.283h-.089c-.2.649.226,1.259.1,2.132-.6-.436-.4-1.284-.525-1.983a.491.491,0,0,0,.4-.164,4.821,4.821,0,0,1-1.347-.084L39.67,2.161c-.4-.094-1.058-.218-1.48-.268L37.2,1.765l-.155.615a.644.644,0,0,1-.507-.084c-.07-.03-.144-.069-.218-.109a1.948,1.948,0,0,1,.411-.5l-.892-.114a7.744,7.744,0,0,0-1.48-.03l-2.39.213a5.013,5.013,0,0,1-1.48-.139l-2.328-.6a5.889,5.889,0,0,0-1.48-.183h-.37V.917L26.274.848,24.339.907a10.518,10.518,0,0,1-1.48-.069L20.494.545a12.293,12.293,0,0,0-1.48-.069L17.9.5a.456.456,0,0,1,0,.124,3.248,3.248,0,0,0-.37-.114l-.881.02a9.216,9.216,0,0,1-1.48-.1L12.819.035,12.494,0V.263a.22.22,0,0,0-.107-.178c-.174-.079-.444.233-.222.456A.174.174,0,0,1,11.987.6c-.144-.055-.167-.347-.115-.6a3.588,3.588,0,0,0-.518.059L9.3.461A10.819,10.819,0,0,0,7.857.872l-2.117.778A2.517,2.517,0,0,0,4.608,2.731L3.372,5.146l-.133.268a.642.642,0,0,1,.229.069l.159.079.159.079c.229.109.44.134.544-.263.17.288.344.907-.033,1.13a4.72,4.72,0,0,0-.67-.4A4.3,4.3,0,0,0,3.017,5.9c-.148.337-.292.684-.392.952L1.648,9.488a.4.4,0,0,1,0,.059A6.256,6.256,0,0,1,1.851,10.534Zm127.9,50.727c-.107.545-.281.426-.229.9h-.048c-.4-.183-.2-.937-.07-1.036Zm.74-5.388a.225.225,0,0,1,.107,0,.187.187,0,0,1,.1.117.28.28,0,0,1,0,.175.217.217,0,0,1-.081.136.126.126,0,0,1-.13.013.225.225,0,0,1-.093-.074Zm-.548.149a1.988,1.988,0,0,1,.218.129.247.247,0,0,1-.27.04.209.209,0,0,1-.133-.159c0-.05.052-.069.185-.015ZM73.144,7.238l-.115.149-.181-.03a.567.567,0,0,1-.159-.05.637.637,0,0,1-.37-.5l-.155-.079L72.2,6.4a.465.465,0,0,1,.192-.347.383.383,0,0,1,.37,0,.94.94,0,0,1,.459.59A.657.657,0,0,1,73.144,7.238Zm1.358-.4c-.137-.064-.13-.2-.259-.268.048-.094.148-.074.181-.2a.448.448,0,0,1,.129.5Zm5.1,2.92c-.115-.753-.74-1.259-1.2-1.839-.311.154.026.55.181.8a.23.23,0,0,1-.218,0,.766.766,0,0,1-.1-.064l-.126-.069a.9.9,0,0,0-.278-.069c-.185-.793.463-.63.759-.937.492.758,1.647,1.155,2.154,2.142C80.464,9.914,79.971,9.7,79.605,9.761Zm2.864-1.11c-.2-.347-.237-.773-.64-.991l.163-.639C82.447,7.356,82.843,8.229,82.469,8.65ZM83.8,7.976l.94.451c0,.446.233.773.2,1.234C84.623,9.047,83.757,8.74,83.8,7.976Zm2.106.828c-.137-.114-.122-.307-.278-.416,0-.4.248-.253.278-.585a.859.859,0,0,1,0,1Zm1.217.278c-.222-.149-.133-.451-.37-.6.048-.089.148-.074.181-.2.222.149.137.451.37.6C87.258,8.973,87.158,8.953,87.124,9.082Zm3.33,1.393c-.137-.064-.126-.2-.259-.268.052-.094.152-.074.181-.2a.447.447,0,0,1,.133.5Zm1.273.292a.258.258,0,0,1-.118,0c-.2-.094,0-.382.019-.59-.026-.322-.566-.382-.592-.7a.33.33,0,0,1,.429-.1c.426.173.8,1.125.252,1.4ZM95,7.555a1.169,1.169,0,0,1,.181.055c.255.119.3.347.444.5A1.449,1.449,0,0,0,95.347,9.7a.854.854,0,0,1-.289-.059c-.611-.253.207-1.4-.067-2.082Zm.118,3.069L95,10.564c.018-.292.167-.3.248-.461H95.3c.137.064.13.2.259.268-.056.322-.222.362-.459.253Zm.866-2.6-.178-.094c0-.248.1-.253.244-.188l.152.084.152.084.092.03c-.081.213-.263.178-.474.084Zm1.525,2.558-.059-.03.167-.639a.6.6,0,0,1,.329.724.568.568,0,0,1-.448-.055Zm.977.446-.241-.119.067-.258.229.109Zm.577-.734a.771.771,0,0,1-.411-.907c.222.045.348-.124.607,0H99.3c-.03.327.052.768-.241.907Zm4.148-1.244c-.067-.03-.093.03-.115.094-.13-.079-.037-.278-.018-.436l.07.025c.133.059.118.2.1.337Zm.03.768a.124.124,0,0,1,.052-.078.074.074,0,0,1,.078,0,.431.431,0,0,1,.155.183.234.234,0,0,1-.229.059.109.109,0,0,1-.054-.066.163.163,0,0,1,0-.1Zm.17,1.041a.442.442,0,0,1-.2-.218c.07-.178.215-.2.4-.114l.122.069a.335.335,0,0,1-.11.244.18.18,0,0,1-.212.019Zm5.477.431a.5.5,0,0,1-.148-.1c.048-.431.292-.426.429-.664.337.208.115.952-.278.768Zm10.761-.942.229.109c-.044.169-.085.337-.13.5l-.226-.094c.041-.169.085-.337.13-.511Zm.137,1.165a.312.312,0,0,1-.137-.164c.044-.3.211-.342.44-.233a.873.873,0,0,1,.118.064c-.058.235-.236.377-.418.332Zm8.8,6.682a.721.721,0,0,1,.1.62C128.492,18.689,128.48,18.471,128.588,18.193ZM130.257,16c.019,0,.033.04.056.069a.226.226,0,0,0,.089.089h0a.1.1,0,0,1-.144.055.152.152,0,0,1-.085-.164C130.2,16.007,130.223,15.992,130.257,16Zm-.189,1.983-.229-.1c.048-.1,0-.144-.081-.183,0-.114.107-.124.2-.079s.244.258.092.392Zm.47,3.059c-.063-.03-.1-.149,0-.406.322.238.089.486-.015.431Zm1.48,2.855a.756.756,0,0,0-.37-.317h-.059l.133-.5.344.159c-.192.307.07.392-.055.679Zm-.873,3.9h0l.067-.258h.07c.174.079.1.283.063.466-.1-.02-.089-.134-.207-.183ZM130.09,33.61c-.248-.114-.255-.347-.144-.644h.048c.255.119.178.4.163.654Zm-1.414,14.812c-.089-.069-.081-.183-.2-.238h0c.052-.094.152-.074.181-.2.089.069.081.183.2.238h0c-.055.114-.155.1-.189.228Zm-.74,14.406c-.047.129-.158.191-.259.144a2.072,2.072,0,0,1-.429-.461c.437-.714-.255-1.294.163-1.646.518.5-.141,1.6.514,1.988Zm.94-7.535a.647.647,0,0,1,.159.129.912.912,0,0,0,.222.164.655.655,0,0,0,.144.045c-.033.109-.126.1-.237.05a1.348,1.348,0,0,1-.185-.1l-.2-.055a.377.377,0,0,0-.111-.035c.078-.173.137-.2.2-.169Zm.3-5.785c.037-.144.178-.149.326-.079.248.114.525.436.414.709h-.037a2.5,2.5,0,0,1-.729-.6Zm-2.483,13.88.178.089a1.389,1.389,0,0,1-.081.823h0c-.37-.174-.414-.525-.548-.828.048-.188.229-.159.44-.059Zm-2.239.991c.033.238.315.357.211.669a.568.568,0,0,1-.1-.035c-.163-.074-.2-.213-.322-.307a.556.556,0,0,0,.2-.312Zm-2.783,1.294a.2.2,0,0,1,.178-.03c.1.045.1.238.252.367,0,.109-.152.109-.281.05s-.311-.223-.159-.372Zm-2.716-.967.348.159-.067.258-.344-.164Zm-2.642,2.216a.6.6,0,0,1-.329-.724C116.065,66.471,116.421,66.59,116.31,66.922Zm-1.728-.8h.033a.541.541,0,0,1,.115.912l-.344-.159c-.167-.307.085-.451.2-.734Zm-.278-1.418h.03c.067.03.092-.03.118-.094h.022c.085.035.093.159.059.263s-.118.176-.2.144a.24.24,0,0,1-.093-.084Zm-10.609-1.041c.133.064.118.2.093.342h-.033c-.067-.03-.089.03-.115.094-.13-.084-.037-.278,0-.436Zm-2.457.778.344.159c-.041.174-.085.342-.13.5l-.067-.03C101.138,64.939,101.13,64.721,101.238,64.444Zm-11.908.431c.022,0,.037.04.059.069a.226.226,0,0,0,.089.089h0a.1.1,0,0,1-.144.055.152.152,0,0,1-.085-.164c.044-.064.063-.079.081-.069Zm-2.505-.5.459.213-.063.258-.463-.213Zm-5.181-2.831h0c.081.035.093.193.055.332s-.122.248-.226.2A.267.267,0,0,1,81.381,62c.03-.3.163-.312.244-.471Zm-1.776,1.9a.371.371,0,0,1,.118,0c.2.094,0,.387-.022.595-.211-.1-.222-.337-.115-.595Zm-8.511.074c-.289-.149-.148-.6.052-.694.255.124.115.585-.085.674Zm1.713-.639-.222-.094a.847.847,0,0,1-.437-.357c.044-.233.211-.2.248-.456-.03.347.481.481.377.887Zm-1.01-2.518a1.689,1.689,0,0,1,.244.154,1.249,1.249,0,0,0,.226.144.146.146,0,0,0,.226-.074c.255.243.636.421.562.833a.7.7,0,0,1-.392-.069,3.424,3.424,0,0,1-.474-.292,3.778,3.778,0,0,0-.537-.322,1.471,1.471,0,0,0-.326-.114c.064-.237.259-.361.437-.278Zm-.174,2.112a1.077,1.077,0,0,1-.611-1.14,1.458,1.458,0,0,1,.577,1.12Zm-1.662-.05a.562.562,0,0,1,.133.045c.422.193.155.739.507.991a.376.376,0,0,1-.326,0,.776.776,0,0,1-.348-1.056Zm-.955-1.457c.326.213.107.456,0,.4S69.166,61.241,69.27,60.974Zm-1.007,2.4c-.03.055-.052.064-.07.059a.24.24,0,0,1-.059-.074.2.2,0,0,0-.089-.084h0a.1.1,0,0,1,.144-.055.154.154,0,0,1,.074.164Zm-.1-1.294a.3.3,0,0,1,.176.192.475.475,0,0,1,0,.3l-.107-.035c-.159-.079-.2-.213-.322-.307a.23.23,0,0,1,.1-.146.14.14,0,0,1,.148,0ZM66.8,60.547c.37.3,0,.991-.4.833l-.067-.04a.925.925,0,0,1,.463-.783Zm-.644,0c-.078.555-.448.5-.855.317.111-.486.481-.387.855-.312Zm-1.872,1.586a1.125,1.125,0,0,1,.326.416c-.041.109-.122.114-.215.069a.946.946,0,0,1-.37-.332c.044-.133.157-.2.259-.149Zm-1.48-1.125a.239.239,0,0,1,.107,0,.2.2,0,0,1,.093.119.287.287,0,0,1,0,.173.217.217,0,0,1-.078.139.124.124,0,0,1-.129.015.3.3,0,0,1-.093-.079Zm-1.513-.124c-.255.109-.392.5-.74.372a.559.559,0,0,1,.755-.367Zm-4.263.585.229.109-.067.253-.229-.1Zm-4.577-.248a.449.449,0,0,1-.13-.5.368.368,0,0,1,.145.221.5.5,0,0,1-.016.294Zm-2.361-3.1a.354.354,0,0,1,.192.5h-.059a.372.372,0,0,1-.189-.521Zm-.37,1.13.459.213c-.067.253-.13.5-.2.768a.958.958,0,0,1-.155-.05c-.322-.139-.222-.516-.089-.912Zm-2.65,1.785c.192.124.2.342.1.62a.329.329,0,0,1-.118-.03c-.185-.074.007-.362.037-.57Zm-1.2,0a.242.242,0,0,1,.111.188l-.063.258a.515.515,0,0,1-.115-.04.213.213,0,0,1-.141-.283.153.153,0,0,1,.222-.079Zm-.74-2.057c.474.61-.614.555-.37,1.408-.636-.332.141-1.229.4-1.363Zm-2.083.749c.255.119.459.263.322.585a.528.528,0,0,0-.126-.084.281.281,0,0,0-.211,0,.264.264,0,0,1-.211,0,.251.251,0,0,1-.063-.035.878.878,0,0,1,0-.565ZM36.1,58.242a.351.351,0,0,1,.192.5H36.24a.351.351,0,0,1-.192-.5Zm-1.75-.947c.307.253.192,1.775-.311,1.715.407-.7-.063-1.229.344-1.666Zm-2.96.055a.882.882,0,0,1-.263-.991.7.7,0,0,1,.31.439.98.98,0,0,1-.033.6ZM29.6,58.426c.089.069.081.183.2.233h0c-.052.094-.148.074-.181.2-.089-.064-.081-.178-.2-.233h0C29.468,58.535,29.564,58.554,29.6,58.426Zm-3.33.248a.71.71,0,0,1,.392.684.336.336,0,0,1-.3,0,.445.445,0,0,1-.26-.264.712.712,0,0,1-.032-.435A.243.243,0,0,1,26.274,58.673Zm-.659.773-.093-.03c-.34-.159-.152-.744.059-.848a.419.419,0,0,1,.1.03c.266.129-.081.575-.078.848Zm.148-2.082c.37.188.181.649.115,1.056a.607.607,0,0,1-.329-.055.544.544,0,0,1-.3-.316.861.861,0,0,1-.041-.512c.17-.035.444.074.544-.174Zm-1.85-.283a.521.521,0,0,1,.211.423.555.555,0,0,1-.178.45h-.03a.456.456,0,0,1-.248-.422.485.485,0,0,1,.219-.45Zm-.707-.758a1.425,1.425,0,0,1,0,1.443H23.17c-.259-.119-.278-.362-.474-.5a1.384,1.384,0,0,1,.485-.947Zm-2.827-.307.152.089a7.353,7.353,0,0,1-.148,1.076c-.259-.352-.644-.639-.459-1.215a.638.638,0,0,1,.455.05Zm-4.441,1.423a.151.151,0,0,1,.085.164.31.31,0,0,1-.185,0c-.033,0-.052-.05-.044-.119a.1.1,0,0,1,.144-.045Zm-1.351-.149a.253.253,0,0,1,.207,0,.738.738,0,0,1,.126.084A.711.711,0,0,1,14.85,58a.349.349,0,0,1-.458.141l-.048-.025c.022-.223.167-.173.215-.332s-.033-.169-.126-.213h-.052c-.118-.055-.218-.119-.067-.312a.22.22,0,0,0,.063.04A.281.281,0,0,0,14.588,57.29ZM14.2,56.185l.344.164c-.022.288-.167.3-.248.456C14.1,56.681,14.092,56.462,14.2,56.185Zm-2.727-1.4h.037a.539.539,0,0,1,.111.912C11.313,55.521,11.217,54.921,11.472,54.782ZM2.306,46.677c.4.183.081.991-.118,1.105-.37-.283.218-.615.033-1.13Zm.244-2.31.229.109-.067.253-.229-.114ZM1.481,48.462l.344.164c-.022.084-.041.169-.063.253l-.348-.159Zm-.148-1.368a1.878,1.878,0,0,1-.463-1.215C1.015,46.3,1.692,46.434,1.333,47.093ZM.449,38.508a.15.15,0,0,1-.089-.164c.015-.069.056-.064.074-.055a.212.212,0,0,1,.056.069.254.254,0,0,0,.089.089h0a.1.1,0,0,1-.13.059Zm2.183-3.966L2.4,34.433l.067-.253.229.1ZM2.939,32a.765.765,0,0,1,.192.208.789.789,0,0,0,.259.248h.033c-.048.1-.159.1-.278.045a1.058,1.058,0,0,1-.414-.362c.081-.154.144-.183.207-.154ZM.9,38.741c.463.3.218,1.824-.326,1.576l-.07-.04A2.328,2.328,0,0,1,.9,38.741ZM1.911,31.3c.54.288.215.991.392,1.487a.409.409,0,0,1-.233-.04.852.852,0,0,1-.377-.654,1.016,1.016,0,0,1,.218-.773ZM.393,36.193H.467c.17.079.1.283.059.466-.085-.064-.081-.178-.2-.233h0ZM67.135,6.157c.4.238.167.8.625,1.016a.51.51,0,0,0,.133.045.3.3,0,0,1-.37.084A.916.916,0,0,1,67.135,6.157Zm-.64.991h.056a.352.352,0,0,1,.189.5l-.344-.159Zm-2.172.426a.154.154,0,0,1-.167.04c-.229-.109-.285-.882,0-.967a.327.327,0,0,1,.115.03C64.6,6.821,64.019,7.436,64.322,7.575Zm-.178-2.226a.57.57,0,0,1,.126.917,3.211,3.211,0,0,1-.148-.927Zm-2.59,1.532a.538.538,0,0,1,0,.863,1.3,1.3,0,0,1-.033-.877Zm-9.991-2.89c.118.089,0,.292.167.362a.85.85,0,0,1,.788,0,1.292,1.292,0,0,1,.773,1.423,5.073,5.073,0,0,0-1.166-.818,1.744,1.744,0,0,0-1-.183c-.252-.565.385-.312.459-.783Zm-7.031.763c.4.183.474-.332.685-.55h.059c.44.2-.507.734.059,1.036a.357.357,0,0,0,.107.079c.126.059.155-.084.189-.233s.063-.288.185-.228a.392.392,0,0,1,.111.079l-.2.768a1.662,1.662,0,0,1-.762-.129.87.87,0,0,1-.522-.892Zm-.6.431h0c.081.04.093.2.056.332s-.122.253-.226.2a.3.3,0,0,1-.093-.079c.033-.288.181-.3.263-.456Zm-3.1-1.542a.283.283,0,0,1,.172.195.433.433,0,0,1-.017.3.752.752,0,0,0-.178-.129.272.272,0,0,0-.292.04.272.272,0,0,1-.292.04.442.442,0,0,1-.111-.069A.547.547,0,0,1,40.835,3.644Zm-1.4-1.393c.337.154.285.5.27.838a1.129,1.129,0,0,1-.3-.853ZM35.5,2.424a.4.4,0,0,1,.237.555.246.246,0,0,1-.215,0c-.159-.074-.274-.322-.426-.461C35.129,2.355,35.329,2.345,35.5,2.424Zm-.9,1.745c.248.114.255.352.144.644-.137-.188-.315-.362-.211-.669Zm-2.413-.962.233.109-.067.253-.222-.1A1.409,1.409,0,0,0,32.195,3.207Zm-9.451-.788H22.8c.137.064.13.2.259.268,0,.114-.107.124-.2.079S22.592,2.558,22.744,2.419Zm-1.6-.3a5.289,5.289,0,0,1,.625,1.576.549.549,0,0,1-.352-.059,4.68,4.68,0,0,1-.881-.659C20.646,2.479,20.986,2.479,21.145,2.117Zm-1.728,1.2a1.733,1.733,0,0,1-.437-.114c-.244-.114-.37-.322-.237-.768C18.873,2.776,19.588,2.831,19.417,3.321ZM16.376.63a.62.62,0,0,0,.3.466.75.75,0,0,0,.233.059,1.223,1.223,0,0,1,.248.069.6.6,0,0,1,.185.139c.167.421-.4.446-.659.555l-.111-.04c-.274-.129-.315-.372-.514-.535C16.128,1.021,16.205.719,16.376.63ZM4.031,4.818c-.137-.064-.13-.2-.259-.268.048-.094.148-.074.181-.2a.449.449,0,0,1,.13.5ZM3.472,15.724H3.439c-.259-.119-.278-.357-.474-.5.034-.116.131-.173.218-.129a.734.734,0,0,1,.289.625ZM4.46,9.88H4.408c-.137-.064-.13-.2-.259-.268.048-.094.148-.074.181-.2A.455.455,0,0,1,4.46,9.88Zm.352-1.844c.044-.238.211-.208.248-.461.192.228.17.659-.181.5Zm.426-2.667h0c.078.035.122.159.159.278s.07.233.118.253.059,0,.1-.069c.278.5-.348.689-.659.555.244-.436.037-.9.278-1.016ZM2.961,11.193l.185.069c.551.253.74.8.389,1.2,0-.382-.555-.461-.707-.758Zm.2-4.779.348.159c-.107.213-.178.5-.429.382H3.028Z"
                  transform="translate(-0.002)" fill="#ff1e60"/>
            <path id="Path_7174"
                  d="M23.62,116.109c.3.04.625.079.922.109-.084-.094-.173-.188-.268-.278a1.89,1.89,0,0,0-.654.169Z"
                  transform="translate(-11.912 -58.466)" fill="#ff1e60"/>
            <path id="Path_7175"
                  d="M175.37,19.532a2.79,2.79,0,0,1,.377.094,2.156,2.156,0,0,1,1.17,1.016h.154l3.183-.149h.208a4.638,4.638,0,0,1-.134-.991h-.04l-3.118-.248c-.322-.025-.768-.045-1.19-.045A1.3,1.3,0,0,1,175.37,19.532Z"
                  transform="translate(-111.127 -9.687)" fill="#ff1e60"/>
            <path id="Path_7176"
                  d="M190.862,21.332l2.112.322c.238.035.545.074.858.1a.168.168,0,0,1,0-.05c.04-.055.069-.064.094-.055a.238.238,0,0,1,.079.069.367.367,0,0,0,.064.059c.317.03.63.055.872.064h.218a1.487,1.487,0,0,1,.416-.991h0l-.6-.074c-.411-.045-1.021-.114-1.532-.164a.669.669,0,0,1-.129,1.066h-.055a.61.61,0,0,1-.4-.426.6.6,0,0,0-.4-.426h-.055a1.1,1.1,0,0,1,.218-.263l-.5-.045a.288.288,0,0,0,.159.129c-.084.124-.337,0-.4.149a.337.337,0,0,1-.223-.322l-1.15-.109C190.316,20.6,190.966,20.935,190.862,21.332Z"
                  transform="translate(-120.702 -10.272)" fill="#ff1e60"/>
            <path id="Path_7177"
                  d="M187.882,20.937a2.615,2.615,0,0,1,.466.055l.912.139a3.069,3.069,0,0,1-.714-1.031h-.164l-.872-.1A8.57,8.57,0,0,0,187.882,20.937Z"
                  transform="translate(-118.358 -10.086)" fill="#ff1e60"/>
            <path id="Path_7178"
                  d="M135.619,18l3.158.05c.545,0,1.438.055,1.983.1l3.143.258c.545.045,1.433.114,1.983.149l3.143.213c.5.04,1.329.134,1.869.223a.764.764,0,0,0,0-.585,12.5,12.5,0,0,1-1.849-.1l-3.133-.466a14.608,14.608,0,0,0-1.983-.139l-3.163.025c-.545,0-1.438,0-1.983-.05l-3.143-.183a16,16,0,0,1-1.591-.2,1.363,1.363,0,0,1-.3.58C134.285,17.934,135.1,17.989,135.619,18Z"
                  transform="translate(-86.06 -8.719)" fill="#ff1e60"/>
            <path id="Path_7179"
                  d="M27.361,104.737a.564.564,0,0,1-.074-.114L25.2,104.47a8.144,8.144,0,0,1-1.735-.377l-.174-.064-.5-.188a1.174,1.174,0,0,0,.045.178l.421.178.248.094a7.929,7.929,0,0,0,1.656.367l2.543.2a1.033,1.033,0,0,0-.149-.069A1.694,1.694,0,0,0,27.361,104.737Z"
                  transform="translate(-11.498 -52.364)" fill="#ff1e60"/>
            <path id="Path_7180" d="M130.4,16.494a.1.1,0,0,0,0-.035l-.149-.03a.5.5,0,0,0,.114.055Z"
                  transform="translate(-82.066 -8.285)" fill="#ff1e60"/>
            <path id="Path_7181"
                  d="M169,20.053l2.91.5.372.05c-.357-.258-.719-.5-1.051-.783.2-.248,0-.357,0-.525l-1.785.084A.917.917,0,0,0,169,20.053Zm.952-.53.307.109c-.03.084-.055.169-.084.253l-.312-.1Z"
                  transform="translate(-106.863 -9.728)" fill="#ff1e60"/>
            <path id="Path_7182"
                  d="M241.35,25.127l2.895.134c.54.025,1.428.114,1.983.2l.243.04c.114-.114.233-.213.342-.332.124.129.283.3.466.461l1.091.169a.9.9,0,0,1,.074-.352,1.254,1.254,0,0,1,.223.4l.694.109c.535.084,1.423.174,1.983.2l2.751.114a.536.536,0,0,1,.466-.045l.124.055h.04c.337-.5-.292-.6-.54-.868l-.674-.064c-.119.258-.347.347-.426.669a3.431,3.431,0,0,1-1.041-.783l-.674-.064c-.545-.05-1.433-.144-1.983-.2l-1.765-.228a.674.674,0,0,1-.045.114.347.347,0,0,1-.243,0,.391.391,0,0,1-.2-.178l-.664-.074a.595.595,0,0,1-.853.426c-.089-.183.025-.372.223-.5-.5-.035-1.145-.059-1.571-.05l-2.632.05A.9.9,0,0,0,241.35,25.127Z"
                  transform="translate(-154.53 -12.343)" fill="#ff1e60"/>
            <path id="Path_7183"
                  d="M84.584,108.772v-.045a6.91,6.91,0,0,1-.991-.045l-3.143-.218c-.545-.035-1.433-.124-1.983-.2l-3.133-.416c-.54-.069-1.428-.134-1.983-.139l-3.163-.035a13.713,13.713,0,0,1-1.983-.188l-.416-.074a1.486,1.486,0,0,1-.05.451,1.086,1.086,0,0,1-.61-.57l-2.057-.377a10,10,0,0,0-1.983-.119L59.9,107a10.014,10.014,0,0,1-1.983-.109l-3-.555-.312-.05h-.035l-.069-.03c-.5-.079-1.125-.164-1.547-.2l-3.138-.312-1.983-.2-3.133-.322a13.881,13.881,0,0,0-1.983-.045l-1.646.1a1.358,1.358,0,0,1,.347.9l1.224.228a10.445,10.445,0,0,0,1.061.134,3.256,3.256,0,0,1-.744-.664.307.307,0,0,1,.292-.03.808.808,0,0,1,.5.7h.228a.734.734,0,0,1,0-.183,2.738,2.738,0,0,1,.451.2h1.755a1.781,1.781,0,0,1,.064-.258.552.552,0,0,1,.119,0,.228.228,0,0,1,.169.228h1.224c.545,0,1.433,0,1.983.059l3.148.233c.54.04,1.428.139,1.983.218l.193.03a1.066,1.066,0,0,1-.05-.63c.461.2.6.5.947.758h0l2.042.3c.54.079,1.423.2,1.983.258l3.138.357.3.03.03-.094a.342.342,0,0,1,.149,0,.2.2,0,0,1,.119.1c.5.035.991.059,1.383.059h4.04a.932.932,0,0,1,.431-.5H69.6a.446.446,0,0,1,.347.5h.273l3.168-.04c.545,0,1.438,0,1.983.055l3.143.213c.545.04,1.433.129,1.983.2l3.133.411c.431.059,1.081.109,1.606.134a.659.659,0,0,0-.392-.392A1.327,1.327,0,0,0,84.584,108.772Zm-42.741-2.85a.188.188,0,0,1-.119-.183c0-.069.04-.124.119-.1a.6.6,0,0,1,.243.238A.312.312,0,0,1,41.843,105.922Zm2.146-.119-.059.1Zm.069-.124.055-.1Zm13.474,1.685a.575.575,0,0,1-.193.055s0-.04.134-.109a.59.59,0,0,1,.183,0A.656.656,0,0,1,57.533,107.364Z"
                  transform="translate(-20.712 -53.028)" fill="#ff1e60"/>
            <path id="Path_7184"
                  d="M199.551,27.362c.307.03.6.055.838.084l3.133.372c.545.064,1.433.154,1.983.208l1.983.183a.8.8,0,0,1,.089-.258.645.645,0,0,1,.159.03c.139.045.134.149.094.263l.813.074c.545.055,1.433.129,1.983.174h.243l2.89.238a18.839,18.839,0,0,0,1.983.035l3.182-.149a12.5,12.5,0,0,1,1.983.1l3.133.471a16.27,16.27,0,0,0,1.983.139l3.168-.03a5.949,5.949,0,0,1,1.715.3l.188.074,2.583,1.076a2.211,2.211,0,0,1,1.145,1.348l.595,2.479a9.244,9.244,0,0,1,.213,1.953l-.059,3.009c0,.545-.059,1.433-.109,1.983l-.268,2.974c-.05.545-.079,1.433-.069,1.983l.05,3.019a11.838,11.838,0,0,1-.164,1.983l-.555,2.974a10.409,10.409,0,0,0-.139,1.983l.134,3.029c.025.545,0,1.433-.025,1.983l-.2,2.974c-.035.545-.1,1.433-.154,1.983l-.273,2.974a5.1,5.1,0,0,1-.6,1.834l-1.334,2.176a2.677,2.677,0,0,1-.967.853.367.367,0,0,1,.134.461c-.377-.03-.788-.089-1.165-.149l-1.928.416a17.431,17.431,0,0,1-1.958.292l-3.2.263h-.243a.382.382,0,0,0,0,.248l-.114-.03a.337.337,0,0,1-.238-.213,10.346,10.346,0,0,1-1.383-.1l-3.138-.5c-.535-.084-1.423-.188-1.983-.233l-3.143-.233c-.54-.04-1.433-.064-1.983-.05l-3.178.079c-.545,0-1.438,0-1.983-.04l-3.148-.2c-.545-.035-1.433-.109-1.983-.164l-3.133-.317c-.545-.055-1.423-.193-1.958-.307l-3.133-.684a8.076,8.076,0,0,0-1.953-.144l-3.2.213a13.1,13.1,0,0,1-1.983-.04l-3.138-.347c-.54-.059-1.433-.114-1.983-.119h-3.163c-.545,0-1.433-.035-1.983-.064l-3.148-.178c-.545-.03-1.438-.089-1.983-.134l-3.143-.248c-.545-.045-1.428-.159-1.983-.263l-3.083-.615a12.507,12.507,0,0,0-1.983-.169l-3.168.045c-.545,0-1.438,0-1.983-.059l-1.229-.094a.466.466,0,0,1-.342.183c-.1-.069-.139-.139-.129-.218l-1.443-.1c-.54-.04-1.428-.139-1.983-.218l-3.128-.466c-.54-.084-1.428-.2-1.983-.258l-3.138-.357-.585-.055a.739.739,0,0,1-.312.892c-.3-.218-.248-.565-.183-.922-.327,0-.644-.03-.892-.03H133.67l-3.168.045h-.045c-.069.159-.188.317-.258.5h.292l3.163.035a13.845,13.845,0,0,1,1.983.188h.074a1.394,1.394,0,0,0,.025-.263.947.947,0,0,1,.372.332l2.657.5a9.677,9.677,0,0,0,1.983.114l3.187-.193a10.068,10.068,0,0,1,1.983.109l3.128.55c.54.1,1.423.218,1.983.273l3.138.312h.064a.575.575,0,0,1,.069-.62,1.861,1.861,0,0,1,.288.074,1.378,1.378,0,0,1,.7.555.758.758,0,0,0-.094.084l.942.1.317.03a.466.466,0,0,1,.05-.228l.074.025a.4.4,0,0,1,.3.248l2.4.248a14.571,14.571,0,0,0,1.983.045l3.192-.193a18.812,18.812,0,0,1,1.983,0l3.138.233c.545.045,1.438.094,1.983.114l3.148.124c.545,0,1.433.094,1.983.159l3.133.387.243.03a.832.832,0,0,1,.074-.317,1.235,1.235,0,0,1,.387.357c.446.04.927.069,1.274.074l3.153.074a12.356,12.356,0,0,1,1.958.238l3.133.679a10.908,10.908,0,0,0,1.983.213h3.163c.545,0,1.433.05,1.983.109l3.133.327c.545.055,1.433.139,1.983.178l3.138.243a18.9,18.9,0,0,0,1.983.035l3.178-.144c.545-.025,1.438-.025,1.983,0l3.148.154a12.359,12.359,0,0,1,1.953.278l3.133.749a10,10,0,0,0,1.958.218h3.163a8.559,8.559,0,0,0,1.943-.288l2.726-.8a.754.754,0,0,1,.426-.5l.451.164a2.766,2.766,0,0,0,.991-.962l1.487-2.746a6.856,6.856,0,0,0,.63-1.849l.461-2.974c.084-.54.2-1.423.268-1.983l.357-2.974c.064-.54.129-1.428.149-1.983l.1-2.974c0-.545.035-1.438.03-1.983l-.079-3.029a16.42,16.42,0,0,1,.124-1.983l.416-2.974c.074-.54.164-1.428.2-1.983l.2-2.974c.04-.545.054-1.438.04-1.983l-.079-3.019a7.437,7.437,0,0,0-.352-1.923l-1.036-2.945a2.389,2.389,0,0,0-1.254-1.284l-3.029-1.13-.1-.04a8.873,8.873,0,0,0-1.814-.392l-3.143-.258-1.983-.149-3.148-.213c-.545-.04-1.428-.144-1.983-.238l-3.133-.535a10.906,10.906,0,0,0-1.983-.124h-.426a.615.615,0,0,1,.337.4.62.62,0,0,0,.4.426h.054a.5.5,0,0,1-.555.1c-.451-.154-.877-.689-.461-.932l-2.528.119a12.5,12.5,0,0,1-1.983-.1l-3.133-.5c-.535-.079-1.423-.169-1.983-.193l-3.153-.139-1.363-.089C199.343,26.827,199.839,27.055,199.551,27.362ZM138.528,69.474l-.312-.1.089-.258.307.1A.633.633,0,0,1,138.528,69.474ZM189.587,73.6l-.312-.109c.03-.223.223-.169.288-.332l.307.109C189.855,73.489,189.662,73.439,189.587,73.6Zm.382-.53c-.124-.04-.223-.183.079-.317.233.3.064.367-.069.317ZM236.21,34.962h0c.461.159.223.58.193.927l-.169-.05c-.6-.188-.208-.486-.015-.877Z"
                  transform="translate(-110.679 -13.343)" fill="#ff1e60"/>
            <path id="Path_7185" d="M202.861,23.37l-.079-.03a.307.307,0,0,0-.342.055l.535.025Z"
                  transform="translate(-127.606 -11.755)" fill="#ff1e60"/>
            <path id="Path_7186" d="M269.227,27.992c-.089-.03-.188.025-.3.119l.441.035A.273.273,0,0,0,269.227,27.992Z"
                  transform="translate(-169.499 -14.112)" fill="#ff1e60"/>
            <path id="Path_7187"
                  d="M37.961,105.44l-1.408.084H35.19a1.487,1.487,0,0,0,.233.268c.4.055.8.114,1.105.169l1.329.253C38.1,106.025,37.9,105.876,37.961,105.44Z"
                  transform="translate(-17.747 -53.171)" fill="#ff1e60"/>
            <path id="Path_7188" d="M332.611,122.9a2.23,2.23,0,0,1-.446.164h.01a.322.322,0,0,0,.436-.164Z"
                  transform="translate(-212.508 -61.976)" fill="#ff1e60"/>
            <path id="Path_7189"
                  d="M16.358,17.06c.213.074.268.2.421.3l.035-.753a3.529,3.529,0,0,1,.679-1.755l1.725-2.087a4.357,4.357,0,0,1,1.562-1.115l2.384-.872a5.85,5.85,0,0,1,1.918-.288l3.153.159,1.983.094,3.153.129a16.863,16.863,0,0,1,1.983.188l3.133.5c.54.079,1.423.2,1.983.263l3.138.367c.545.064,1.433.134,1.983.154l1.715.059c-.109-.377.213-.917-.372-1.12a.907.907,0,0,0-.2-.045.644.644,0,0,0,.1-.183h-.555a1.16,1.16,0,0,0-.1.253.352.352,0,0,1-.213-.243H44.565c-.154.064-.278.159-.183.461h-.04c-.183-.064-.233-.258-.193-.461h-.5L40.5,10.849c-.54-.04-1.433-.109-1.983-.159l-3.143-.283L33.4,10.224l-3.138-.292c-.545-.05-1.433-.144-1.983-.208l-3.133-.377a4.4,4.4,0,0,0-1.894.273l-3.113,1.333a4.11,4.11,0,0,0-1.487,1.2L16.839,14.75a4.263,4.263,0,0,0-.639,1.8l-.04.5h.03A.809.809,0,0,1,16.358,17.06Zm21.594-6.008c-.074.144-.317,0-.5-.03C37.521,10.879,37.763,11.013,37.952,11.052Z"
                  transform="translate(-8.15 -4.707)" fill="#ff1e60"/>
            <path id="Path_7190"
                  d="M114.52,15.507a.625.625,0,0,1,.094.858h1.046l2.33-.055a2.855,2.855,0,0,1-1.056-.942c.114-.193.382-.134.59-.169h-.932a.937.937,0,0,1-.055.337,1.1,1.1,0,0,1-.6-.05l-.208-.089a1.892,1.892,0,0,0-.03-.218l-.709-.03-.094.1A.937.937,0,0,1,114.52,15.507Z"
                  transform="translate(-72.43 -7.64)" fill="#ff1e60"/>
            <path id="Path_7191"
                  d="M235.352,25.095c.54,0,1.433,0,1.983.025a4.118,4.118,0,0,0-.178-.545c-.545,0-1.3,0-1.78-.03l-1.487-.064a4.642,4.642,0,0,0,.228.635Z"
                  transform="translate(-147.923 -12.345)" fill="#ff1e60"/>
            <path id="Path_7192"
                  d="M79.786,13.279a.992.992,0,0,0,.243.055,2.165,2.165,0,0,1-.387.7l.991.04h.208c-.278-.139-.059-.461.035-.739h.035c.377.134.307.431.223.734h1.408a.694.694,0,0,1,.6,0H85.78a17.582,17.582,0,0,1,1.983.124l3.133.431c.54.074,1.428.164,1.983.2l2.34.154V14.91l.174-.059c.2-.069.337-.278.4-.635l.045-.253a1.555,1.555,0,0,1-.193-.238l-2.667-.238c-.545-.05-1.438-.084-1.983-.074h-.347a.525.525,0,0,1-.253.461c-.059-.154-.119-.307-.193-.456h-.937c.273.183.575.362.535.664h-.04a.654.654,0,0,1-.233-.154.625.625,0,0,0-.263-.154H89.2c-.169.03-.248.208-.5.129l-.035-.055c-.149-.233-.055-.332.084-.416h-.3a.431.431,0,0,1-.045.178l-.109-.045-.188-.059-.208-.064h-.079a11.937,11.937,0,0,1-1.983-.164l-3.118-.565h0a.649.649,0,0,1,.084.689,2.419,2.419,0,0,1-.58-.758c-.377-.045-.8-.069-1.165-.074a.416.416,0,0,1-.183.317,1.254,1.254,0,0,1-.352-.3l-.991.04C79.474,12.9,79.449,13.145,79.786,13.279Zm5.359.243c.332.387-.312.585-.7.451a.367.367,0,0,1-.243-.208c.258-.2.689-.084.947-.263Zm-1.854-.639a.149.149,0,0,1,.114.164.63.63,0,0,1-.248,0,.1.1,0,0,1-.059-.124.154.154,0,0,1,.193-.04Z"
                  transform="translate(-51.093 -6.339)" fill="#ff1e60"/>
            <path id="Path_7193"
                  d="M15.092,93.82h-.055a1.488,1.488,0,0,1-.169-.035v-.064a2.558,2.558,0,0,1-.991-1.18l-.947-2.692a6.7,6.7,0,0,1-.3-1.928l.05-2.052a.992.992,0,0,1-.243-.02.992.992,0,0,1-.268-.149h-.03l-.248,2.216a4.065,4.065,0,0,0,.312,1.879L13.54,92.63a3.044,3.044,0,0,0,1.373,1.234l1.859.768a1.359,1.359,0,0,1,.025-.139Z"
                  transform="translate(-5.991 -43.217)" fill="#ff1e60"/>
            <path id="Path_7194"
                  d="M12.865,55.331a11.932,11.932,0,0,1,.238-1.983l.664-2.974a11.273,11.273,0,0,0,.213-1.983V45.416a.114.114,0,0,1-.035-.109l.035-.035c0-.55.05-1.353.1-1.854l.094-.877c-.411-.139-.292-.5-.6-.659a.352.352,0,0,1,.431-.124.768.768,0,0,1,.238.139L14.4,40.41c.055-.545.139-1.433.178-1.983l.233-2.974c.04-.545.055-1.438.03-1.983L14.7,30.49c-.025-.545-.025-1.438,0-1.983l.055-1.16a.426.426,0,0,1-.258,0h-.035a.823.823,0,0,1-.327-.307l-.109,1.452c-.04.545-.059,1.438-.045,1.983l.084,3.024c0,.545,0,1.438-.035,1.983l-.193,2.974c-.04.545-.114,1.433-.169,1.983L13.4,43.166a.6.6,0,0,1,.139-.1,1.1,1.1,0,0,1,.074,1.309.689.689,0,0,1-.317-.288c-.064.451-.154.947-.228,1.294L12.4,48.351a8.12,8.12,0,0,0-.149,1.983l.223,3.039a13.1,13.1,0,0,1-.04,1.983l-.035.307A1.427,1.427,0,0,1,12.86,56ZM12.7,48.475c-.1-.749.7-1.229.813-1.864C14.685,47.384,12.964,47.736,12.7,48.475Zm.729.4-.312-.1.089-.258.307.1C13.48,48.7,13.455,48.787,13.425,48.871Z"
                  transform="translate(-6.174 -13.636)" fill="#ff1e60"/>
            <path id="Path_7195"
                  d="M121.178,15.791c.352.079.431-.288.813-.154a.351.351,0,0,1,.089.04,2.047,2.047,0,0,1,0,.719h.059a15.5,15.5,0,0,1,1.983.1l1.79.218a1.551,1.551,0,0,1-.754-.932l-.991-.218h-.084a1.235,1.235,0,0,1,.208.744c-.248-.253-.635-.451-.585-.813a13.537,13.537,0,0,0-1.487-.144h-.8C121.208,15.434,120.97,15.459,121.178,15.791Z"
                  transform="translate(-76.711 -7.741)" fill="#ff1e60"/>
            <path id="Path_7196"
                  d="M16.765,25.741v-.283c-.05.069-.213.064-.362,0a.535.535,0,0,1-.243-.149v.164l.2.055a1.938,1.938,0,0,1,.406.213Z"
                  transform="translate(-8.15 -12.763)" fill="#ff1e60"/>
            <path id="Path_7197"
                  d="M204.459,22.384l-.119.243h.5l-.1-.069c.164-.466.9,0,.927-.684a.764.764,0,0,1,.144.035c.317.109,0,.327-.124.4a2.225,2.225,0,0,1,.451.392l.937.079,2.246.218a.9.9,0,0,1,0-.288l.114.035a.788.788,0,0,1,.421.3l.332.035,1.2.124a.624.624,0,0,1,.312-.392h0a2.053,2.053,0,0,1,.347.169,1.413,1.413,0,0,0,.278.149c.149.055.268,0,.367-.263a.63.63,0,0,1,.382.5l.406.045a2.957,2.957,0,0,0-.213-.218c.094-.149.183-.173.283-.139a1.186,1.186,0,0,1,.253.149,1.517,1.517,0,0,0,.347.178,1.19,1.19,0,0,0,.238.055.091.091,0,0,1-.025.074l.907.1a18.8,18.8,0,0,0,1.983.094h.818c-.094-.243-.169-.5-.263-.714l-.525-.025c-.545-.025-1.433-.114-1.983-.2l-3.133-.5c-.54-.084-1.428-.174-1.983-.193l-3.148-.139c-.545-.025-1.433-.094-1.983-.159l-.669-.079a.679.679,0,0,1,.084.684Zm3.331-.183a.392.392,0,0,1,.178.5,1.066,1.066,0,0,1-.213-.045C207.428,22.533,207.547,22.295,207.79,22.2Z"
                  transform="translate(-130.876 -10.943)" fill="#ff1e60"/>
        </g>
        <path id="Path_7560"
              d="M-83.51-1.94a6.971,6.971,0,0,1,.25-1.845,8.115,8.115,0,0,1,.705-1.75,8.2,8.2,0,0,1,1.1-1.55A7.3,7.3,0,0,1-80.03-8.32a7.148,7.148,0,0,1,1.7-.82,6.029,6.029,0,0,1,1.9-.3,6.689,6.689,0,0,1,.695.035,4.72,4.72,0,0,1,.685.125,5.479,5.479,0,0,1,.735.25q.385.16.845.4l-1.34,3.54a3.456,3.456,0,0,0-1.175-.32,4.041,4.041,0,0,0-1.17.07,4.216,4.216,0,0,0-1.1.395,4.809,4.809,0,0,0-.96.66,4.579,4.579,0,0,0-.76.865,3.7,3.7,0,0,0-.485,1.01,5.527,5.527,0,0,0,.97.325q.61.155,1.315.365t1.43.5a5.781,5.781,0,0,1,1.31.725A3.63,3.63,0,0,1-74.48.555a2.789,2.789,0,0,1,.37,1.465A4.9,4.9,0,0,1-74.5,4.035,5.142,5.142,0,0,1-75.57,5.59a6.339,6.339,0,0,1-1.56,1.135,10.3,10.3,0,0,1-1.88.755,12.918,12.918,0,0,1-2.025.42,15.941,15.941,0,0,1-1.985.13,11.058,11.058,0,0,1-3.265-.46,7.442,7.442,0,0,1-2.58-1.355A6.239,6.239,0,0,1-90.565,4,7.183,7.183,0,0,1-91.18.94,13.706,13.706,0,0,1-90.735-2.5,27.1,27.1,0,0,1-89.6-5.92l3.25,1.35q-.28.68-.535,1.345t-.45,1.335A13.225,13.225,0,0,0-87.65-.56,7.365,7.365,0,0,0-87.77.76a2.752,2.752,0,0,0,.41,1.55,3.026,3.026,0,0,0,1.08.99,4.964,4.964,0,0,0,1.525.525,9.707,9.707,0,0,0,1.735.155,15.5,15.5,0,0,0,3.585-.36A4.71,4.71,0,0,0-77.13,2.44l-1.78-.415q-.84-.195-1.55-.42a8.605,8.605,0,0,1-1.275-.51A3.518,3.518,0,0,1-82.695.4,2.776,2.776,0,0,1-83.3-.58,3.94,3.94,0,0,1-83.51-1.94Zm12.26-2.53A13.08,13.08,0,0,0-69.1-3.41a7.481,7.481,0,0,0,1.9.48,6.81,6.81,0,0,0,.73.02,3.687,3.687,0,0,0,.64-.07,1.958,1.958,0,0,0,.495-.165.6.6,0,0,0,.285-.275.786.786,0,0,0-.06-.7,4.266,4.266,0,0,0-.625-.915,12.457,12.457,0,0,0-1.005-1.03q-.58-.535-1.205-1.055t-1.23-.99q-.605-.47-1.065-.83l2.23-3.31q.77.58,1.515,1.21t1.42,1.305a16.335,16.335,0,0,1,1.25,1.4,10.349,10.349,0,0,1,1,1.5,7.847,7.847,0,0,1,.655,1.605,6.247,6.247,0,0,1,.235,1.71A4.805,4.805,0,0,1-62.3-1.65a4.209,4.209,0,0,1-1.01,1.465A4.564,4.564,0,0,1-64.9.77a6.172,6.172,0,0,1-2.11.34h-.16a.644.644,0,0,1-.08,0,.644.644,0,0,0-.08,0A8.089,8.089,0,0,1-68.77.97,9.5,9.5,0,0,1-70.185.6,12.473,12.473,0,0,1-71.56.03q-.68-.33-1.33-.73Zm9.79,8.65a20.865,20.865,0,0,0,2.28-.61A15.17,15.17,0,0,0-57.3,2.81a8.363,8.363,0,0,0,1.43-.87A4.086,4.086,0,0,0-54.95,1q-.15,0-.33,0T-55.635.98q-.175-.01-.33-.015T-56.22.95A7.4,7.4,0,0,1-58.16.54a4.478,4.478,0,0,1-1.49-.885,3.848,3.848,0,0,1-.96-1.375,4.8,4.8,0,0,1-.34-1.87,5.754,5.754,0,0,1,.165-1.34,7.435,7.435,0,0,1,.465-1.35,7.356,7.356,0,0,1,.715-1.24,6.007,6.007,0,0,1,.915-1.02,4.268,4.268,0,0,1,1.065-.695A2.8,2.8,0,0,1-56.46-9.49a3.5,3.5,0,0,1,1.57.36,4.825,4.825,0,0,1,1.325.97A6.954,6.954,0,0,1-52.51-6.745a10.407,10.407,0,0,1,.775,1.695,11.167,11.167,0,0,1,.475,1.805A10.193,10.193,0,0,1-51.1-1.49,8.542,8.542,0,0,1-51.445.985a8.222,8.222,0,0,1-.97,2.11,8.9,8.9,0,0,1-1.5,1.755,11.464,11.464,0,0,1-1.92,1.405A14.089,14.089,0,0,1-58.07,7.31a17.691,17.691,0,0,1-2.46.71Zm4.93-9.89a.875.875,0,0,0-.54.19,1.864,1.864,0,0,0-.435.475,2.562,2.562,0,0,0-.29.61,1.976,1.976,0,0,0-.1.6.413.413,0,0,0,.175.33,1.477,1.477,0,0,0,.465.235,4.384,4.384,0,0,0,.66.155q.37.06.755.09t.75.04q.365.01.655.01a4.165,4.165,0,0,0-.225-.95,3.743,3.743,0,0,0-.45-.885,2.621,2.621,0,0,0-.635-.65A1.322,1.322,0,0,0-56.53-5.71Zm11.75-1.21q.24.69.48,1.46t.435,1.55q.2.78.315,1.545A9.46,9.46,0,0,1-43.43-.9a7.445,7.445,0,0,1-.5,2.705,9.515,9.515,0,0,1-1.4,2.44,12.845,12.845,0,0,1-2.115,2.12A16.831,16.831,0,0,1-50.1,8.1l-2.43-3.12a20.572,20.572,0,0,0,2.07-1.265A14.252,14.252,0,0,0-48.675,2.26,8.019,8.019,0,0,0-47.4.7a3.545,3.545,0,0,0,.55-1.58q-.17-.57-.365-1.15t-.4-1.14q-.205-.56-.415-1.09t-.4-.99Zm-2.03-1.77-2.22-2.22,2.22-2.22,2.22,2.22ZM-30.75-.4a8.692,8.692,0,0,1-2-.22,4.873,4.873,0,0,1-1.63-.69,3.405,3.405,0,0,1-1.095-1.2,3.569,3.569,0,0,1-.4-1.74,3.7,3.7,0,0,1,.24-1.33A5.274,5.274,0,0,1-35-6.765a6.4,6.4,0,0,1,.9-1.02,9.969,9.969,0,0,1,1.045-.835A10.774,10.774,0,0,1-32-9.265q.515-.275.925-.445l-.15-1.22,3.9-.83q.22,1.96.415,3.515t.345,2.64q.15,1.085.245,1.675t.115.63a.483.483,0,0,0,.3.27,1.947,1.947,0,0,0,.59.07h.22V1h-.29A6.023,6.023,0,0,1-27.535.64,3.094,3.094,0,0,1-29.02-.5q-.45.05-.88.075T-30.75-.4Zm-2.13-4.01q.02.1.295.205a3.481,3.481,0,0,0,.675.17,5.727,5.727,0,0,0,.855.07,3.032,3.032,0,0,0,.825-.1l-.36-2.42a4.078,4.078,0,0,0-.83.45,6.424,6.424,0,0,0-.75.6,4.367,4.367,0,0,0-.535.59A.63.63,0,0,0-32.88-4.41Zm16.86,1.45V1h-9.47V-2.96Zm9.07,0V1h-9.47V-2.96Zm-.4,0h1.24q.36,0,.815-.045a4.689,4.689,0,0,0,.85-.16,2.393,2.393,0,0,0,.67-.3A.546.546,0,0,0-3.5-3.93a1.978,1.978,0,0,0-.165-.635q-.165-.425-.425-.98T-4.66-6.73l-.61-1.24,3.58-1.77q.3.69.585,1.44T-.6-6.8A14.858,14.858,0,0,1-.245-5.32,7.554,7.554,0,0,1-.11-3.95,5.342,5.342,0,0,1-.54-1.705,4.061,4.061,0,0,1-1.74-.17,5.08,5.08,0,0,1-3.585.715,9.217,9.217,0,0,1-5.95,1h-1.4Zm3.23,9.04L-6.34,3.86l2.22-2.22L-1.9,3.86Z"
              transform="matrix(0.995, 0.105, -0.105, 0.995, 802.368, 1699.616)" fill="#ff1e60"/>
    </g>
</svg>
