<svg xmlns="http://www.w3.org/2000/svg"  viewBox="0 0 24 24"><g transform="translate(-492 -252)"><path d="M9.75,21.49a2.749,2.749,0,0,1-1.94-.8L6.1,19a2.256,2.256,0,0,0-1.59-.65H3.75A3.739,3.739,0,0,1,0,14.63V3.72A3.739,3.739,0,0,1,3.75,0h12A3.739,3.739,0,0,1,19.5,3.72V14.63a3.739,3.739,0,0,1-3.75,3.72h-.76A2.238,2.238,0,0,0,13.4,19l-1.71,1.69A2.749,2.749,0,0,1,9.75,21.49Zm-6-20A2.241,2.241,0,0,0,1.5,3.71V14.62a2.234,2.234,0,0,0,2.25,2.22h.76a3.754,3.754,0,0,1,2.65,1.09l1.71,1.69a1.268,1.268,0,0,0,1.77,0l1.71-1.69A3.754,3.754,0,0,1,15,16.84h.75A2.241,2.241,0,0,0,18,14.62V3.71a2.234,2.234,0,0,0-2.25-2.22Z" transform="translate(494.25 253.26)" fill="#657786"/><path d="M4.14,7.8H1.46A1.365,1.365,0,0,1,.35,7.23,1.3,1.3,0,0,1,.16,6.07,4.375,4.375,0,0,1,2.13,3.9c.8-.54,1.25-.88,1.25-1.46a.94.94,0,1,0-1.88,0,.755.755,0,0,1-.75.75A.755.755,0,0,1,0,2.44a2.44,2.44,0,1,1,4.88,0c0,1.41-1.06,2.13-1.91,2.71A3.916,3.916,0,0,0,1.69,6.3H4.13a.755.755,0,0,1,.75.75A.747.747,0,0,1,4.14,7.8Z" transform="translate(498.24 258.71)" fill="#657786"/><path d="M4.1,7.79a.755.755,0,0,1-.75-.75V6.35H1.378a1.385,1.385,0,0,1-1.19-.68,1.363,1.363,0,0,1,0-1.38c.68-1.17,1.47-2.5,2.19-3.66a1.329,1.329,0,0,1,2.46.71V4.86h.22a.75.75,0,0,1,0,1.5h-.21v.69A.741.741,0,0,1,4.1,7.79Zm-.75-5.87c-.59.96-1.2,1.99-1.75,2.93h1.75Z" transform="translate(503.942 258.72)" fill="#657786"/><path d="M0,0H24V24H0Z" transform="translate(492 252)" fill="none" opacity="0"/></g></svg>