<svg xmlns="http://www.w3.org/2000/svg" width="20.312" height="16.909" viewBox="0 0 20.312 16.909">
    <path d="M4.447,16.269c6.25-2.75,14.339-6.1,15.455-6.566,2.929-1.214,3.827-.982,3.379,1.708-.322,1.933-1.25,8.333-1.99,12.317-.439,2.362-1.424,2.642-2.974,1.62-.745-.492-4.505-2.978-5.321-3.562-.745-.532-1.772-1.172-.484-2.433.459-.449,3.464-3.319,5.806-5.553a.347.347,0,0,0-.433-.54c-3.157,2.093-7.533,5-8.09,5.377a3.24,3.24,0,0,1-3.1.417c-1.1-.315-2.167-.69-2.584-.834C2.507,17.669,2.888,16.955,4.447,16.269Z"
          transform="translate(-3.078 -9)" fill="#aab8c2"/>
</svg>