<svg xmlns="http://www.w3.org/2000/svg" viewBox="0 0 14.022 11.672">
    <path d="M4.023,14.018c4.315-1.9,9.9-4.212,10.669-4.533,2.022-.838,2.642-.678,2.333,1.179-.222,1.334-.863,5.752-1.374,8.5-.3,1.631-.983,1.824-2.053,1.118-.514-.34-3.11-2.056-3.673-2.459-.514-.367-1.224-.809-.334-1.679.317-.31,2.391-2.291,4.008-3.833a.24.24,0,0,0-.3-.373c-2.179,1.445-5.2,3.451-5.585,3.712a2.237,2.237,0,0,1-2.14.288c-.757-.217-1.5-.477-1.783-.575C2.684,14.984,2.947,14.491,4.023,14.018Z"
          transform="translate(-3.078 -9)" fill="#1da1f2"/>
</svg>