<svg xmlns="http://www.w3.org/2000/svg" width="38.003" height="18.854" viewBox="0 0 38.003 18.854">
    <g id="hezarT" transform="translate(-0.725 -10.121)">
        <path id="Path_7558"
              d="M-15.96.313A3.088,3.088,0,0,1-17.066.138a1.952,1.952,0,0,1-.741-.483,1.835,1.835,0,0,1-.415-.728,3.113,3.113,0,0,1-.128-.91q0-.25.01-.623t.01-.863q0-.49-.005-1.077t-.029-1.177q-.023-.59-.068-1.132a8.721,8.721,0,0,0-.123-.944l1.56-.475q.068.344.112.811t.07.978q.026.511.039,1.028t.018.96q.005.391-.013.822t-.029.824q-.01.394.008.712a1.37,1.37,0,0,0,.1.485.467.467,0,0,0,.117.183.466.466,0,0,0,.164.094.761.761,0,0,0,.206.037q.112.005.248.005h.141V.313ZM-11.5.3a3.373,3.373,0,0,1-.647-.065A4.975,4.975,0,0,1-12.8.057,5.371,5.371,0,0,1-13.417-.2a4.661,4.661,0,0,1-.524-.295,2.043,2.043,0,0,1-.368.383,1.823,1.823,0,0,1-.417.248,1.99,1.99,0,0,1-.48.133,3.714,3.714,0,0,1-.556.039h-.261V-1.336h.261a1.108,1.108,0,0,0,.579-.141,1.4,1.4,0,0,0,.4-.363,2.842,2.842,0,0,0,.295-.49q.128-.269.263-.524.157-.318.352-.637a3.115,3.115,0,0,1,.451-.574,2.181,2.181,0,0,1,.577-.415,1.6,1.6,0,0,1,.723-.159,1.7,1.7,0,0,1,.942.253,2.093,2.093,0,0,1,.65.663,3.074,3.074,0,0,1,.378.929,4.536,4.536,0,0,1,.123,1.046,2.482,2.482,0,0,1-.13.819,2.277,2.277,0,0,1-.339.647,1.644,1.644,0,0,1-.472.425A1.041,1.041,0,0,1-11.5.3Zm-.668-3.344a.414.414,0,0,0-.282.117,1.524,1.524,0,0,0-.245.29,2.579,2.579,0,0,0-.206.376q-.091.2-.164.376a2.736,2.736,0,0,0,.391.2,4.255,4.255,0,0,0,.454.164q.235.07.475.117t.459.068a2.352,2.352,0,0,0-.031-.626,2.007,2.007,0,0,0-.18-.548,1.266,1.266,0,0,0-.295-.389A.563.563,0,0,0-12.167-3.047Zm2.473,5.431a9,9,0,0,0,1.341-.368,6.23,6.23,0,0,0,1.062-.5A3.728,3.728,0,0,0-6.535.939,1.916,1.916,0,0,0-6.11.313q-.224,0-.475-.008T-7,.287a3.579,3.579,0,0,1-.939-.2,2.257,2.257,0,0,1-.728-.423,1.825,1.825,0,0,1-.472-.655A2.217,2.217,0,0,1-9.3-1.873a3.272,3.272,0,0,1,.068-.652,3.749,3.749,0,0,1,.2-.652,3.194,3.194,0,0,1,.318-.6,2.641,2.641,0,0,1,.43-.5,1.912,1.912,0,0,1,.53-.337,1.582,1.582,0,0,1,.623-.123,1.831,1.831,0,0,1,.73.143,2.3,2.3,0,0,1,.613.389,2.8,2.8,0,0,1,.5.577,4.442,4.442,0,0,1,.376.71,5.435,5.435,0,0,1,.261.783,5.767,5.767,0,0,1,.143.8h.224V.313h-.334a4.233,4.233,0,0,1-.65,1.39A4.944,4.944,0,0,1-6.344,2.791a6,6,0,0,1-1.38.767,7.169,7.169,0,0,1-1.583.428Zm2.557-5.463A.34.34,0,0,0-7.388-3a1.091,1.091,0,0,0-.261.261,1.79,1.79,0,0,0-.2.363A.912.912,0,0,0-7.93-2a.425.425,0,0,0,.115.292.864.864,0,0,0,.282.19,1.644,1.644,0,0,0,.389.112q.217.037.43.052t.4.016h.323a6.008,6.008,0,0,0-.185-.621,3.017,3.017,0,0,0-.248-.532,1.644,1.644,0,0,0-.318-.391A.825.825,0,0,0-7.137-3.078ZM-4.5-1.336H-3.25q.224,0,.5-.023a2.442,2.442,0,0,0,.509-.1,1.038,1.038,0,0,0,.4-.217A.485.485,0,0,0-1.69-2.05a1.416,1.416,0,0,0-.076-.373q-.076-.248-.2-.553t-.277-.639q-.154-.334-.305-.637l1.492-.741q.146.329.29.7t.258.751a7.194,7.194,0,0,1,.185.759,3.95,3.95,0,0,1,.07.723,2.335,2.335,0,0,1-.237,1.1,2.043,2.043,0,0,1-.644.736,2.732,2.732,0,0,1-.955.412A5.157,5.157,0,0,1-3.261.313H-4.5Zm2.431-5.379-.981.981L-4.064-6.741l1-1.007.991.991.981-.981L-.078-6.73l-1,1.007Z"
              transform="translate(19.278 24.989)" fill="#13171a"/>
        <path id="Path_7559"
              d="M-4.205,3.908a5.466,5.466,0,0,1-1.633-.23A3.461,3.461,0,0,1-7.1,2.992a3.082,3.082,0,0,1-.814-1.137A4.02,4.02,0,0,1-8.2.271a5.667,5.667,0,0,1,.274-1.727,6.935,6.935,0,0,1,.811-1.685l1.174.845a2.994,2.994,0,0,0-.245.423,6.046,6.046,0,0,0-.271.642,6.043,6.043,0,0,0-.219.764,3.638,3.638,0,0,0-.089.78,1.575,1.575,0,0,0,.2.783,1.954,1.954,0,0,0,.522.6,2.526,2.526,0,0,0,.751.391,3.014,3.014,0,0,0,.884.151A3.444,3.444,0,0,0-3.35,2.095a2.952,2.952,0,0,0,.895-.433A2.115,2.115,0,0,0-1.852,1a1.5,1.5,0,0,0,.2-.832,2.5,2.5,0,0,0-.083-.506q-.073-.282-.175-.577T-2.137-1.5q-.123-.29-.23-.53t-.185-.412q-.078-.172-.1-.235l1.419-.788a1.243,1.243,0,0,1,.1.2q.083.183.2.472t.24.66q.128.37.232.767t.175.788a4.087,4.087,0,0,1,.07.72,4.155,4.155,0,0,1-.1.923,3.7,3.7,0,0,1-.321.879,3.591,3.591,0,0,1-.543.777,3.347,3.347,0,0,1-.77.621,3.918,3.918,0,0,1-1.007.412A4.884,4.884,0,0,1-4.205,3.908Zm.037-6.277L-5.327-3.527l1.158-1.158L-3.01-3.527Z"
              transform="translate(12 14.807)" fill="#13171a"/>
        <path id="Path_7557"
              d="M-15.887-3.511q.11.323.232.707t.224.785q.1.4.17.8a4.482,4.482,0,0,1,.068.749,3.477,3.477,0,0,1-.133.957,4.294,4.294,0,0,1-.376.905,5.421,5.421,0,0,1-.577.84,6.768,6.768,0,0,1-.741.759,7.865,7.865,0,0,1-.871.663,9.063,9.063,0,0,1-.96.55l-.95-1.32q.376-.188.759-.425a8.759,8.759,0,0,0,.736-.509,7.494,7.494,0,0,0,.657-.569,4.95,4.95,0,0,0,.532-.605,2.955,2.955,0,0,0,.357-.623,1.612,1.612,0,0,0,.13-.618,2.086,2.086,0,0,0-.06-.475,5.265,5.265,0,0,0-.164-.55q-.1-.295-.243-.626t-.3-.707Zm1.654,3.84q.026-.428.052-.887t.044-.908q.018-.449.023-.871t-.01-.777q-.031-.741-.06-1.3t-.057-.994q-.029-.433-.057-.759t-.06-.6q-.031-.271-.068-.509t-.078-.493l1.612-.532q.115.7.185,1.409t.107,1.359q.037.65.05,1.208t.013.955q0,.36,0,.777t-.01.866q-.008.449-.023.908t-.047.9ZM-7.925.313q-.115,0-.3-.016A1.461,1.461,0,0,1-8.656.183a4.04,4.04,0,0,1-.43,1.229,5.519,5.519,0,0,1-.78,1.09,6.816,6.816,0,0,1-1.059.937,9.445,9.445,0,0,1-1.268.767l-.955-1.32q.37-.188.746-.41t.717-.47a7.341,7.341,0,0,0,.637-.517,4.222,4.222,0,0,0,.514-.556A2.652,2.652,0,0,0-10.19.347a1.565,1.565,0,0,0,.125-.608,2.217,2.217,0,0,0-.078-.517q-.078-.313-.2-.673t-.266-.725q-.146-.365-.282-.668L-9.381-3.5a10.772,10.772,0,0,0,.4,1.043,4.171,4.171,0,0,0,.368.668,1.273,1.273,0,0,0,.342.352.616.616,0,0,0,.326.1h.125V.313Zm-2.2-4.842L-11.28-5.687l1.158-1.158,1.158,1.158Zm2.077,3.193h.323q.057,0,.133-.005l.188-.01.305-.016a2.689,2.689,0,0,1-.277-.665,2.753,2.753,0,0,1-.094-.712,2.771,2.771,0,0,1,.209-1.062,2.29,2.29,0,0,1,.631-.874L-6.9-4.831-5.89-6.313q.663.344,1.3.652t1.223.574q.5.23.879.4t.691.344a4.4,4.4,0,0,1,.553.357,3.018,3.018,0,0,1,.459.438,2.22,2.22,0,0,1,.391.751A2.781,2.781,0,0,1-.271-2a2.171,2.171,0,0,1-.3,1.1,2.437,2.437,0,0,1-.884.869,1.761,1.761,0,0,1-.4.162,4.7,4.7,0,0,1-.5.112q-.258.044-.509.065T-3.3.329q-.219,0-.475-.018T-4.286.253q-.258-.039-.5-.1A3.4,3.4,0,0,1-5.238.005,5.74,5.74,0,0,1-5.8.136q-.31.057-.652.1t-.7.06q-.357.021-.7.021h-.193Zm3.021-2.557a.507.507,0,0,0-.357.1,1.478,1.478,0,0,0-.347.323,1.72,1.72,0,0,0-.25.436.938.938,0,0,0-.073.441.663.663,0,0,0,.1.277,1.9,1.9,0,0,0,.211.274,1.757,1.757,0,0,0,.263.235,1.208,1.208,0,0,0,.261.149,1.563,1.563,0,0,0,.386-.094,1,1,0,0,0,.344-.219,1.084,1.084,0,0,0,.245-.376,1.491,1.491,0,0,0,.094-.563.671.671,0,0,0-.1-.339,1.522,1.522,0,0,0-.232-.305,1.424,1.424,0,0,0-.29-.23A.752.752,0,0,0-5.024-3.892Zm2.254.762a2.615,2.615,0,0,1-.052.519,3.638,3.638,0,0,1-.141.506,4.1,4.1,0,0,1-.2.47,3.962,3.962,0,0,1-.237.41h.047q.386,0,.7-.029A2.181,2.181,0,0,0-2.1-1.37a.912.912,0,0,0,.373-.24.7.7,0,0,0,.164-.41.4.4,0,0,0-.1-.274,1.893,1.893,0,0,0-.295-.3,4.148,4.148,0,0,0-.4-.29Q-2.577-3.021-2.77-3.13Z"
              transform="translate(39 24.77)" fill="#13171a"/>
    </g>
</svg>
