<svg xmlns="http://www.w3.org/2000/svg" viewBox="0 0 20.739 21.165"><g transform="translate(-16.485 -18.287)"><path d="M-15.642,1.366a3.466,3.466,0,0,1-1.242-.2,2.191,2.191,0,0,1-.832-.542,2.06,2.06,0,0,1-.466-.817,3.5,3.5,0,0,1-.143-1.022q0-.281.012-.7t.012-.969q0-.551-.006-1.209t-.032-1.321q-.026-.662-.076-1.271a9.791,9.791,0,0,0-.138-1.06l1.751-.533q.076.387.126.911t.079,1.1q.029.574.044,1.154t.021,1.078q.006.439-.015.922t-.032.925q-.012.442.009.8a1.538,1.538,0,0,0,.108.545.525.525,0,0,0,.132.2.523.523,0,0,0,.184.105.855.855,0,0,0,.231.041q.126.006.278.006h.158V1.366Zm5.008-.018a3.786,3.786,0,0,1-.726-.073,5.585,5.585,0,0,1-.735-.2,6.029,6.029,0,0,1-.691-.284,5.232,5.232,0,0,1-.589-.331,2.293,2.293,0,0,1-.413.43,2.047,2.047,0,0,1-.469.278,2.234,2.234,0,0,1-.539.149,4.17,4.17,0,0,1-.624.044h-.293V-.485h.293a1.243,1.243,0,0,0,.65-.158,1.573,1.573,0,0,0,.451-.407,3.191,3.191,0,0,0,.331-.551q.143-.3.3-.589.176-.357.4-.715a3.5,3.5,0,0,1,.507-.644,2.448,2.448,0,0,1,.647-.466,1.8,1.8,0,0,1,.811-.179,1.914,1.914,0,0,1,1.057.284,2.349,2.349,0,0,1,.729.744,3.451,3.451,0,0,1,.425,1.043A5.092,5.092,0,0,1-8.983-.948a2.786,2.786,0,0,1-.146.92A2.556,2.556,0,0,1-9.51.7a1.845,1.845,0,0,1-.53.477A1.169,1.169,0,0,1-10.635,1.348Zm-.75-3.754a.465.465,0,0,0-.316.132,1.711,1.711,0,0,0-.275.325,2.9,2.9,0,0,0-.231.422q-.1.228-.184.422a3.071,3.071,0,0,0,.439.228,4.777,4.777,0,0,0,.51.184q.264.079.533.132t.515.076a2.641,2.641,0,0,0-.035-.7,2.254,2.254,0,0,0-.2-.615,1.422,1.422,0,0,0-.331-.436A.632.632,0,0,0-11.384-2.406Zm2.776,6.1A10.1,10.1,0,0,0-7.1,3.278a6.994,6.994,0,0,0,1.192-.556,4.185,4.185,0,0,0,.849-.653,2.151,2.151,0,0,0,.477-.7q-.252,0-.533-.009t-.463-.02a4.018,4.018,0,0,1-1.054-.22A2.533,2.533,0,0,1-7.451.642a2.048,2.048,0,0,1-.53-.735,2.488,2.488,0,0,1-.187-1,3.673,3.673,0,0,1,.076-.732,4.208,4.208,0,0,1,.22-.732,3.585,3.585,0,0,1,.357-.674,2.964,2.964,0,0,1,.483-.556,2.146,2.146,0,0,1,.594-.378,1.776,1.776,0,0,1,.7-.138,2.055,2.055,0,0,1,.82.161A2.582,2.582,0,0,1-4.23-3.7a3.146,3.146,0,0,1,.556.647,4.987,4.987,0,0,1,.422.8,6.1,6.1,0,0,1,.293.879A6.474,6.474,0,0,1-2.8-.485h.252V1.366h-.375A4.751,4.751,0,0,1-3.65,2.927a5.55,5.55,0,0,1-1.2,1.221A6.737,6.737,0,0,1-6.4,5.009a8.047,8.047,0,0,1-1.778.48Zm2.87-6.132a.381.381,0,0,0-.281.085,1.224,1.224,0,0,0-.293.293,2.009,2.009,0,0,0-.228.407,1.023,1.023,0,0,0-.088.428A.477.477,0,0,0-6.5-.9a.97.97,0,0,0,.316.214,1.845,1.845,0,0,0,.436.126q.243.041.483.059t.451.018h.363a6.744,6.744,0,0,0-.208-.7,3.387,3.387,0,0,0-.278-.6,1.846,1.846,0,0,0-.357-.439A.926.926,0,0,0-5.738-2.441ZM-2.78-.485h1.406q.252,0,.556-.026A2.741,2.741,0,0,0-.247-.62,1.166,1.166,0,0,0,.2-.863a.544.544,0,0,0,.179-.425,1.59,1.59,0,0,0-.085-.419Q.207-1.984.069-2.327t-.31-.717q-.173-.375-.343-.715l1.675-.832q.164.369.325.785t.29.843a8.076,8.076,0,0,1,.208.852,4.434,4.434,0,0,1,.079.811A2.621,2.621,0,0,1,1.726-.066,2.293,2.293,0,0,1,1,.76a3.067,3.067,0,0,1-1.072.463,5.789,5.789,0,0,1-1.318.143H-2.78ZM-.051-6.524l-1.1,1.1-1.136-1.13,1.125-1.13L-.051-6.57l1.1-1.1,1.136,1.13L1.062-5.411Z" transform="translate(35.038 33.963)" fill="#13171a"/><path d="M-3.715,4.961A6.135,6.135,0,0,1-5.549,4.7a3.886,3.886,0,0,1-1.414-.77,3.459,3.459,0,0,1-.914-1.277A4.513,4.513,0,0,1-8.2.879,6.362,6.362,0,0,1-7.894-1.06a7.785,7.785,0,0,1,.911-1.892L-5.666-2a3.361,3.361,0,0,0-.275.474,6.787,6.787,0,0,0-.3.72A6.784,6.784,0,0,0-6.492.05a4.084,4.084,0,0,0-.1.876,1.768,1.768,0,0,0,.22.879,2.194,2.194,0,0,0,.586.674,2.836,2.836,0,0,0,.843.439,3.383,3.383,0,0,0,.993.17,3.867,3.867,0,0,0,1.195-.161,3.314,3.314,0,0,0,1-.486A2.374,2.374,0,0,0-1.074,1.7,1.687,1.687,0,0,0-.851.762,2.812,2.812,0,0,0-.945.194q-.082-.316-.2-.647t-.252-.656q-.138-.325-.258-.594t-.208-.463q-.088-.193-.111-.264l1.593-.884a1.4,1.4,0,0,1,.117.228q.094.2.22.53t.269.741Q.373-1.4.49-.954t.2.884A4.588,4.588,0,0,1,.765.738,4.664,4.664,0,0,1,.648,1.775a4.155,4.155,0,0,1-.36.987,4.032,4.032,0,0,1-.609.873,3.758,3.758,0,0,1-.864.7,4.4,4.4,0,0,1-1.13.463A5.483,5.483,0,0,1-3.715,4.961Zm.041-7.046-1.3-1.3,1.3-1.3,1.3,1.3Z" transform="translate(28.136 22.973)" fill="#13171a"/></g></svg>