<svg id="trash" xmlns="http://www.w3.org/2000/svg" viewBox="0 0 21.497 21.497">
  <path id="Vector"
        d="M16.8,1.805h-.072A70.561,70.561,0,0,0,2.574,1.626L.747,1.805A.676.676,0,0,1,0,1.2.667.667,0,0,1,.6.462L2.431.283A72.681,72.681,0,0,1,16.86.462a.673.673,0,0,1,.6.734A.663.663,0,0,1,16.8,1.805Z"
        transform="translate(2.012 4.223)" fill="#ff1e60"/>
  <path id="Vector-2"
        d="M.672,4a.551.551,0,0,1-.116-.009.674.674,0,0,1-.546-.77l.2-1.173C.35,1.191.547,0,2.634,0H4.981c2.1,0,2.293,1.236,2.427,2.06l.2,1.164a.668.668,0,1,1-1.317.224l-.2-1.164c-.125-.779-.152-.932-1.1-.932H2.643c-.949,0-.967.125-1.1.923L1.335,3.44A.672.672,0,0,1,.672,4Z"
        transform="translate(6.941 1.12)" fill="#ff1e60"/>
  <path id="Vector-3"
        d="M9.684,12.863H3.934c-3.126,0-3.251-1.729-3.35-3.126L0,.717A.678.678,0,0,1,.629,0a.679.679,0,0,1,.717.627l.582,9.02c.1,1.361.134,1.872,2.006,1.872h5.75c1.881,0,1.917-.511,2.006-1.872l.582-9.02A.684.684,0,0,1,12.99,0a.673.673,0,0,1,.627.717l-.582,9.02C12.936,11.135,12.81,12.863,9.684,12.863Z"
        transform="translate(3.939 7.514)" fill="#ff1e60"/>
  <path id="Vector-4"
        d="M3.655,1.344H.672A.677.677,0,0,1,0,.672.677.677,0,0,1,.672,0H3.655a.677.677,0,0,1,.672.672A.677.677,0,0,1,3.655,1.344Z"
        transform="translate(8.581 14.107)" fill="#ff1e60"/>
  <path id="Vector-5"
        d="M5.15,1.344H.672A.677.677,0,0,1,0,.672.677.677,0,0,1,.672,0H5.15a.677.677,0,0,1,.672.672A.677.677,0,0,1,5.15,1.344Z"
        transform="translate(7.837 10.525)" fill="#ff1e60"/>
  <path id="Vector-6" d="M0,0H21.5V21.5H0Z" fill="none" opacity="0"/>
</svg>
