<svg xmlns="http://www.w3.org/2000/svg" width="19.727" height="16.909" viewBox="0 0 19.727 16.909">
    <path d="M22.595,8.022a.469.469,0,0,0-.534-.1l-.077.035-.2.09a4.136,4.136,0,0,0,.448-.968.469.469,0,0,0-.692-.541,6.944,6.944,0,0,1-1.583.723,4.459,4.459,0,0,0-7.567,3.2V10.7l-.469-.038C7.357,10.119,6.057,7.047,6,6.915A.705.705,0,0,0,4.85,6.676a3.745,3.745,0,0,0-.911,2.612,4.223,4.223,0,0,0,1.2,2.876,4.271,4.271,0,0,1-.506-.354.7.7,0,0,0-1.166.594,4.931,4.931,0,0,0,2.38,3.4l-.4.072a.7.7,0,0,0-.437,1.116,6.436,6.436,0,0,0,2.959,1.945,13.55,13.55,0,0,1-4.274.686.7.7,0,0,0-.53,1.168c.076.087,1.909,2.12,6.636,2.12,7.85,0,11.507-7.287,11.507-12.212v-.235c0-.07-.008-.138-.01-.206a7.2,7.2,0,0,0,1.37-1.7A.47.47,0,0,0,22.595,8.022Z"
          transform="translate(-2.999 -6)" fill="#aab8c2"/>
</svg>