<svg xmlns="http://www.w3.org/2000/svg" viewBox="0 0 53.633 12.586"><g transform="translate(0)"><path d="M-323.9-15.355l.138,1.935h-5.147v-2.152Z" transform="translate(348.69 22.154)" fill="#1da1f2"/><path d="M-276.046-72.7v2.152h-5.147V-72.7Zm4.631,0v2.152h-.12a3.136,3.136,0,0,1-.517-.044,2.824,2.824,0,0,1-.494-.128,2.025,2.025,0,0,1-.421-.207,1.013,1.013,0,0,1-.291-.275,1.331,1.331,0,0,1-.408.3,2.9,2.9,0,0,1-.56.2,4.744,4.744,0,0,1-.669.117,6.848,6.848,0,0,1-.723.038h-.647V-72.7h.647q.348,0,.606-.016a1.548,1.548,0,0,0,.435-.082.568.568,0,0,0,.269-.19.7.7,0,0,0,.117-.342,2.264,2.264,0,0,0-.019-.541q-.043-.323-.141-.78l1.935-.478q.049.207.1.492t.079.587q.033.3.038.587a2.684,2.684,0,0,1-.027.481.359.359,0,0,0,.144.165.7.7,0,0,0,.2.082,1.145,1.145,0,0,0,.2.03q.1.005.155.005Zm-2.674,3.528-1.022,1.022-1.055-1.049,1.044-1.049,1.033,1.033,1.022-1.022,1.054,1.049-1.044,1.049Zm2.457-3.528h.674q.2,0,.443-.024a2.548,2.548,0,0,0,.462-.087,1.3,1.3,0,0,0,.364-.163.3.3,0,0,0,.15-.253,1.076,1.076,0,0,0-.09-.345q-.09-.231-.231-.533t-.31-.644l-.332-.674,1.946-.962q.163.375.318.783t.275.815a8.082,8.082,0,0,1,.193.8,4.106,4.106,0,0,1,.073.745,2.9,2.9,0,0,1-.234,1.22,2.207,2.207,0,0,1-.652.834,2.761,2.761,0,0,1-1,.481,5.01,5.01,0,0,1-1.285.155h-.761Zm1.734-4.169-1.207-1.206,1.207-1.207,1.207,1.207Zm2.489,8.05a11.339,11.339,0,0,0,1.239-.332,8.241,8.241,0,0,0,1.025-.413,4.544,4.544,0,0,0,.777-.473,2.222,2.222,0,0,0,.5-.511l-.179,0-.193-.008-.179-.008q-.084,0-.139-.008a4.024,4.024,0,0,1-1.054-.223,2.433,2.433,0,0,1-.81-.481,2.091,2.091,0,0,1-.522-.747,2.609,2.609,0,0,1-.185-1.016,3.128,3.128,0,0,1,.09-.728,4.041,4.041,0,0,1,.253-.734,4,4,0,0,1,.389-.674,3.266,3.266,0,0,1,.5-.554,2.321,2.321,0,0,1,.579-.378,1.524,1.524,0,0,1,.633-.139,1.882,1.882,0,0,1,.739.147,2.463,2.463,0,0,1,.644.4,3.177,3.177,0,0,1,.538.6,4.945,4.945,0,0,1,.427.739,5.712,5.712,0,0,1,.31.821,6.646,6.646,0,0,1,.19.845h.326v2.152h-.451a4.262,4.262,0,0,1-.707,1.4,5.479,5.479,0,0,1-1.131,1.1,6.881,6.881,0,0,1-1.446.8,9.713,9.713,0,0,1-1.652.511Zm2.68-5.376a.475.475,0,0,0-.294.1,1.014,1.014,0,0,0-.236.258,1.394,1.394,0,0,0-.158.332,1.075,1.075,0,0,0-.057.329.225.225,0,0,0,.1.179.8.8,0,0,0,.253.128,2.383,2.383,0,0,0,.359.084q.2.033.41.049t.408.022q.2.005.356.005a2.263,2.263,0,0,0-.122-.517,2.033,2.033,0,0,0-.245-.481,1.425,1.425,0,0,0-.345-.353.719.719,0,0,0-.424-.138Zm8.142,1.495v2.153h-5.147V-72.7Zm-.217,0h1.1q.13,0,.3-.011t.345-.035q.177-.024.348-.065a1.713,1.713,0,0,0,.3-.1.781.781,0,0,0,.215-.136.238.238,0,0,0,.082-.179,1.075,1.075,0,0,0-.09-.345q-.09-.231-.231-.533t-.31-.644l-.332-.674,1.946-.962q.162.375.317.783t.275.815a8.078,8.078,0,0,1,.193.8,4.1,4.1,0,0,1,.073.745,2.643,2.643,0,0,1-.261,1.22,2.321,2.321,0,0,1-.712.834,3.087,3.087,0,0,1-1.063.481,5.331,5.331,0,0,1-1.312.155H-256.8Zm2.174,3.528-1.022,1.022-1.055-1.049,1.043-1.049,1.033,1.033,1.022-1.022,1.054,1.048-1.044,1.049Z" transform="translate(305.903 79.279)" fill="#13171a"/><path d="M-250.946-40.819a6.024,6.024,0,0,1-1.806-.255,3.832,3.832,0,0,1-1.395-.762,3.392,3.392,0,0,1-.9-1.263,4.513,4.513,0,0,1-.318-1.759,5.94,5.94,0,0,1,.3-1.83,8.7,8.7,0,0,1,.885-1.88l1.589,1.14a5.706,5.706,0,0,0-.274.507,6.364,6.364,0,0,0-.274.66,6.481,6.481,0,0,0-.211.732,3.243,3.243,0,0,0-.085.715,1.314,1.314,0,0,0,.2.707,1.983,1.983,0,0,0,.518.553,2.694,2.694,0,0,0,.729.375,3.192,3.192,0,0,0,.83.167,3.166,3.166,0,0,0,.992-.156,3.087,3.087,0,0,0,.847-.422,2.306,2.306,0,0,0,.6-.622,1.58,1.58,0,0,0,.258-.762,3.032,3.032,0,0,0-.129-.713q-.112-.378-.263-.756t-.323-.743q-.173-.364-.31-.672l1.814-1.008q.077.159.192.422t.241.592q.126.329.252.7t.227.751q.1.378.164.74a3.912,3.912,0,0,1,.063.669,4.637,4.637,0,0,1-.115,1.025,4.079,4.079,0,0,1-.353.973,3.982,3.982,0,0,1-.6.86,3.733,3.733,0,0,1-.852.69,4.3,4.3,0,0,1-1.113.458A5.391,5.391,0,0,1-250.946-40.819ZM-251-47.636l-1.216-1.217L-251-50.07l1.217,1.217Zm4.669,4.784a11.436,11.436,0,0,0,1.25-.334,8.316,8.316,0,0,0,1.033-.416,4.584,4.584,0,0,0,.784-.477,2.239,2.239,0,0,0,.5-.516l-.181,0-.195-.008-.181-.008q-.085,0-.14-.008a4.057,4.057,0,0,1-1.063-.225,2.455,2.455,0,0,1-.816-.485,2.109,2.109,0,0,1-.526-.753,2.631,2.631,0,0,1-.186-1.025,3.154,3.154,0,0,1,.09-.734,4.077,4.077,0,0,1,.255-.74,4.033,4.033,0,0,1,.392-.68,3.292,3.292,0,0,1,.5-.559,2.339,2.339,0,0,1,.584-.381,1.536,1.536,0,0,1,.639-.14,1.9,1.9,0,0,1,.745.148,2.484,2.484,0,0,1,.649.4,3.2,3.2,0,0,1,.543.6,4.98,4.98,0,0,1,.43.745,5.759,5.759,0,0,1,.312.828,6.691,6.691,0,0,1,.192.852h.329v2.17h-.455a4.3,4.3,0,0,1-.713,1.414,5.523,5.523,0,0,1-1.14,1.11,6.939,6.939,0,0,1-1.458.808,9.794,9.794,0,0,1-1.667.516Zm2.7-5.42a.479.479,0,0,0-.3.1,1.021,1.021,0,0,0-.238.26,1.4,1.4,0,0,0-.159.334,1.083,1.083,0,0,0-.058.332.227.227,0,0,0,.1.181.81.81,0,0,0,.255.129,2.4,2.4,0,0,0,.362.085q.2.033.413.049t.411.022q.2.005.359.005a2.282,2.282,0,0,0-.123-.521,2.051,2.051,0,0,0-.247-.485,1.436,1.436,0,0,0-.348-.356.725.725,0,0,0-.427-.14Zm8.21,1.507v2.17h-5.19v-2.17Zm5.064,2.088a1.163,1.163,0,0,1-.447.074,2.714,2.714,0,0,1-.537-.063,4.881,4.881,0,0,1-.575-.162q-.294-.1-.57-.222t-.515-.244q-.238-.123-.408-.222a1.972,1.972,0,0,1-.373.4,2.177,2.177,0,0,1-.466.288,2.559,2.559,0,0,1-.54.176,2.865,2.865,0,0,1-.589.06h-.263v-2.17h.263a1.387,1.387,0,0,0,.449-.066,1.032,1.032,0,0,0,.337-.189,1.385,1.385,0,0,0,.26-.3,3.3,3.3,0,0,0,.219-.395q.121-.247.26-.523t.312-.548a5.023,5.023,0,0,1,.375-.515,2.757,2.757,0,0,1,.446-.431,2.091,2.091,0,0,1,.534-.3,1.771,1.771,0,0,1,.63-.11,1.837,1.837,0,0,1,.858.2,2.311,2.311,0,0,1,.68.535,3.094,3.094,0,0,1,.49.77,4.135,4.135,0,0,1,.291.907,4.139,4.139,0,0,1,.076.948,3.136,3.136,0,0,1-.153.888,2.305,2.305,0,0,1-.4.732,1.6,1.6,0,0,1-.649.48Zm-1.244-3.5a.371.371,0,0,0-.244.1,1.474,1.474,0,0,0-.227.252,2.632,2.632,0,0,0-.2.329q-.093.178-.159.332a2.9,2.9,0,0,0,.3.176,4.144,4.144,0,0,0,.4.178,3.756,3.756,0,0,0,.466.145,2.58,2.58,0,0,0,.5.071,1.248,1.248,0,0,0,.036-.518,1.621,1.621,0,0,0-.153-.515,1.2,1.2,0,0,0-.3-.395A.632.632,0,0,0-231.6-48.179Z" transform="translate(255.364 53.334)" fill="#1da1f2"/></g></svg>