<svg xmlns="http://www.w3.org/2000/svg"  viewBox="0 0 35.918 35.918"><g transform="translate(-108 -188)"><g transform="translate(108 188)"><path d="M8.605,17.211a8.605,8.605,0,1,1,8.605-8.605A8.616,8.616,0,0,1,8.605,17.211Zm0-14.966a6.36,6.36,0,1,0,6.36,6.36A6.374,6.374,0,0,0,8.605,2.245Z" transform="translate(9.354 1.871)" fill="#657786"/><path d="M26.834,12.721A1.131,1.131,0,0,1,25.711,11.6c0-5.163-5.268-9.354-11.733-9.354S2.245,6.435,2.245,11.6a1.131,1.131,0,0,1-1.122,1.122A1.131,1.131,0,0,1,0,11.6C0,5.208,6.271,0,13.978,0S27.956,5.208,27.956,11.6A1.131,1.131,0,0,1,26.834,12.721Z" transform="translate(3.981 21.326)" fill="#657786"/><path d="M0,0H35.918V35.918H0Z" fill="none" opacity="0"/></g></g></svg>