<svg xmlns="http://www.w3.org/2000/svg"  viewBox="0 0 24 24"><g transform="translate(-748 -444)"><path d="M3.167,6.327a.749.749,0,0,1-.53-.22L.218,3.687a.75.75,0,1,1,1.06-1.06l1.89,1.89,4.3-4.3a.75.75,0,0,1,1.06,1.06L3.7,6.107A.749.749,0,0,1,3.167,6.327Z" transform="translate(755.622 452.842)" fill="#657786"/><path d="M10.745,21.5a2.688,2.688,0,0,1-1.75-.63l-1.58-1.36a1.533,1.533,0,0,0-.77-.28H4.925a2.68,2.68,0,0,1-2.68-2.68V14.84a1.5,1.5,0,0,0-.28-.76L.615,12.49a2.755,2.755,0,0,1,0-3.47l1.35-1.59a1.5,1.5,0,0,0,.28-.76V4.95a2.68,2.68,0,0,1,2.68-2.68h1.73a1.633,1.633,0,0,0,.77-.28L9.005.63a2.732,2.732,0,0,1,3.49,0l1.58,1.36a1.533,1.533,0,0,0,.77.28h1.7a2.68,2.68,0,0,1,2.68,2.68v1.7a1.546,1.546,0,0,0,.29.77L20.875,9a2.732,2.732,0,0,1,0,3.49l-1.36,1.58a1.546,1.546,0,0,0-.29.77v1.7a2.68,2.68,0,0,1-2.68,2.68h-1.7a1.633,1.633,0,0,0-.77.28l-1.58,1.36A2.646,2.646,0,0,1,10.745,21.5ZM4.925,3.77a1.182,1.182,0,0,0-1.18,1.18V6.66a2.941,2.941,0,0,1-.64,1.73L1.755,9.98a1.246,1.246,0,0,0,0,1.53l1.35,1.59a2.966,2.966,0,0,1,.64,1.73v1.71a1.182,1.182,0,0,0,1.18,1.18h1.73a2.944,2.944,0,0,1,1.75.65l1.58,1.36a1.261,1.261,0,0,0,1.54,0l1.58-1.36a3.011,3.011,0,0,1,1.75-.65h1.7a1.182,1.182,0,0,0,1.18-1.18v-1.7a2.944,2.944,0,0,1,.65-1.75l1.36-1.58a1.261,1.261,0,0,0,0-1.54l-1.36-1.58a2.944,2.944,0,0,1-.65-1.75V4.95a1.182,1.182,0,0,0-1.18-1.18h-1.7a2.944,2.944,0,0,1-1.75-.65l-1.58-1.36a1.261,1.261,0,0,0-1.54,0L8.4,3.13a3.025,3.025,0,0,1-1.75.64Z" transform="translate(749.255 445.25)" fill="#657786"/><path d="M0,0H24V24H0Z" transform="translate(748 444)" fill="none" opacity="0"/></g></svg>