<svg xmlns="http://www.w3.org/2000/svg" viewBox="0 0 60.359 27.778">
    <g transform="translate(-175.103 -725.959)">
        <g transform="translate(175 742.547)">
            <path d="M6.619-7.82v5.151a2.632,2.632,0,0,1-.8,2.028,3.1,3.1,0,0,1-2.2.746A3.13,3.13,0,0,1,1.447-.619,2.6,2.6,0,0,1,.622-2.611V-7.82H2.233v5.16A1.491,1.491,0,0,0,2.6-1.538a1.415,1.415,0,0,0,1.019.352q1.358,0,1.382-1.43v-5.2ZM9.264-5.811l.048.67a2.038,2.038,0,0,1,1.674-.78,1.687,1.687,0,0,1,1.375.543,2.527,2.527,0,0,1,.462,1.624V0H11.268V-3.716a1.011,1.011,0,0,0-.215-.717.955.955,0,0,0-.713-.225,1.073,1.073,0,0,0-.985.56V0H7.805V-5.811ZM15.634,0H14.08V-5.811h1.554Zm-1.65-7.317a.761.761,0,0,1,.234-.574.881.881,0,0,1,.636-.225.882.882,0,0,1,.634.225.757.757,0,0,1,.237.574.764.764,0,0,1-.239.583.884.884,0,0,1-.631.225.884.884,0,0,1-.631-.225A.764.764,0,0,1,13.984-7.317Z"
                  transform="translate(0.405 10.584)" fill="#13171a" stroke="rgba(0,0,0,0)" stroke-width="1"/>
            <path d="M4.743-2.645a3.235,3.235,0,0,1-.55,2.029,1.921,1.921,0,0,1-1.61.7A1.931,1.931,0,0,1,.984-.6,3.135,3.135,0,0,1,.419-2.579V-3.757A3.2,3.2,0,0,1,.974-5.793a1.929,1.929,0,0,1,1.6-.695,1.931,1.931,0,0,1,1.6.689,3.151,3.151,0,0,1,.569,1.976ZM3.471-3.937A2.346,2.346,0,0,0,3.254-5.1a.735.735,0,0,0-.679-.362.721.721,0,0,0-.659.344,2.2,2.2,0,0,0-.229,1.08v1.557A2.451,2.451,0,0,0,1.9-1.315a.725.725,0,0,0,.683.38A.715.715,0,0,0,3.256-1.3a2.388,2.388,0,0,0,.215-1.117ZM5.764-.708a.688.688,0,0,1,.219-.528.779.779,0,0,1,.552-.2.785.785,0,0,1,.556.2.688.688,0,0,1,.219.528.68.68,0,0,1-.217.522.787.787,0,0,1-.558.2.782.782,0,0,1-.554-.2A.68.68,0,0,1,5.764-.708Zm6.848-1.937a3.235,3.235,0,0,1-.55,2.029,1.921,1.921,0,0,1-1.61.7A1.931,1.931,0,0,1,8.853-.6a3.135,3.135,0,0,1-.565-1.976V-3.757a3.2,3.2,0,0,1,.556-2.037,1.929,1.929,0,0,1,1.6-.695,1.931,1.931,0,0,1,1.6.689,3.151,3.151,0,0,1,.569,1.976ZM11.34-3.937a2.346,2.346,0,0,0-.217-1.16.735.735,0,0,0-.679-.362.721.721,0,0,0-.659.344,2.2,2.2,0,0,0-.229,1.08v1.557a2.451,2.451,0,0,0,.213,1.162.725.725,0,0,0,.683.38.715.715,0,0,0,.673-.366,2.388,2.388,0,0,0,.215-1.117ZM16.556,0H15.284V-4.9l-1.514.47V-5.459l2.649-.947h.137Z"
                  transform="translate(43.405 10.584)" fill="#aab8c2" stroke="rgba(0,0,0,0)" stroke-width="1"/>
            <path d="M18.37-5.811l.048.65a2.036,2.036,0,0,1,1.669-.76,1.554,1.554,0,0,1,1.545.89,1.993,1.993,0,0,1,1.746-.89,1.733,1.733,0,0,1,1.406.552,2.528,2.528,0,0,1,.464,1.657V0H23.688V-3.707a1.108,1.108,0,0,0-.194-.722.854.854,0,0,0-.682-.23.968.968,0,0,0-.966.67l0,3.989H20.3V-3.7a1.1,1.1,0,0,0-.2-.729.861.861,0,0,0-.677-.227,1.007,1.007,0,0,0-.957.55V0h-1.55V-5.811ZM29.915-.593a1.943,1.943,0,0,1-1.588.7A1.84,1.84,0,0,1,26.9-.43,2.281,2.281,0,0,1,26.4-2V-5.811h1.55v3.754q0,.909.827.909a1.122,1.122,0,0,0,1.086-.55V-5.811h1.559V0H29.958Zm4.1-5.218.048.67a2.038,2.038,0,0,1,1.674-.78,1.687,1.687,0,0,1,1.375.543,2.527,2.527,0,0,1,.462,1.624V0H36.023V-3.716a1.011,1.011,0,0,0-.215-.717.955.955,0,0,0-.713-.225,1.073,1.073,0,0,0-.985.56V0H32.56V-5.811Z"
                  transform="translate(0.405 10.584)" fill="#1da1f2" stroke="rgba(0,0,0,0)" stroke-width="1"/>
        </g>
        <g transform="translate(175 720)">
            <path d="M-26.77-1.8V.609h-6.764l.647-2.41Zm5.186,0V.609h-.134A3.513,3.513,0,0,1-22.3.56,3.164,3.164,0,0,1-22.85.417a2.267,2.267,0,0,1-.472-.231,1.134,1.134,0,0,1-.326-.307A1.49,1.49,0,0,1-24.1.21a3.246,3.246,0,0,1-.627.225,5.311,5.311,0,0,1-.749.131,7.671,7.671,0,0,1-.81.043h-.724V-1.8h.724q.39,0,.679-.018a1.734,1.734,0,0,0,.487-.091.636.636,0,0,0,.3-.213.786.786,0,0,0,.131-.383,2.539,2.539,0,0,0-.021-.606q-.049-.362-.158-.873l2.167-.536q.055.231.107.551t.088.657q.037.338.043.657a3,3,0,0,1-.03.539.4.4,0,0,0,.161.186.779.779,0,0,0,.222.091,1.282,1.282,0,0,0,.222.033q.107.006.173.006Zm-2.995,3.95-1.144,1.144L-26.9,2.118-25.736.943-24.579,2.1-23.435.956l1.181,1.175-1.169,1.175Zm2.751-3.95h.755q.219,0,.5-.027a2.854,2.854,0,0,0,.517-.1,1.457,1.457,0,0,0,.408-.183.332.332,0,0,0,.167-.283,1.2,1.2,0,0,0-.1-.387q-.1-.259-.259-.6T-20.19-4.1l-.371-.755,2.179-1.077q.183.42.356.877t.307.913a9.043,9.043,0,0,1,.216.9,4.6,4.6,0,0,1,.082.834,3.251,3.251,0,0,1-.262,1.367,2.472,2.472,0,0,1-.73.934,3.092,3.092,0,0,1-1.123.539,5.611,5.611,0,0,1-1.44.173h-.852Zm1.942-4.669-1.351-1.351,1.351-1.351,1.351,1.351ZM-17.1,2.544a12.7,12.7,0,0,0,1.388-.371,9.234,9.234,0,0,0,1.147-.463,5.09,5.09,0,0,0,.87-.53,2.487,2.487,0,0,0,.557-.572l-.2,0q-.11,0-.216-.009l-.2-.009q-.094,0-.155-.009A4.506,4.506,0,0,1-15.09.329,2.726,2.726,0,0,1-16-.21a2.342,2.342,0,0,1-.584-.837,2.921,2.921,0,0,1-.207-1.138,3.5,3.5,0,0,1,.1-.816,4.526,4.526,0,0,1,.283-.822,4.478,4.478,0,0,1,.435-.755,3.656,3.656,0,0,1,.557-.621,2.6,2.6,0,0,1,.648-.423,1.706,1.706,0,0,1,.709-.155,2.108,2.108,0,0,1,.828.164,2.759,2.759,0,0,1,.721.447,3.557,3.557,0,0,1,.6.67,5.531,5.531,0,0,1,.478.828,6.4,6.4,0,0,1,.347.919,7.44,7.44,0,0,1,.213.947h.365V.609h-.505a4.773,4.773,0,0,1-.791,1.57,6.134,6.134,0,0,1-1.266,1.233,7.707,7.707,0,0,1-1.619.9,10.878,10.878,0,0,1-1.85.572Zm3-6.02a.532.532,0,0,0-.329.116,1.134,1.134,0,0,0-.265.289,1.559,1.559,0,0,0-.177.371,1.2,1.2,0,0,0-.064.368.252.252,0,0,0,.107.2.9.9,0,0,0,.283.143,2.668,2.668,0,0,0,.4.094q.225.037.46.055t.457.024q.222.006.4.006a2.535,2.535,0,0,0-.137-.578,2.279,2.279,0,0,0-.274-.539,1.6,1.6,0,0,0-.387-.4A.8.8,0,0,0-14.1-3.476ZM-4.979-1.8V.609h-5.764V-1.8Zm-.243,0h1.23q.146,0,.335-.012t.387-.04q.2-.027.39-.073a1.918,1.918,0,0,0,.341-.113.875.875,0,0,0,.24-.152.266.266,0,0,0,.091-.2,1.2,1.2,0,0,0-.1-.387q-.1-.259-.259-.6T-2.916-4.1l-.371-.755,2.179-1.077q.183.42.356.877t.307.913a9.044,9.044,0,0,1,.216.9A4.6,4.6,0,0,1-.146-2.4,2.96,2.96,0,0,1-.438-1.038a2.6,2.6,0,0,1-.8.934,3.458,3.458,0,0,1-1.19.539A5.971,5.971,0,0,1-3.9.609H-5.223Zm2.435,3.95L-3.932,3.293-5.113,2.118-3.944.943-2.788,2.1-1.643.956-.463,2.13-1.631,3.305Z"
                  transform="translate(60.405 15.132)" fill="#13171a"/>
            <path d="M-32.984-1.5V.609h-5.072V-1.8Z" transform="translate(60.405 15.132)" fill="#1da1f2"/>
            <path d="M-24.4,4.8A6.691,6.691,0,0,1-26.4,4.52a4.257,4.257,0,0,1-1.549-.846,3.768,3.768,0,0,1-1-1.4A5.013,5.013,0,0,1-29.3.317a6.6,6.6,0,0,1,.332-2.033A9.665,9.665,0,0,1-27.988-3.8l1.765,1.266a6.331,6.331,0,0,0-.3.563,7.061,7.061,0,0,0-.3.733,7.192,7.192,0,0,0-.234.813,3.6,3.6,0,0,0-.094.794,1.459,1.459,0,0,0,.219.785,2.2,2.2,0,0,0,.575.615,2.993,2.993,0,0,0,.81.417,3.546,3.546,0,0,0,.922.186,3.516,3.516,0,0,0,1.1-.173,3.428,3.428,0,0,0,.94-.469,2.561,2.561,0,0,0,.667-.691,1.756,1.756,0,0,0,.286-.846A3.368,3.368,0,0,0-21.782-.6q-.125-.42-.292-.84t-.359-.825q-.192-.4-.344-.746l2.015-1.12q.085.177.213.469t.268.657q.14.365.28.779t.253.834q.113.42.183.822A4.347,4.347,0,0,1-19.5.17a5.153,5.153,0,0,1-.128,1.138,4.532,4.532,0,0,1-.393,1.08,4.423,4.423,0,0,1-.667.956,4.146,4.146,0,0,1-.947.767,4.771,4.771,0,0,1-1.236.508A5.987,5.987,0,0,1-24.4,4.8Zm-.061-7.572-1.351-1.351,1.351-1.351,1.351,1.351Zm5.186,5.314a12.7,12.7,0,0,0,1.388-.371,9.234,9.234,0,0,0,1.147-.463,5.09,5.09,0,0,0,.87-.53,2.487,2.487,0,0,0,.557-.572l-.2,0q-.11,0-.216-.009l-.2-.009q-.094,0-.155-.009a4.506,4.506,0,0,1-1.181-.25A2.726,2.726,0,0,1-18.17-.21a2.342,2.342,0,0,1-.584-.837,2.921,2.921,0,0,1-.207-1.138A3.5,3.5,0,0,1-18.86-3a4.526,4.526,0,0,1,.283-.822,4.478,4.478,0,0,1,.435-.755,3.656,3.656,0,0,1,.557-.621,2.6,2.6,0,0,1,.648-.423,1.706,1.706,0,0,1,.709-.155,2.108,2.108,0,0,1,.828.164,2.759,2.759,0,0,1,.721.447,3.557,3.557,0,0,1,.6.67,5.531,5.531,0,0,1,.478.828,6.4,6.4,0,0,1,.347.919,7.44,7.44,0,0,1,.213.947h.365V.609h-.505a4.773,4.773,0,0,1-.791,1.57,6.134,6.134,0,0,1-1.266,1.233,7.707,7.707,0,0,1-1.619.9,10.878,10.878,0,0,1-1.85.572Zm3-6.02a.532.532,0,0,0-.329.116,1.134,1.134,0,0,0-.265.289,1.559,1.559,0,0,0-.177.371,1.2,1.2,0,0,0-.064.368.252.252,0,0,0,.107.2.9.9,0,0,0,.283.143,2.668,2.668,0,0,0,.4.094q.225.037.46.055t.457.024q.222.006.4.006a2.535,2.535,0,0,0-.137-.578,2.279,2.279,0,0,0-.274-.539,1.6,1.6,0,0,0-.387-.4A.8.8,0,0,0-16.27-3.476ZM-7.152-1.8V.609h-5.764V-1.8ZM-1.528.517a1.292,1.292,0,0,1-.5.082,3.014,3.014,0,0,1-.6-.07A5.423,5.423,0,0,1-3.26.35Q-3.585.237-3.893.1t-.572-.271Q-4.73-.3-4.918-.414a2.191,2.191,0,0,1-.414.441,2.418,2.418,0,0,1-.517.32,2.842,2.842,0,0,1-.6.195A3.182,3.182,0,0,1-7.1.609H-7.4V-1.8H-7.1a1.54,1.54,0,0,0,.5-.073,1.146,1.146,0,0,0,.374-.21,1.538,1.538,0,0,0,.289-.332A3.664,3.664,0,0,0-5.7-2.855q.134-.274.289-.581t.347-.609a5.577,5.577,0,0,1,.417-.572,3.062,3.062,0,0,1,.5-.478,2.323,2.323,0,0,1,.593-.329,1.967,1.967,0,0,1,.7-.122,2.041,2.041,0,0,1,.953.222,2.567,2.567,0,0,1,.755.593A3.437,3.437,0,0,1-.6-3.874,4.593,4.593,0,0,1-.28-2.867,4.6,4.6,0,0,1-.195-1.814a3.484,3.484,0,0,1-.17.986,2.561,2.561,0,0,1-.441.813A1.781,1.781,0,0,1-1.528.517ZM-2.91-3.372a.412.412,0,0,0-.271.113,1.638,1.638,0,0,0-.253.28,2.924,2.924,0,0,0-.225.365q-.1.2-.177.368a3.221,3.221,0,0,0,.335.195,4.605,4.605,0,0,0,.444.2,4.174,4.174,0,0,0,.517.161,2.866,2.866,0,0,0,.56.079,1.386,1.386,0,0,0,.04-.575,1.8,1.8,0,0,0-.17-.572A1.334,1.334,0,0,0-2.447-3.2.7.7,0,0,0-2.91-3.372Z"
                  transform="translate(29.405 15.132)" fill="#1da1f2"/>
        </g>
    </g>
</svg>