<svg id="vuesax_outline_search-normal" data-name="vuesax/outline/search-normal" xmlns="http://www.w3.org/2000/svg"
     viewBox="0 0 24 24">
    <g id="search-normal">
        <g id="Vector" transform="translate(1.25 1.25)" fill="#1da1f2">
            <path d="M 10.25 20.60000038146973 C 4.542990207672119 20.60000038146973 -0.1000000014901161 15.95701026916504 -0.1000000014901161 10.25 C -0.1000000014901161 4.542990207672119 4.542990207672119 -0.1000000014901161 10.25 -0.1000000014901161 C 15.95701026916504 -0.1000000014901161 20.60000038146973 4.542990207672119 20.60000038146973 10.25 C 20.60000038146973 15.95701026916504 15.95701026916504 20.60000038146973 10.25 20.60000038146973 Z M 10.25 1.600000023841858 C 5.480370044708252 1.600000023841858 1.600000023841858 5.480370044708252 1.600000023841858 10.25 C 1.600000023841858 15.01963043212891 5.480370044708252 18.89999961853027 10.25 18.89999961853027 C 15.01963043212891 18.89999961853027 18.89999961853027 15.01963043212891 18.89999961853027 10.25 C 18.89999961853027 5.480370044708252 15.01963043212891 1.600000023841858 10.25 1.600000023841858 Z"
                  stroke="none"/>
            <path d="M 10.25 20.5 C 15.89999961853027 20.5 20.5 15.89999961853027 20.5 10.25 C 20.5 4.599999904632568 15.89999961853027 0 10.25 0 C 4.599999904632568 0 0 4.599999904632568 0 10.25 C 0 15.89999961853027 4.599999904632568 20.5 10.25 20.5 M 10.25 1.5 C 15.07999992370605 1.5 19 5.429999828338623 19 10.25 C 19 15.06999969482422 15.07999992370605 19 10.25 19 C 5.420000076293945 19 1.5 15.06999969482422 1.5 10.25 C 1.5 5.429999828338623 5.420000076293945 1.5 10.25 1.5 M 10.25 20.70000076293945 C 4.487850189208984 20.70000076293945 -0.2000000029802322 16.01214981079102 -0.2000000029802322 10.25 C -0.2000000029802322 4.487850189208984 4.487850189208984 -0.2000000029802322 10.25 -0.2000000029802322 C 16.01214981079102 -0.2000000029802322 20.70000076293945 4.487850189208984 20.70000076293945 10.25 C 20.70000076293945 16.01214981079102 16.01214981079102 20.70000076293945 10.25 20.70000076293945 Z M 10.25 1.700000047683716 C 5.535510063171387 1.700000047683716 1.700000047683716 5.535510063171387 1.700000047683716 10.25 C 1.700000047683716 14.96448993682861 5.535510063171387 18.79999923706055 10.25 18.79999923706055 C 14.96448993682861 18.79999923706055 18.79999923706055 14.96448993682861 18.79999923706055 10.25 C 18.79999923706055 5.535510063171387 14.96448993682861 1.700000047683716 10.25 1.700000047683716 Z"
                  stroke="none" fill="#1da1f2"/>
        </g>
        <path id="Vector-2"
              d="M2.748,3.5a.742.742,0,0,1-.53-.22l-2-2A.75.75,0,0,1,1.278.218l2,2a.754.754,0,0,1,0,1.06A.742.742,0,0,1,2.748,3.5Z"
              transform="translate(19.253 19.253)" fill="#1da1f2" stroke="#1da1f2" stroke-width="0.5"/>
        <path id="Vector-3" d="M0,0H24V24H0Z" fill="none" opacity="0"/>
    </g>
</svg>
