<svg xmlns="http://www.w3.org/2000/svg" width="25.816" height="25.816" viewBox="0 0 25.816 25.816">
    <g transform="translate(-428 -188)">
        <g transform="translate(428 188)">
            <path d="M15.479,0H6.338C2.367,0,0,2.367,0,6.338v9.13c0,3.981,2.367,6.349,6.338,6.349h9.131c3.971,0,6.338-2.367,6.338-6.338V6.338C21.817,2.367,19.45,0,15.479,0Zm-.142,10-3.851,3.851a.816.816,0,0,1-1.156,0L6.48,10A.818.818,0,0,1,7.636,8.847l3.273,3.272,3.273-3.272A.818.818,0,1,1,15.338,10Z"
                  transform="translate(2 2)" fill="#1da1f2"/>
            <path d="M0,0H25.816V25.816H0Z" transform="translate(25.816 25.816) rotate(180)" fill="none" opacity="0"/>
        </g>
    </g>
</svg>