<svg xmlns="http://www.w3.org/2000/svg" width="58" height="58" viewBox="0 0 58 58">
    <g transform="translate(0 0)">
        <path d="M15,0H43A15,15,0,0,1,58,15V43A15,15,0,0,1,43,58H15A15,15,0,0,1,0,43V15A15,15,0,0,1,15,0Z"
              transform="translate(0)" fill="#1da1f2"/>
        <g transform="translate(-163 -179)">
            <g transform="translate(172 188)">
                <path d="M25.049,20.817,23.382,18.05a6.192,6.192,0,0,1-.667-2.467V11.367A9.849,9.849,0,0,0,17.1,2.483,4.877,4.877,0,0,0,12.8,0,4.935,4.935,0,0,0,8.482,2.533a9.88,9.88,0,0,0-5.5,8.833v4.217a6.043,6.043,0,0,1-.667,2.45L.632,20.817A3.9,3.9,0,0,0,2.816,26.7a31.171,31.171,0,0,0,10.033,1.633,31.616,31.616,0,0,0,10.033-1.617,4.019,4.019,0,0,0,2.167-5.9Z"
                      transform="translate(7.184 3.333)" fill="#fff"/>
                <path d="M9.417.017A5.024,5.024,0,0,1,4.7,3.333,4.942,4.942,0,0,1,1.167,1.85,4.6,4.6,0,0,1,0,0C.217.033.433.05.667.083c.383.05.783.1,1.183.133C2.8.3,3.767.35,4.733.35c.95,0,1.9-.05,2.833-.133.35-.033.7-.05,1.033-.1C8.867.083,9.133.05,9.417.017Z"
                      transform="translate(15.3 33.333)" fill="#fff"/>
                <path d="M0,0H40V40H0Z" transform="translate(40 40) rotate(180)" fill="none" opacity="0"/>
            </g>
        </g>
    </g>
</svg>