<svg id="send-2" xmlns="http://www.w3.org/2000/svg" width="29.501" height="29.501" viewBox="0 0 29.501 29.501">
  <path id="Vector"
        d="M14.554,23.692c-1.45,0-3.5-1.02-5.126-5.9l-.885-2.655-2.655-.885C1.02,12.629,0,10.576,0,9.126s1.02-3.5,5.888-5.138L16.324.509c2.606-.873,4.782-.615,6.122.713s1.6,3.516.725,6.122L19.692,17.779C18.057,22.672,16,23.692,14.554,23.692ZM6.466,5.745c-3.417,1.143-4.634,2.5-4.634,3.38s1.217,2.237,4.634,3.368l3.1,1.033a.9.9,0,0,1,.578.578l1.033,3.1c1.131,3.417,2.5,4.634,3.38,4.634s2.237-1.217,3.38-4.634L21.413,6.765c.627-1.893.516-3.442-.283-4.241s-2.348-.9-4.229-.27Z"
        transform="translate(2.926 2.896)" fill="#292d32"/>
  <path id="Vector-2" data-name="Vector"
        d="M.919,6.254a.912.912,0,0,1-.651-.27.927.927,0,0,1,0-1.3L4.668.267a.921.921,0,0,1,1.3,1.3L1.57,5.983A.892.892,0,0,1,.919,6.254Z"
        transform="translate(11.509 11.447)" fill="#292d32"/>
  <path id="Vector-3" data-name="Vector" d="M0,0H29.5V29.5H0Z" fill="none" opacity="0"/>
</svg>
