<svg xmlns="http://www.w3.org/2000/svg" width="26.472" height="26.472" viewBox="0 0 26.472 26.472">
    <path d="M15.652,0H6.408C2.394,0,0,2.394,0,6.408v9.232c0,4.026,2.394,6.42,6.408,6.42h9.232c4.015,0,6.408-2.394,6.408-6.408V6.408C22.06,2.394,19.667,0,15.652,0Zm-.21,11.857H11.857v3.585a.827.827,0,1,1-1.655,0V11.857H6.618a.827.827,0,0,1,0-1.655H10.2V6.618a.827.827,0,1,1,1.655,0V10.2h3.585a.827.827,0,1,1,0,1.655Z"
          transform="translate(2.206 2.206)" fill="#1da1f2"/>
    <path d="M0,0H26.472V26.472H0Z" transform="translate(26.472 26.472) rotate(180)" fill="none" opacity="0"/>
</svg>