<svg xmlns="http://www.w3.org/2000/svg" viewBox="0 0 6.995 5.498">
    <g transform="translate(-180.563 -263.452)">
        <path d="M2.248,5.5a.742.742,0,0,1-.53-.22l-1.5-1.5a.75.75,0,1,1,1.06-1.06l.97.97L5.718.218a.75.75,0,0,1,1.06,1.06l-4,4A.725.725,0,0,1,2.248,5.5Z"
              transform="translate(180.563 263.453)" fill="#fff"/>
        <path d="M2.248,5.5a.742.742,0,0,1-.53-.22l-1.5-1.5a.75.75,0,1,1,1.06-1.06l.97.97L5.718.218a.75.75,0,0,1,1.06,1.06l-4,4A.725.725,0,0,1,2.248,5.5Z"
              transform="translate(180.563 263.452)" fill="#fff"/>
    </g>
</svg>