<svg xmlns="http://www.w3.org/2000/svg" width="21.5" height="21.5" viewBox="0 0 21.5 21.5">
    <g transform="translate(-1.25 -1.25)">
        <path d="M12,22.75A10.75,10.75,0,1,1,22.75,12,10.759,10.759,0,0,1,12,22.75Zm0-20A9.25,9.25,0,1,0,21.25,12,9.261,9.261,0,0,0,12,2.75Z"
              fill="#1da1f2"/>
        <path d="M10.58,15.58a.749.749,0,0,1-.53-.22l-2.83-2.83a.75.75,0,1,1,1.06-1.06l2.3,2.3,5.14-5.14a.75.75,0,0,1,1.06,1.06l-5.67,5.67A.749.749,0,0,1,10.58,15.58Z"
              fill="#1da1f2"/>
    </g>
</svg>