<svg xmlns="http://www.w3.org/2000/svg" width="33" height="33" viewBox="0 0 33 33">
    <g transform="translate(0 0.089)">
        <rect width="33" height="33" rx="4" transform="translate(0 -0.089)" fill="#fff"/>
        <g transform="translate(11.904 10.288)">
            <path d="M1.232,12.307A1.241,1.241,0,0,1,0,11.075V1.222A1.217,1.217,0,0,1,.755.089,1.274,1.274,0,0,1,2.1.352L5.386,3.636A1.231,1.231,0,0,1,3.646,5.377L2.463,4.194v6.881A1.241,1.241,0,0,1,1.232,12.307Z"
                  transform="translate(3.28 0.006)" fill="#00bfa5"/>
            <path d="M1.228,5.744a1.218,1.218,0,0,1-.87-.361,1.239,1.239,0,0,1,0-1.741L3.642.357A1.231,1.231,0,0,1,5.382,2.1L2.1,5.382A1.218,1.218,0,0,1,1.228,5.744Z"
                  fill="#00bfa5"/>
        </g>
    </g>
</svg>