<svg xmlns="http://www.w3.org/2000/svg" viewBox="0 0 23.796 23.796">
    <path d="M16.469,25.046H9.828c-6.01,0-8.578-2.568-8.578-8.578V9.828c0-6.01,2.568-8.578,8.578-8.578h6.641c6.01,0,8.578,2.568,8.578,8.578v6.641C25.046,22.479,22.479,25.046,16.469,25.046ZM9.828,2.91c-5.1,0-6.918,1.815-6.918,6.918v6.641c0,5.1,1.815,6.918,6.918,6.918h6.641c5.1,0,6.918-1.815,6.918-6.918V9.828c0-5.1-1.815-6.918-6.918-6.918Z"
          transform="translate(-1.25 -1.25)" fill="#1da1f2"/>
    <path d="M15.74,10.981a2.49,2.49,0,1,1,2.49-2.49A2.494,2.494,0,0,1,15.74,10.981Zm0-3.32a.83.83,0,1,0,.83.83A.836.836,0,0,0,15.74,7.66Z"
          transform="translate(0.032 -0.743)" fill="#1da1f2"/>
    <path d="M8.74,10.981a2.49,2.49,0,1,1,2.49-2.49A2.494,2.494,0,0,1,8.74,10.981Zm0-3.32a.83.83,0,1,0,.83.83A.836.836,0,0,0,8.74,7.66Z"
          transform="translate(-0.716 -0.743)" fill="#1da1f2"/>
    <path d="M12.561,20.187A5.817,5.817,0,0,1,6.75,14.376,1.828,1.828,0,0,1,8.576,12.55h7.969a1.828,1.828,0,0,1,1.826,1.826A5.817,5.817,0,0,1,12.561,20.187ZM8.576,14.21a.17.17,0,0,0-.166.166,4.151,4.151,0,1,0,8.3,0,.17.17,0,0,0-.166-.166Z"
          transform="translate(-0.663 -0.043)" fill="#1da1f2"/>
</svg>