<svg xmlns="http://www.w3.org/2000/svg" width="100" viewBox="0 0 23 23">
    <g transform="translate(-0.734 -0.733)">
        <rect width="23" height="23" transform="translate(0.734 0.733)" fill="none"/>
        <path d="M19.288,12.624a7.535,7.535,0,0,1-6.665,6.665v.928a.844.844,0,1,1-1.687,0v-.928a7.382,7.382,0,0,1-6.665-6.665H3.344a.844.844,0,1,1,0-1.687h.928a7.382,7.382,0,0,1,6.665-6.665V3.344a.844.844,0,1,1,1.687,0v.928a7.535,7.535,0,0,1,6.665,6.665h.928a.844.844,0,1,1,0,1.687ZM11.78,17.686A5.905,5.905,0,1,0,5.875,11.78a5.869,5.869,0,0,0,5.905,5.905Zm0-2.531a3.375,3.375,0,1,1,3.375-3.375,3.384,3.384,0,0,1-3.375,3.375Zm0-1.687a1.687,1.687,0,1,0-1.687-1.687,1.692,1.692,0,0,0,1.687,1.687Z"
              transform="translate(0.502 0.502)" fill="#1da1f2"/>
    </g>
</svg>