<svg id="vuesax_outline_like-dislike" data-name="vuesax/outline/like-dislike" xmlns="http://www.w3.org/2000/svg"
     width="24" height="20.542" viewBox="0 0 24 20.542">
  <g id="like-dislike">
    <path id="Vector"
          d="M5.67,12.195H3.5a2.528,2.528,0,0,1-1.62-.56l-1.7-1.31.92-1.19L2.87,10.5a1.1,1.1,0,0,0,.63.19H5.67a.976.976,0,0,0,.87-.63l1.39-4.23a.413.413,0,0,0,0-.36.44.44,0,0,0-.37-.14H5.27a1.351,1.351,0,0,1-1.01-.46,1.33,1.33,0,0,1-.31-1.09l.29-1.84A.39.39,0,0,0,4,1.515a.442.442,0,0,0-.4.11L1.25,5.115,0,4.275,2.34.785A1.888,1.888,0,0,1,4.48.1a1.869,1.869,0,0,1,1.21,2.12l-.25,1.6H7.53a1.9,1.9,0,0,1,1.6.78,1.837,1.837,0,0,1,.19,1.71l-1.37,4.16A2.38,2.38,0,0,1,5.67,12.195Z"
          transform="translate(4.28 7.097)" fill="#292d32"/>
    <path id="Vector-2" data-name="Vector"
          d="M2.46,9.28H1.89A1.67,1.67,0,0,1,0,7.44V1.84A1.67,1.67,0,0,1,1.89,0h.57A1.67,1.67,0,0,1,4.35,1.84v5.6A1.67,1.67,0,0,1,2.46,9.28ZM1.53,7.74a1.216,1.216,0,0,0,.35.04h.57a.868.868,0,0,0,.37-.05,1.022,1.022,0,0,0,.03-.29V1.84a.651.651,0,0,0-.04-.3,3.466,3.466,0,0,0-.35-.04H1.89a.868.868,0,0,0-.37.05,1.023,1.023,0,0,0-.03.29v5.6A.651.651,0,0,0,1.53,7.74Z"
          transform="translate(1.26 9.382)" fill="#292d32"/>
    <path id="Vector-3" data-name="Vector"
          d="M5.556,12.19a1.7,1.7,0,0,1-.59-.1,1.869,1.869,0,0,1-1.21-2.12l.25-1.6H1.916a1.9,1.9,0,0,1-1.6-.78,1.837,1.837,0,0,1-.19-1.71L1.5,1.72A2.455,2.455,0,0,1,3.806,0h2.17A2.528,2.528,0,0,1,7.6.56L9.3,1.87l-.92,1.19L6.606,1.69a1.1,1.1,0,0,0-.63-.19H3.806a.976.976,0,0,0-.87.63L1.546,6.36a.413.413,0,0,0,0,.36.44.44,0,0,0,.37.14h2.29a1.351,1.351,0,0,1,1.01.46,1.33,1.33,0,0,1,.31,1.09l-.29,1.84a.39.39,0,0,0,.24.43.409.409,0,0,0,.4-.11l2.35-3.49,1.25.84-2.34,3.49A2.029,2.029,0,0,1,5.556,12.19Z"
          transform="translate(11.504 1.25)" fill="#292d32"/>
    <path id="Vector-4" data-name="Vector"
          d="M2.46,9.28H1.89A1.67,1.67,0,0,1,0,7.44V1.84A1.67,1.67,0,0,1,1.89,0h.57A1.67,1.67,0,0,1,4.35,1.84v5.6A1.67,1.67,0,0,1,2.46,9.28ZM1.53,7.74a1.216,1.216,0,0,0,.35.04h.57a.868.868,0,0,0,.37-.05,1.023,1.023,0,0,0,.03-.29V1.84a.694.694,0,0,0-.04-.3c.01.04-.1-.04-.35-.04H1.89a.868.868,0,0,0-.37.05,1.022,1.022,0,0,0-.03.29v5.6A.7.7,0,0,0,1.53,7.74Z"
          transform="translate(19.65 1.88)" fill="#292d32"/>
    <path id="Vector-5" data-name="Vector" d="M0,0H24V20.542H0Z" fill="none" opacity="0"/>
  </g>
</svg>
