<svg id="heart" xmlns="http://www.w3.org/2000/svg" width="100" viewBox="0 0 13.563 13.563">
  <path id="Vector"
        d="M6.075,10.907a1.463,1.463,0,0,1-.486-.073C3.43,10.093,0,7.465,0,3.583A3.577,3.577,0,0,1,3.566,0,3.512,3.512,0,0,1,6.075,1.04,3.512,3.512,0,0,1,8.584,0,3.58,3.58,0,0,1,12.15,3.583c0,3.888-3.43,6.51-5.589,7.25A1.463,1.463,0,0,1,6.075,10.907ZM3.566.848A2.73,2.73,0,0,0,.848,3.583c0,3.86,3.713,6.007,5.018,6.453a.9.9,0,0,0,.424,0c1.3-.446,5.018-2.588,5.018-6.453A2.73,2.73,0,0,0,8.59.848a2.685,2.685,0,0,0-2.17,1.1.437.437,0,0,1-.678,0A2.7,2.7,0,0,0,3.566.848Z"
        transform="translate(0.706 1.328)" fill="#e1e8ed"/>
  <path id="Vector-2" d="M0,0H13.563V13.563H0Z" fill="none" opacity="0"/>
</svg>
