<svg xmlns="http://www.w3.org/2000/svg" width="15" height="15" viewBox="0 0 15 15">
    <path id="icons8_help"
          d="M11.5,4A7.5,7.5,0,1,0,19,11.5,7.509,7.509,0,0,0,11.5,4Zm0,1.125A6.375,6.375,0,1,1,5.125,11.5,6.366,6.366,0,0,1,11.5,5.125Zm0,2.25a2.259,2.259,0,0,0-2.25,2.25v.187a.563.563,0,1,0,1.125,0V9.625a1.125,1.125,0,0,1,2.25,0,1.237,1.237,0,0,1-.628,1.3,3.21,3.21,0,0,0-.686.644,2.087,2.087,0,0,0-.373,1.241.563.563,0,1,0,1.125,0,.841.841,0,0,1,.154-.576,2.632,2.632,0,0,1,.474-.425A2.652,2.652,0,0,0,13.75,9.625,2.259,2.259,0,0,0,11.5,7.375Zm0,7.125a.75.75,0,1,0,.75.75A.75.75,0,0,0,11.5,14.5Z"
          transform="translate(-4 -4)" fill="#fff"/>
</svg>
