<svg xmlns="http://www.w3.org/2000/svg" width="9" height="9" viewBox="0 0 9 9">
    <g id="info-circle" transform="translate(-1.25 -1.25)">
        <path id="Path_7467" data-name="Path 7467"
              d="M5.75,10.25a4.5,4.5,0,1,1,4.5-4.5A4.5,4.5,0,0,1,5.75,10.25Zm0-8.372A3.872,3.872,0,1,0,9.622,5.75,3.877,3.877,0,0,0,5.75,1.878Z"
              fill="#bbe3fb"/>
        <path id="Path_7468" data-name="Path 7468"
              d="M11.564,9.971a.316.316,0,0,1-.314-.314V7.564a.314.314,0,1,1,.628,0V9.657A.316.316,0,0,1,11.564,9.971Z"
              transform="translate(-5.814 -3.488)" fill="#bbe3fb"/>
        <path id="Path_7469" data-name="Path 7469"
              d="M11.419,15.84a.417.417,0,0,1-.159-.033.483.483,0,0,1-.138-.088.432.432,0,0,1-.088-.138.395.395,0,0,1,0-.318.377.377,0,0,1,.226-.226.419.419,0,0,1,.318,0,.377.377,0,0,1,.226.226.395.395,0,0,1,0,.318.432.432,0,0,1-.088.138.483.483,0,0,1-.138.088A.417.417,0,0,1,11.419,15.84Z"
              transform="translate(-5.669 -7.997)" fill="#bbe3fb"/>
    </g>
</svg>
