<svg xmlns="http://www.w3.org/2000/svg" viewBox="0 0 24 24">
    <g transform="translate(-108 -188)">
        <g transform="translate(108 188)">
            <path d="M6.75,18.5A6.76,6.76,0,0,1,0,11.75v-5a6.75,6.75,0,1,1,13.5,0v5A6.76,6.76,0,0,1,6.75,18.5Zm0-17A5.256,5.256,0,0,0,1.5,6.75v5a5.25,5.25,0,0,0,10.5,0v-5A5.256,5.256,0,0,0,6.75,1.5Z"
                  transform="translate(5.25 1.25)" fill="#1da1f2"/>
            <path d="M9.75,12.5A9.756,9.756,0,0,1,0,2.75v-2A.755.755,0,0,1,.75,0,.755.755,0,0,1,1.5.75v2a8.25,8.25,0,0,0,16.5,0v-2a.75.75,0,0,1,1.5,0v2A9.756,9.756,0,0,1,9.75,12.5Z"
                  transform="translate(2.25 10.25)" fill="#1da1f2"/>
            <path d="M6.245,1.975a.824.824,0,0,1-.26-.04,7.373,7.373,0,0,0-4.99,0,.748.748,0,0,1-.5-1.41,8.863,8.863,0,0,1,6.01,0,.749.749,0,0,1,.45.96A.742.742,0,0,1,6.245,1.975Z"
                  transform="translate(8.365 6.255)" fill="#1da1f2"/>
            <path d="M4.417,1.75a.747.747,0,0,1-.2-.03,6.254,6.254,0,0,0-3.27,0A.751.751,0,0,1,.557.27a7.766,7.766,0,0,1,4.06,0,.753.753,0,0,1-.2,1.48Z"
                  transform="translate(9.283 9.48)" fill="#1da1f2"/>
            <path d="M0,0H24V24H0Z" fill="none" opacity="0"/>
        </g>
    </g>
</svg>