<svg xmlns="http://www.w3.org/2000/svg" width="15.055" height="15.055" viewBox="0 0 15.055 15.055">
    <g transform="translate(0)">
        <path d="M0,.759V3.9a2.594,2.594,0,0,0,2.6,2.6H9.942a2.6,2.6,0,0,0,2.6-2.6V.759A.758.758,0,0,0,11.786,0H.759A.758.758,0,0,0,0,.759ZM3.764,4.391H2.509a.47.47,0,1,1,0-.941H3.764a.47.47,0,1,1,0,.941Zm4.077,0H5.332a.47.47,0,1,1,0-.941H7.841a.47.47,0,0,1,0,.941Z"
              transform="translate(1.255 6.43)" fill="#fff"/>
        <path d="M7.214.759V2.6a.758.758,0,0,1-.759.759H.759A.764.764,0,0,1,0,2.584,2.591,2.591,0,0,1,2.6,0H6.455A.758.758,0,0,1,7.214.759Z"
              transform="translate(1.255 2.133)" fill="#fff"/>
        <path d="M3.118,0H1.273A1.171,1.171,0,0,0,0,1.273V3.118A1.171,1.171,0,0,0,1.273,4.391H3.118A1.171,1.171,0,0,0,4.391,3.118V1.273A1.171,1.171,0,0,0,3.118,0Zm.414,1.537L2.045,3.274a.307.307,0,0,1-.232.113H1.8a.322.322,0,0,1-.232-.094l-.69-.677a.326.326,0,0,1,0-.458.32.32,0,0,1,.458,0l.439.433L3.03,1.123a.327.327,0,0,1,.458-.038A.315.315,0,0,1,3.532,1.537Z"
              transform="translate(9.409 1.255)" fill="#fff"/>
        <path d="M0,0H15.055V15.055H0Z" fill="none" opacity="0"/>
    </g>
</svg>