<svg xmlns="http://www.w3.org/2000/svg" width="15.055" height="15.055" viewBox="0 0 15.055 15.055">
    <g transform="translate(0)">
        <g transform="translate(0)">
            <path d="M0,.759V3.9a2.594,2.594,0,0,0,2.6,2.6H9.942a2.6,2.6,0,0,0,2.6-2.6V.759A.758.758,0,0,0,11.786,0H.759A.758.758,0,0,0,0,.759ZM3.764,4.391H2.509a.47.47,0,1,1,0-.941H3.764a.47.47,0,1,1,0,.941Zm4.077,0H5.332a.47.47,0,1,1,0-.941H7.841a.47.47,0,0,1,0,.941Z"
                  transform="translate(1.255 6.43)" fill="#fff"/>
            <path d="M7.214.759V2.6a.758.758,0,0,1-.759.759H.759A.764.764,0,0,1,0,2.584,2.591,2.591,0,0,1,2.6,0H6.455A.758.758,0,0,1,7.214.759Z"
                  transform="translate(1.255 2.133)" fill="#fff"/>
            <path d="M3.118,0H1.273A1.171,1.171,0,0,0,0,1.273V3.118A1.171,1.171,0,0,0,1.273,4.391H3.118A1.171,1.171,0,0,0,4.391,3.118V1.273A1.171,1.171,0,0,0,3.118,0ZM3.35,2.816a.411.411,0,0,1,.107.276.377.377,0,0,1-.107.257.383.383,0,0,1-.533,0L2.2,2.729l-.615.627a.381.381,0,0,1-.539-.539L1.669,2.2l-.621-.621a.39.39,0,0,1-.006-.539.379.379,0,0,1,.539.006l.615.621.627-.627a.383.383,0,0,1,.533,0,.459.459,0,0,1,.107.276.431.431,0,0,1-.1.263l-.627.627Z"
                  transform="translate(9.409 1.255)" fill="#fff"/>
            <path d="M0,0H15.055V15.055H0Z" fill="none" opacity="0"/>
        </g>
    </g>
</svg>