<svg xmlns="http://www.w3.org/2000/svg" width="44" height="44" viewBox="0 0 44 44">
    <g id="Group_2490" data-name="Group 2490" transform="translate(-228 -696)">
        <rect id="Rectangle_81" data-name="Rectangle 81" width="44" height="44" rx="10" transform="translate(228 696)"
              fill="#fff"/>
        <g id="moneys" transform="translate(239.229 709)">
            <path id="Path_7346" data-name="Path 7346"
                  d="M14.542,17.834H5.971a6.425,6.425,0,0,1-1.414-.146,3.648,3.648,0,0,1-.78-.215C2.48,16.986.949,15.787.949,12.8V7.781c0-3.189,1.833-5.022,5.022-5.022h8.571c2.691,0,4.427,1.287,4.895,3.627a6.926,6.926,0,0,1,.127,1.394V12.8C19.564,16.011,17.74,17.834,14.542,17.834ZM5.981,4.242c-2.4,0-3.559,1.16-3.559,3.559v5.022c0,1.745.614,2.818,1.872,3.3a3.362,3.362,0,0,0,.556.146,5.361,5.361,0,0,0,1.131.117h8.571c2.4,0,3.559-1.16,3.559-3.559V7.8a5.449,5.449,0,0,0-.1-1.1c-.332-1.658-1.463-2.457-3.462-2.457Z"
                  transform="translate(-0.949 -2.76)" fill="#1da1f2"/>
            <path id="Path_7347" data-name="Path 7347"
                  d="M17.547,20.838H8.976a6.144,6.144,0,0,1-2.2-.361,4.178,4.178,0,0,1-2.691-3.286.721.721,0,0,1,.2-.663.712.712,0,0,1,.673-.185,5.245,5.245,0,0,0,1.092.107h8.571c2.4,0,3.559-1.16,3.559-3.559V7.869a5.449,5.449,0,0,0-.1-1.1.75.75,0,0,1,.2-.663.7.7,0,0,1,.663-.2c2.34.478,3.627,2.213,3.627,4.885v5.022C22.568,19.015,20.745,20.838,17.547,20.838ZM5.875,17.913a2.56,2.56,0,0,0,1.424,1.2,4.826,4.826,0,0,0,1.687.263h8.571c2.4,0,3.559-1.16,3.559-3.559V10.794a3.189,3.189,0,0,0-1.463-3.1v5.2c0,3.189-1.833,5.022-5.022,5.022H5.875Z"
                  transform="translate(-1.027 -2.838)" fill="#1da1f2"/>
            <path id="Path_7348" data-name="Path 7348"
                  d="M10.415,13.721a3.306,3.306,0,1,1,3.306-3.306A3.308,3.308,0,0,1,10.415,13.721Zm0-5.148a1.843,1.843,0,1,0,1.843,1.843A1.848,1.848,0,0,0,10.415,8.572Z"
                  transform="translate(-1.103 -2.868)" fill="#1da1f2"/>
            <path id="Path_7349" data-name="Path 7349"
                  d="M4.763,13.3a.737.737,0,0,1-.731-.731V8.281a.731.731,0,1,1,1.463,0v4.29A.73.73,0,0,1,4.763,13.3Z"
                  transform="translate(-1.026 -2.879)" fill="#1da1f2"/>
            <path id="Path_7350" data-name="Path 7350"
                  d="M16.192,13.3a.737.737,0,0,1-.731-.731V8.281a.731.731,0,1,1,1.463,0v4.29A.73.73,0,0,1,16.192,13.3Z"
                  transform="translate(-1.311 -2.879)" fill="#1da1f2"/>
        </g>
    </g>
</svg>
