<svg xmlns="http://www.w3.org/2000/svg" width="25" height="25" viewBox="0 0 25 25">
    <g transform="translate(-108 -316)">
        <g transform="translate(108 316)">
            <path d="M2.865,5.729A2.865,2.865,0,1,1,5.729,2.865,2.863,2.863,0,0,1,2.865,5.729Zm0-4.167a1.3,1.3,0,1,0,1.3,1.3A1.3,1.3,0,0,0,2.865,1.563Z"
                  transform="translate(6.51 5.469)" fill="#292d32"/>
            <path d="M14.323,22.4H8.073C2.417,22.4,0,19.979,0,14.323V8.073C0,2.417,2.417,0,8.073,0H12.24a.787.787,0,0,1,.781.781.787.787,0,0,1-.781.781H8.073c-4.8,0-6.51,1.708-6.51,6.51v6.25c0,4.8,1.708,6.51,6.51,6.51h6.25c4.8,0,6.51-1.708,6.51-6.51V9.115a.781.781,0,0,1,1.563,0v5.208C22.4,19.979,19.979,22.4,14.323,22.4Z"
                  transform="translate(1.302 1.302)" fill="#292d32"/>
            <path d="M.779,5.612a.773.773,0,0,1-.552-.229.786.786,0,0,1,0-1.1L4.279.227a.781.781,0,0,1,1.1,1.1L1.331,5.383A.773.773,0,0,1,.779,5.612Z"
                  transform="translate(16.471 2.398)" fill="#292d32"/>
            <path d="M4.831,5.612a.773.773,0,0,1-.552-.229L.227,1.331a.781.781,0,1,1,1.1-1.1L5.383,4.279a.786.786,0,0,1,0,1.1A.739.739,0,0,1,4.831,5.612Z"
                  transform="translate(16.461 2.398)" fill="#292d32"/>
            <path d="M.779,8.8A.781.781,0,0,1,.341,7.378L5.477,3.93a3.129,3.129,0,0,1,3.7.2l.344.3a1.535,1.535,0,0,0,1.917,0L15.768.711a3.11,3.11,0,0,1,3.958,0l1.7,1.458A.783.783,0,1,1,20.4,3.357L18.706,1.9a1.535,1.535,0,0,0-1.917,0L12.456,5.617a3.11,3.11,0,0,1-3.958,0l-.344-.3a1.549,1.549,0,0,0-1.8-.083L1.227,8.68A.912.912,0,0,1,.779,8.8Z"
                  transform="translate(2.003 11.716)" fill="#292d32"/>
            <path d="M0,0H25V25H0Z" fill="none" opacity="0"/>
        </g>
    </g>
</svg>