<svg xmlns="http://www.w3.org/2000/svg" width="25.683" height="25.683" viewBox="0 0 25.683 25.683">
    <g transform="translate(-234.317 -315.105)">
        <g transform="translate(234.317 315.105)">
            <path d="M17.591,6.451,7.566,1.439C.832-1.934-1.932.83,1.441,7.564L2.46,9.6a2.134,2.134,0,0,1,0,1.886L1.441,13.513c-3.373,6.734-.621,9.5,6.125,6.125l10.025-5.012C22.088,12.377,22.088,8.7,17.591,6.451Zm-3.783,4.966H7.484a.878.878,0,1,1,0-1.757h6.324a.878.878,0,0,1,0,1.757Z"
                  transform="translate(2.359 2.303)" fill="#1da1f2"/>
            <path d="M0,0H25.683V25.683H0Z" transform="translate(25.683 25.683) rotate(180)" fill="none" opacity="0"/>
        </g>
    </g>
</svg>