<svg xmlns="http://www.w3.org/2000/svg" width="34.212" height="20.15" viewBox="0 0 34.212 20.15">
    <g transform="translate(-0.539 -6.705)">
        <path d="M-13.3.261a2.573,2.573,0,0,1-.922-.146,1.627,1.627,0,0,1-.617-.4,1.529,1.529,0,0,1-.346-.607,2.6,2.6,0,0,1-.107-.759q0-.209.009-.52t.009-.72q0-.409,0-.9t-.024-.98q-.02-.491-.057-.943a7.268,7.268,0,0,0-.1-.787l1.3-.4q.057.287.093.676t.059.815q.022.426.033.857t.015.8q0,.326-.011.685T-14-2.376q-.009.328.007.593a1.142,1.142,0,0,0,.08.4.389.389,0,0,0,.1.152.388.388,0,0,0,.137.078.635.635,0,0,0,.172.03q.093,0,.207,0h.117V.261ZM-9.583.248a2.811,2.811,0,0,1-.539-.054,4.146,4.146,0,0,1-.546-.146,4.476,4.476,0,0,1-.513-.211,3.884,3.884,0,0,1-.437-.246,1.7,1.7,0,0,1-.307.32,1.519,1.519,0,0,1-.348.207,1.659,1.659,0,0,1-.4.111,3.1,3.1,0,0,1-.463.033h-.217V-1.113h.217a.923.923,0,0,0,.483-.117,1.168,1.168,0,0,0,.335-.3,2.369,2.369,0,0,0,.246-.409q.107-.224.22-.437.13-.265.293-.53a2.6,2.6,0,0,1,.376-.478,1.817,1.817,0,0,1,.48-.346,1.337,1.337,0,0,1,.6-.133,1.421,1.421,0,0,1,.785.211,1.744,1.744,0,0,1,.541.552,2.562,2.562,0,0,1,.315.774,3.78,3.78,0,0,1,.1.872,2.068,2.068,0,0,1-.109.683,1.9,1.9,0,0,1-.283.539A1.37,1.37,0,0,1-9.141.12.868.868,0,0,1-9.583.248Zm-.557-2.787a.345.345,0,0,0-.235.1,1.27,1.27,0,0,0-.2.241,2.149,2.149,0,0,0-.172.313q-.076.17-.137.313a2.28,2.28,0,0,0,.326.17,3.546,3.546,0,0,0,.378.137q.2.059.4.1t.383.057a1.96,1.96,0,0,0-.026-.522,1.673,1.673,0,0,0-.15-.457,1.055,1.055,0,0,0-.246-.324A.469.469,0,0,0-10.139-2.539Zm2.061,4.526A7.5,7.5,0,0,0-6.961,1.68a5.192,5.192,0,0,0,.885-.413,3.107,3.107,0,0,0,.63-.485A1.6,1.6,0,0,0-5.091.261q-.187,0-.4-.007T-5.83.239A2.983,2.983,0,0,1-6.613.076,1.881,1.881,0,0,1-7.22-.276a1.521,1.521,0,0,1-.393-.546,1.847,1.847,0,0,1-.139-.739A2.727,2.727,0,0,1-7.7-2.1a3.124,3.124,0,0,1,.163-.543,2.661,2.661,0,0,1,.265-.5,2.2,2.2,0,0,1,.359-.413,1.593,1.593,0,0,1,.441-.28,1.319,1.319,0,0,1,.52-.1,1.526,1.526,0,0,1,.609.12,1.917,1.917,0,0,1,.511.324,2.335,2.335,0,0,1,.413.48,3.7,3.7,0,0,1,.313.591,4.529,4.529,0,0,1,.217.652,4.806,4.806,0,0,1,.12.663h.187V.261h-.278A3.527,3.527,0,0,1-4.4,1.42a4.12,4.12,0,0,1-.889.907,5,5,0,0,1-1.15.639,5.974,5.974,0,0,1-1.32.357Zm2.13-4.552a.283.283,0,0,0-.209.063.909.909,0,0,0-.217.217,1.492,1.492,0,0,0-.17.3.76.76,0,0,0-.065.317.354.354,0,0,0,.1.243.72.72,0,0,0,.235.159,1.37,1.37,0,0,0,.324.093q.18.03.359.043t.335.013h.27a5.007,5.007,0,0,0-.154-.517,2.514,2.514,0,0,0-.207-.443A1.37,1.37,0,0,0-5.617-2.4.687.687,0,0,0-5.948-2.565Zm2.2,1.452h1.043q.187,0,.413-.02a2.035,2.035,0,0,0,.424-.08.865.865,0,0,0,.33-.18.4.4,0,0,0,.133-.315,1.18,1.18,0,0,0-.063-.311q-.063-.207-.165-.461t-.23-.533q-.128-.278-.254-.53l1.243-.617q.122.274.241.583t.215.626a6,6,0,0,1,.154.633,3.292,3.292,0,0,1,.059.6,1.945,1.945,0,0,1-.2.915,1.7,1.7,0,0,1-.537.613,2.277,2.277,0,0,1-.8.343,4.3,4.3,0,0,1-.978.107H-3.752ZM-1.726-5.6l-.817.817-.843-.839.835-.839.826.826.817-.817.843.839L-.9-4.77Z"
              transform="translate(16 22)" fill="#fff"/>
        <path d="M-3.855,3.582a5.01,5.01,0,0,1-1.5-.21,3.173,3.173,0,0,1-1.155-.629A2.825,2.825,0,0,1-7.253,1.7,3.685,3.685,0,0,1-7.518.249a5.2,5.2,0,0,1,.251-1.583,6.357,6.357,0,0,1,.744-1.545l1.076.775a2.745,2.745,0,0,0-.225.387,5.542,5.542,0,0,0-.249.588,5.54,5.54,0,0,0-.2.7A3.335,3.335,0,0,0-6.2.287,1.443,1.443,0,0,0-6.024,1a1.791,1.791,0,0,0,.478.55,2.316,2.316,0,0,0,.689.359,2.763,2.763,0,0,0,.811.139A3.157,3.157,0,0,0-3.07,1.92a2.706,2.706,0,0,0,.82-.4A1.938,1.938,0,0,0-1.7.916,1.378,1.378,0,0,0-1.516.153a2.3,2.3,0,0,0-.077-.464q-.067-.258-.16-.528t-.206-.536q-.112-.265-.21-.485t-.17-.378Q-2.41-2.4-2.43-2.453l1.3-.722a1.139,1.139,0,0,1,.1.187q.077.167.179.433t.22.605q.117.34.213.7t.16.722A3.747,3.747,0,0,1-.2.134a3.808,3.808,0,0,1-.1.847,3.393,3.393,0,0,1-.294.806,3.292,3.292,0,0,1-.5.713,3.069,3.069,0,0,1-.705.569,3.591,3.591,0,0,1-.923.378A4.477,4.477,0,0,1-3.855,3.582Zm.033-5.753L-4.883-3.233l1.062-1.062L-2.76-3.233Z"
              transform="translate(11 11)" fill="#fff"/>
        <path d="M-14.563-3.219q.1.3.213.648t.206.72q.093.368.155.734a4.108,4.108,0,0,1,.062.686,3.187,3.187,0,0,1-.122.878,3.936,3.936,0,0,1-.344.83,4.969,4.969,0,0,1-.528.77,6.2,6.2,0,0,1-.679.7,7.209,7.209,0,0,1-.8.607,8.308,8.308,0,0,1-.88.5l-.87-1.21q.344-.172.7-.39a8.028,8.028,0,0,0,.674-.466,6.87,6.87,0,0,0,.6-.521,4.538,4.538,0,0,0,.488-.555,2.709,2.709,0,0,0,.328-.572,1.478,1.478,0,0,0,.12-.567A1.913,1.913,0,0,0-15.3-.861a4.827,4.827,0,0,0-.151-.5q-.1-.27-.222-.574t-.275-.648ZM-13.047.3q.024-.392.048-.813t.041-.832q.017-.411.022-.8t-.01-.713q-.029-.679-.055-1.193t-.053-.911q-.026-.4-.053-.7t-.055-.548q-.029-.249-.062-.466t-.072-.452l1.478-.488q.105.641.17,1.291t.1,1.246q.033.6.045,1.107t.012.875q0,.33,0,.713t-.01.794q-.007.411-.022.832t-.043.823ZM-7.265.287q-.105,0-.277-.014A1.339,1.339,0,0,1-7.934.167a3.7,3.7,0,0,1-.395,1.126,5.059,5.059,0,0,1-.715,1,6.248,6.248,0,0,1-.971.858,8.658,8.658,0,0,1-1.162.7l-.875-1.21q.34-.172.684-.375t.658-.43a6.729,6.729,0,0,0,.583-.473A3.87,3.87,0,0,0-9.656.856,2.431,2.431,0,0,0-9.34.318a1.435,1.435,0,0,0,.115-.557A2.032,2.032,0,0,0-9.3-.713Q-9.369-1-9.479-1.33t-.244-.665q-.134-.335-.258-.612l1.382-.6a9.874,9.874,0,0,0,.366.957A3.824,3.824,0,0,0-7.9-1.64a1.167,1.167,0,0,0,.313.323.565.565,0,0,0,.3.093h.115V.287ZM-9.278-4.151-10.34-5.213l1.062-1.062,1.062,1.062Zm1.9,2.927h.3q.053,0,.122,0l.172-.01.28-.014a2.465,2.465,0,0,1-.253-.61,2.523,2.523,0,0,1-.086-.653,2.54,2.54,0,0,1,.191-.973,2.1,2.1,0,0,1,.579-.8l-.249-.139L-5.4-5.787q.607.316,1.193.6t1.122.526l.806.371q.352.16.634.316a4.031,4.031,0,0,1,.507.328,2.767,2.767,0,0,1,.421.4,2.035,2.035,0,0,1,.359.689,2.549,2.549,0,0,1,.11.722A1.99,1.99,0,0,1-.524-.825a2.234,2.234,0,0,1-.811.8A1.615,1.615,0,0,1-1.7.12a4.306,4.306,0,0,1-.454.1q-.237.041-.466.06t-.4.019q-.2,0-.435-.017T-3.929.232Q-4.166.2-4.39.139A3.115,3.115,0,0,1-4.8,0a5.262,5.262,0,0,1-.514.12q-.285.053-.6.088t-.641.055Q-6.882.287-7.2.287h-.177Zm2.769-2.343a.465.465,0,0,0-.328.091,1.355,1.355,0,0,0-.318.3,1.577,1.577,0,0,0-.23.4.859.859,0,0,0-.067.4.608.608,0,0,0,.1.253,1.737,1.737,0,0,0,.194.251,1.611,1.611,0,0,0,.242.215,1.107,1.107,0,0,0,.239.136,1.433,1.433,0,0,0,.354-.086.918.918,0,0,0,.316-.2.993.993,0,0,0,.225-.344A1.367,1.367,0,0,0-3.8-2.669a.615.615,0,0,0-.088-.311,1.4,1.4,0,0,0-.213-.28,1.305,1.305,0,0,0-.265-.21A.69.69,0,0,0-4.606-3.568Zm2.066.7a2.4,2.4,0,0,1-.048.476,3.334,3.334,0,0,1-.129.464A3.757,3.757,0,0,1-2.9-1.5a3.632,3.632,0,0,1-.218.375h.043q.354,0,.646-.026a2,2,0,0,0,.507-.105.836.836,0,0,0,.342-.22.643.643,0,0,0,.151-.375.371.371,0,0,0-.1-.251,1.735,1.735,0,0,0-.27-.273,3.8,3.8,0,0,0-.366-.265Q-2.363-2.769-2.54-2.87Z"
              transform="translate(35 23)" fill="#fff"/>
    </g>
</svg>