<svg xmlns="http://www.w3.org/2000/svg" width="21.554" height="24.117" viewBox="0 0 21.554 24.117">
    <g transform="translate(-0.355 -8.534)">
        <path d="M-18.62.365a3.6,3.6,0,0,1-1.29-.2A2.277,2.277,0,0,1-20.775-.4a2.14,2.14,0,0,1-.484-.849,3.632,3.632,0,0,1-.149-1.062q0-.292.012-.727t.012-1.007q0-.572-.006-1.257t-.033-1.373Q-21.45-7.365-21.5-8a10.174,10.174,0,0,0-.143-1.1l1.82-.554q.079.4.131.947t.082,1.141q.03.6.046,1.2t.021,1.12q.006.457-.015.959t-.033.962q-.012.46.009.831a1.6,1.6,0,0,0,.113.566.545.545,0,0,0,.137.213.544.544,0,0,0,.192.11.888.888,0,0,0,.24.043q.131.006.289.006h.164V.365Zm5.2-.018A3.935,3.935,0,0,1-14.17.271a5.8,5.8,0,0,1-.764-.2,6.266,6.266,0,0,1-.718-.3,5.438,5.438,0,0,1-.612-.344,2.383,2.383,0,0,1-.429.447,2.127,2.127,0,0,1-.487.289,2.322,2.322,0,0,1-.56.155,4.333,4.333,0,0,1-.648.046h-.3V-1.558h.3a1.292,1.292,0,0,0,.676-.164,1.635,1.635,0,0,0,.469-.423,3.316,3.316,0,0,0,.344-.572q.149-.313.307-.612.183-.371.411-.743a3.634,3.634,0,0,1,.527-.67,2.544,2.544,0,0,1,.673-.484,1.872,1.872,0,0,1,.843-.186,1.989,1.989,0,0,1,1.1.3,2.441,2.441,0,0,1,.758.773,3.587,3.587,0,0,1,.441,1.083,5.292,5.292,0,0,1,.143,1.22,2.9,2.9,0,0,1-.152.956,2.656,2.656,0,0,1-.4.755,1.917,1.917,0,0,1-.551.5A1.215,1.215,0,0,1-13.416.347Zm-.779-3.9a.483.483,0,0,0-.329.137,1.778,1.778,0,0,0-.286.338,3.009,3.009,0,0,0-.24.438q-.107.237-.192.438a3.192,3.192,0,0,0,.457.237,4.964,4.964,0,0,0,.53.192q.274.082.554.137t.536.079a2.745,2.745,0,0,0-.037-.73,2.342,2.342,0,0,0-.21-.639,1.478,1.478,0,0,0-.344-.453A.657.657,0,0,0-14.195-3.555Zm2.885,6.337a10.5,10.5,0,0,0,1.564-.429,7.269,7.269,0,0,0,1.239-.578A4.349,4.349,0,0,0-7.624,1.1a2.235,2.235,0,0,0,.5-.73q-.262,0-.554-.009T-8.163.335a4.176,4.176,0,0,1-1.1-.228,2.633,2.633,0,0,1-.849-.493,2.129,2.129,0,0,1-.551-.764,2.586,2.586,0,0,1-.195-1.035,3.817,3.817,0,0,1,.079-.761,4.373,4.373,0,0,1,.228-.761,3.726,3.726,0,0,1,.371-.7,3.081,3.081,0,0,1,.5-.578,2.231,2.231,0,0,1,.618-.393,1.846,1.846,0,0,1,.727-.143,2.136,2.136,0,0,1,.852.167A2.683,2.683,0,0,1-6.76-4.9a3.269,3.269,0,0,1,.578.673,5.183,5.183,0,0,1,.438.828,6.341,6.341,0,0,1,.3.913,6.728,6.728,0,0,1,.167.928h.262V.365H-5.4a4.938,4.938,0,0,1-.758,1.622A5.768,5.768,0,0,1-7.4,3.257a7,7,0,0,1-1.61.895,8.364,8.364,0,0,1-1.847.5Zm2.983-6.373a.4.4,0,0,0-.292.088,1.273,1.273,0,0,0-.3.3,2.088,2.088,0,0,0-.237.423,1.064,1.064,0,0,0-.091.444.5.5,0,0,0,.134.341,1.008,1.008,0,0,0,.329.222,1.918,1.918,0,0,0,.453.131q.253.043.5.061t.469.018h.377A7.009,7.009,0,0,0-7.2-2.283,3.52,3.52,0,0,0-7.493-2.9a1.918,1.918,0,0,0-.371-.457A.962.962,0,0,0-8.327-3.591Zm3.074,2.033h1.461q.262,0,.578-.027A2.849,2.849,0,0,0-2.62-1.7a1.211,1.211,0,0,0,.463-.253.566.566,0,0,0,.186-.441,1.652,1.652,0,0,0-.088-.435q-.088-.289-.231-.645t-.323-.746q-.18-.39-.356-.743l1.741-.864q.17.383.338.816t.3.877a8.393,8.393,0,0,1,.216.886A4.608,4.608,0,0,1-.292-2.4,2.724,2.724,0,0,1-.569-1.123a2.383,2.383,0,0,1-.752.858A3.188,3.188,0,0,1-2.435.216,6.016,6.016,0,0,1-3.8.365H-5.253Zm2.837-6.276L-3.561-6.69-4.742-7.864l1.169-1.175,1.157,1.157,1.144-1.144L-.091-7.852-1.26-6.677Z"
              transform="translate(22 28)" fill="#fff"/>
        <path d="M-4.906,4.559a6.376,6.376,0,0,1-1.905-.268,4.038,4.038,0,0,1-1.47-.8,3.6,3.6,0,0,1-.95-1.327A4.69,4.69,0,0,1-9.569.317,6.612,6.612,0,0,1-9.249-1.7,8.091,8.091,0,0,1-8.3-3.664l1.37.986a3.493,3.493,0,0,0-.286.493,7.053,7.053,0,0,0-.317.749,7.051,7.051,0,0,0-.256.892,4.245,4.245,0,0,0-.1.91,1.837,1.837,0,0,0,.228.913,2.28,2.28,0,0,0,.609.7,2.947,2.947,0,0,0,.877.457,3.516,3.516,0,0,0,1.032.177,4.018,4.018,0,0,0,1.242-.167,3.444,3.444,0,0,0,1.044-.505,2.467,2.467,0,0,0,.7-.773A1.754,1.754,0,0,0-1.93.195a2.922,2.922,0,0,0-.1-.59q-.085-.329-.2-.673t-.262-.682q-.143-.338-.268-.618t-.216-.481q-.091-.2-.116-.274l1.656-.919a1.45,1.45,0,0,1,.122.237q.1.213.228.551t.28.77q.149.432.271.895t.2.919A4.768,4.768,0,0,1-.25.17,4.847,4.847,0,0,1-.371,1.248,4.318,4.318,0,0,1-.746,2.273a4.19,4.19,0,0,1-.633.907,3.905,3.905,0,0,1-.9.724,4.57,4.57,0,0,1-1.175.481A5.7,5.7,0,0,1-4.906,4.559Zm.043-7.323L-6.215-4.115l1.351-1.351,1.351,1.351Z"
              transform="translate(13 14)" fill="#fff"/>
    </g>
</svg>