<svg xmlns="http://www.w3.org/2000/svg" xmlns:xlink="http://www.w3.org/1999/xlink" width="92" height="92"
     viewBox="0 0 92 92">
    <defs>
        <filter id="a">
            <feOffset dy="3" input="SourceAlpha"/>
            <feGaussianBlur stdDeviation="3" result="b"/>
            <feFlood flood-opacity="0.161" result="c"/>
            <feComposite operator="out" in="SourceGraphic" in2="b"/>
            <feComposite operator="in" in="c"/>
            <feComposite operator="in" in2="SourceGraphic"/>
        </filter>
        <filter id="d">
            <feOffset dy="3" input="SourceAlpha"/>
            <feGaussianBlur stdDeviation="3" result="e"/>
            <feFlood flood-opacity="0.161" result="f"/>
            <feComposite operator="out" in="SourceGraphic" in2="e"/>
            <feComposite operator="in" in="f"/>
            <feComposite operator="in" in2="SourceGraphic"/>
        </filter>
    </defs>
    <g transform="translate(-684 -188)">
        <g transform="translate(684 188)">
            <path d="M0,0H92V92H0Z" fill="none" opacity="0"/>
            <g data-type="innerShadowGroup">
                <path d="M52.559,8.855V2.875a2.875,2.875,0,0,0-5.75,0v5.75H21.893V2.875a2.875,2.875,0,0,0-5.75,0v5.98C5.793,9.813.771,15.985,0,25.147a1.926,1.926,0,0,0,1.917,2.032h64.86A1.9,1.9,0,0,0,68.7,25.147C67.931,15.985,62.909,9.813,52.559,8.855Z"
                      transform="translate(11.649 4.792)" fill="#d8eeff"/>
                <g transform="matrix(1, 0, 0, 1, 0, 0)" filter="url(#a)">
                    <path d="M52.559,8.855V2.875a2.875,2.875,0,0,0-5.75,0v5.75H21.893V2.875a2.875,2.875,0,0,0-5.75,0v5.98C5.793,9.813.771,15.985,0,25.147a1.926,1.926,0,0,0,1.917,2.032h64.86A1.9,1.9,0,0,0,68.7,25.147C67.931,15.985,62.909,9.813,52.559,8.855Z"
                          transform="translate(11.65 4.79)" fill="#fff"/>
                </g>
            </g>
            <g data-type="innerShadowGroup">
                <path d="M65.167,0H3.833A3.845,3.845,0,0,0,0,3.833V27.447c0,11.5,5.75,19.167,19.167,19.167h18.9a3.826,3.826,0,0,0,3.642-5.06,22.322,22.322,0,0,1-1.418-6.44A21.121,21.121,0,0,1,61.372,14.03a18.819,18.819,0,0,1,3.3.268,3.815,3.815,0,0,0,4.37-3.757V3.872A3.911,3.911,0,0,0,65.167,0ZM23.8,30.168a4.031,4.031,0,0,1-2.722,1.112,3.816,3.816,0,0,1-1.457-.307,4.426,4.426,0,0,1-1.265-.805,3.959,3.959,0,0,1-1.112-2.722,3.816,3.816,0,0,1,.307-1.457,3.957,3.957,0,0,1,.805-1.265,4.426,4.426,0,0,1,1.265-.805,3.842,3.842,0,0,1,4.178.805,3.957,3.957,0,0,1,.805,1.265,3.816,3.816,0,0,1,.307,1.457A3.959,3.959,0,0,1,23.8,30.168Zm0-13.417a4.031,4.031,0,0,1-2.722,1.112,3.214,3.214,0,0,1-1.457-.307,4.426,4.426,0,0,1-1.265-.805A4.031,4.031,0,0,1,17.25,14.03a3.816,3.816,0,0,1,.307-1.457,4.426,4.426,0,0,1,.805-1.265,4.426,4.426,0,0,1,1.265-.805,3.914,3.914,0,0,1,4.178.805,4.426,4.426,0,0,1,.805,1.265,3.816,3.816,0,0,1,.307,1.457A4.031,4.031,0,0,1,23.8,16.752Zm14.222-1.265a4.426,4.426,0,0,1-.8,1.265,4.426,4.426,0,0,1-1.265.805,3.214,3.214,0,0,1-1.457.307,4.031,4.031,0,0,1-2.722-1.112,4.426,4.426,0,0,1-.8-1.265,3.816,3.816,0,0,1-.307-1.457,4.031,4.031,0,0,1,1.112-2.722,3.829,3.829,0,0,1,4.178-.805,4.426,4.426,0,0,1,1.265.805,4.031,4.031,0,0,1,1.112,2.722A3.214,3.214,0,0,1,38.027,15.487Z"
                      transform="translate(11.5 37.72)" fill="#d8eeff"/>
                <g transform="matrix(1, 0, 0, 1, 0, 0)" filter="url(#d)">
                    <path d="M65.167,0H3.833A3.845,3.845,0,0,0,0,3.833V27.447c0,11.5,5.75,19.167,19.167,19.167h18.9a3.826,3.826,0,0,0,3.642-5.06,22.322,22.322,0,0,1-1.418-6.44A21.121,21.121,0,0,1,61.372,14.03a18.819,18.819,0,0,1,3.3.268,3.815,3.815,0,0,0,4.37-3.757V3.872A3.911,3.911,0,0,0,65.167,0ZM23.8,30.168a4.031,4.031,0,0,1-2.722,1.112,3.816,3.816,0,0,1-1.457-.307,4.426,4.426,0,0,1-1.265-.805,3.959,3.959,0,0,1-1.112-2.722,3.816,3.816,0,0,1,.307-1.457,3.957,3.957,0,0,1,.805-1.265,4.426,4.426,0,0,1,1.265-.805,3.842,3.842,0,0,1,4.178.805,3.957,3.957,0,0,1,.805,1.265,3.816,3.816,0,0,1,.307,1.457A3.959,3.959,0,0,1,23.8,30.168Zm0-13.417a4.031,4.031,0,0,1-2.722,1.112,3.214,3.214,0,0,1-1.457-.307,4.426,4.426,0,0,1-1.265-.805A4.031,4.031,0,0,1,17.25,14.03a3.816,3.816,0,0,1,.307-1.457,4.426,4.426,0,0,1,.805-1.265,4.426,4.426,0,0,1,1.265-.805,3.914,3.914,0,0,1,4.178.805,4.426,4.426,0,0,1,.805,1.265,3.816,3.816,0,0,1,.307,1.457A4.031,4.031,0,0,1,23.8,16.752Zm14.222-1.265a4.426,4.426,0,0,1-.8,1.265,4.426,4.426,0,0,1-1.265.805,3.214,3.214,0,0,1-1.457.307,4.031,4.031,0,0,1-2.722-1.112,4.426,4.426,0,0,1-.8-1.265,3.816,3.816,0,0,1-.307-1.457,4.031,4.031,0,0,1,1.112-2.722,3.829,3.829,0,0,1,4.178-.805,4.426,4.426,0,0,1,1.265.805,4.031,4.031,0,0,1,1.112,2.722A3.214,3.214,0,0,1,38.027,15.487Z"
                          transform="translate(11.5 37.72)" fill="#fff"/>
                </g>
            </g>
            <path d="M15.333,0A15.333,15.333,0,1,0,30.667,15.333,15.329,15.329,0,0,0,15.333,0Zm6.133,21.62a2.869,2.869,0,0,1-4.063,0l-2.032-2.032L13.263,21.7a2.869,2.869,0,0,1-4.063,0,2.892,2.892,0,0,1,0-4.063l2.108-2.108L9.277,13.493A2.873,2.873,0,0,1,13.34,9.43l2.032,2.07,1.917-1.917a2.873,2.873,0,1,1,4.063,4.063l-1.917,1.917L21.467,17.6A2.846,2.846,0,0,1,21.467,21.62Z"
                  transform="translate(57.5 57.5)" fill="#d8eeff"/>
        </g>
    </g>
</svg>