<svg xmlns="http://www.w3.org/2000/svg" width="24" height="24" viewBox="0 0 24 24">
    <path d="M4.97,0H2.03A1.866,1.866,0,0,0,0,2.03V4.97A1.866,1.866,0,0,0,2.03,7H4.97A1.866,1.866,0,0,0,7,4.97V2.03A1.866,1.866,0,0,0,4.97,0Zm.22,3.31a.628.628,0,0,1-.88,0l-.18-.18V5.37a.63.63,0,1,1-1.26,0V3.13l-.18.18a.622.622,0,0,1-.88-.88L3.06,1.18a.615.615,0,0,1,.19-.12c.02-.01.04-.01.06-.02a.415.415,0,0,1,.16-.03h.06a.477.477,0,0,1,.2.04h.02a.567.567,0,0,1,.18.12c.01.01.01.01.02.01L5.2,2.43A.619.619,0,0,1,5.19,3.31Z"
          transform="translate(15 1.75)" fill="#fff"/>
    <path d="M0,1.21v5a4.135,4.135,0,0,0,4.14,4.14H15.85A4.153,4.153,0,0,0,20,6.2V1.21A1.208,1.208,0,0,0,18.79,0H1.21A1.208,1.208,0,0,0,0,1.21ZM6,7H4A.75.75,0,0,1,4,5.5H6A.75.75,0,0,1,6,7Zm6.5,0h-4a.75.75,0,0,1,0-1.5h4a.75.75,0,0,1,0,1.5Z"
          transform="translate(2 10.25)" fill="#fff"/>
    <path d="M11.5,1.21V4.14a1.208,1.208,0,0,1-1.21,1.21H1.21A1.218,1.218,0,0,1,0,4.12,4.131,4.131,0,0,1,4.14,0h6.15A1.208,1.208,0,0,1,11.5,1.21Z"
          transform="translate(2 3.4)" fill="#fff"/>
    <path d="M0,0H24V24H0Z" fill="none" opacity="0"/>
</svg>