<svg xmlns="http://www.w3.org/2000/svg" width="33" height="32" viewBox="0 0 33 32">
    <g transform="translate(0 -0.089)">
        <rect width="33" height="32" rx="4" transform="translate(0 0.089)" fill="#fff"/>
        <g transform="translate(11.902 8.905)">
            <path d="M1.232,12.316A1.24,1.24,0,0,1,0,11.085V1.232A1.241,1.241,0,0,1,1.232,0,1.241,1.241,0,0,1,2.463,1.232V8.112L3.646,6.93A1.231,1.231,0,1,1,5.386,8.671L2.1,11.955A1.23,1.23,0,0,1,1.232,12.316Z"
                  transform="translate(3.28)" fill="#ff1e60"/>
            <path d="M4.512,5.743a1.218,1.218,0,0,1-.87-.361L.357,2.1A1.231,1.231,0,0,1,2.1.357L5.382,3.641a1.239,1.239,0,0,1,0,1.741A1.218,1.218,0,0,1,4.512,5.743Z"
                  transform="translate(0 6.573)" fill="#ff1e60"/>
        </g>
    </g>
</svg>